<?xml version="1.0" encoding="utf-8"?>
<!-- Generator: Adobe Illustrator 24.3.0, SVG Export Plug-In . SVG Version: 6.00 Build 0)  -->
<svg version="1.1" id="Layer_1" xmlns="http://www.w3.org/2000/svg" xmlns:xlink="http://www.w3.org/1999/xlink" x="0px" y="0px"
	 viewBox="0 0 1920 1080" style="enable-background:new 0 0 1920 1080;" xml:space="preserve">
<style type="text/css">
	.st0{clip-path:url(#SVGID_2_);}
	.st1{opacity:0.05;clip-path:url(#SVGID_4_);}
	.st2{clip-path:url(#SVGID_6_);}
	.st3{clip-path:url(#SVGID_8_);fill:#414142;}
	.st4{clip-path:url(#SVGID_4_);fill:#453B97;}
	.st5{clip-path:url(#SVGID_4_);fill:none;stroke:#FFFFFF;stroke-width:36;stroke-miterlimit:10;}
	.st6{clip-path:url(#SVGID_10_);fill:url(#SVGID_11_);}
</style>
<g>
	<defs>
		<rect id="SVGID_1_" width="1920" height="1080"/>
	</defs>
	<clipPath id="SVGID_2_">
		<use xlink:href="#SVGID_1_"  style="overflow:visible;"/>
	</clipPath>
	<g class="st0">
		<defs>
			<rect id="SVGID_3_" width="1920" height="1080"/>
		</defs>
		<clipPath id="SVGID_4_">
			<use xlink:href="#SVGID_3_"  style="overflow:visible;"/>
		</clipPath>
		<g class="st1">
			<g>
				<defs>
					<rect id="SVGID_5_" x="-91" y="67" width="1182" height="1118.84"/>
				</defs>
				<clipPath id="SVGID_6_">
					<use xlink:href="#SVGID_5_"  style="overflow:visible;"/>
				</clipPath>
				<g class="st2">
					<defs>
						<rect id="SVGID_7_" x="-91" y="67" width="1182" height="1118.84"/>
					</defs>
					<clipPath id="SVGID_8_">
						<use xlink:href="#SVGID_7_"  style="overflow:visible;"/>
					</clipPath>
					<path class="st3" d="M424.74,388.33c27.92,0,53.95,3.79,78.57,10.42V181.22c-25.42-3.81-51.55-5.92-78.57-5.92
						c-141.17,0-259.14,48.62-358.65,148.19C-33.38,423.05-82,541.14-82,680.06c0,141.25,48.62,259.33,148.09,358.9
						c99.51,97.25,217.48,145.88,358.65,145.88c138.81,0,256.83-48.63,356.34-145.88c99.48-99.57,148.08-217.65,148.08-358.9
						c0-2.76-0.24-5.41-0.29-8.16H708.85c0.06,2.78,0.47,5.35,0.47,8.16c0,85.68-27.76,155.14-83.29,210.71
						c-53.21,53.26-120.33,81.05-201.29,81.05c-81,0-148.08-27.78-203.61-81.05c-53.22-55.57-81-125.03-81-210.71
						c0-85.67,27.78-155.13,81-208.38C276.66,416.11,343.74,388.33,424.74,388.33 M1082,333.23c0-9.56-2.12-18.06-15.93-18.06
						h-204.9c-6.37,0-8.49-2.12-8.49-8.5V96.31c0-20.19-15.92-22.31-30.79-22.31c-14.87,0-44.6,7.44-44.6,15.94v216.73
						c0,5.31-2.12,8.5-7.42,8.5H562.84c-7.43,0-14.86,26.56-14.86,40.37c0,14.87,5.31,27.62,16.99,27.62h200.65
						c8.5,0,11.67,2.13,11.67,11.69v224.17c0,13.81,16.99,15.94,24.42,15.94c16.99,0,50.96-5.31,50.96-22.31V395.91
						c0-6.38,2.12-12.75,9.55-12.75h204.91C1073.5,383.16,1082,358.73,1082,333.23"/>
				</g>
			</g>
		</g>
		<path class="st4" d="M1824.88,824.2c-0.48-0.48-1.27-0.48-1.75,0c-0.48,0.48-0.48,1.27,0,1.75s1.27,0.48,1.75,0
			C1825.36,825.46,1825.36,824.68,1824.88,824.2 M1824.88,824.2c-0.48-0.48-1.27-0.48-1.75,0c-0.48,0.48-0.48,1.27,0,1.75
			s1.27,0.48,1.75,0C1825.36,825.46,1825.36,824.68,1824.88,824.2 M1813.19,835.89c-0.48-0.48-1.27-0.48-1.75,0
			c-0.48,0.48-0.48,1.27,0,1.75c0.48,0.48,1.27,0.48,1.75,0C1813.67,837.16,1813.67,836.37,1813.19,835.89 M1813.19,835.89
			c-0.48-0.48-1.27-0.48-1.75,0c-0.48,0.48-0.48,1.27,0,1.75c0.48,0.48,1.27,0.48,1.75,0
			C1813.67,837.16,1813.67,836.37,1813.19,835.89 M1801.49,847.58c-0.48-0.48-1.27-0.48-1.75,0c-0.48,0.48-0.48,1.27,0,1.75
			c0.48,0.48,1.27,0.48,1.75,0C1801.98,848.85,1801.98,848.06,1801.49,847.58 M1801.49,847.58c-0.48-0.48-1.27-0.48-1.75,0
			c-0.48,0.48-0.48,1.27,0,1.75c0.48,0.48,1.27,0.48,1.75,0C1801.98,848.85,1801.98,848.06,1801.49,847.58 M1789.8,859.27
			c-0.48-0.48-1.27-0.48-1.75,0c-0.48,0.48-0.48,1.27,0,1.75c0.48,0.49,1.27,0.49,1.75,0
			C1790.29,860.54,1790.29,859.76,1789.8,859.27 M1789.8,859.27c-0.48-0.48-1.27-0.48-1.75,0c-0.48,0.48-0.48,1.27,0,1.75
			c0.48,0.49,1.27,0.49,1.75,0C1790.29,860.54,1790.29,859.76,1789.8,859.27 M1778.11,870.96c-0.48-0.48-1.27-0.48-1.75,0
			c-0.48,0.48-0.48,1.27,0,1.75c0.48,0.48,1.27,0.48,1.75,0C1778.59,872.23,1778.59,871.45,1778.11,870.96 M1778.11,870.96
			c-0.48-0.48-1.27-0.48-1.75,0c-0.48,0.48-0.48,1.27,0,1.75c0.48,0.48,1.27,0.48,1.75,0
			C1778.59,872.23,1778.59,871.45,1778.11,870.96 M1766.42,882.65c-0.48-0.48-1.27-0.48-1.75,0s-0.48,1.27,0,1.75s1.27,0.48,1.75,0
			S1766.9,883.14,1766.42,882.65 M1766.42,882.65c-0.48-0.48-1.27-0.48-1.75,0s-0.48,1.27,0,1.75s1.27,0.48,1.75,0
			S1766.9,883.14,1766.42,882.65 M1754.73,894.35c-0.48-0.48-1.27-0.48-1.75,0c-0.48,0.48-0.48,1.27,0,1.75
			c0.48,0.48,1.27,0.48,1.75,0C1755.21,895.61,1755.21,894.83,1754.73,894.35 M1754.73,894.35c-0.48-0.48-1.27-0.48-1.75,0
			c-0.48,0.48-0.48,1.27,0,1.75c0.48,0.48,1.27,0.48,1.75,0C1755.21,895.61,1755.21,894.83,1754.73,894.35 M1743.04,906.04
			c-0.48-0.48-1.27-0.48-1.75,0c-0.48,0.48-0.48,1.27,0,1.75c0.48,0.48,1.27,0.48,1.75,0
			C1743.52,907.31,1743.52,906.52,1743.04,906.04 M1743.04,906.04c-0.48-0.48-1.27-0.48-1.75,0c-0.48,0.48-0.48,1.27,0,1.75
			c0.48,0.48,1.27,0.48,1.75,0C1743.52,907.31,1743.52,906.52,1743.04,906.04 M1731.34,917.73c-0.48-0.48-1.27-0.48-1.75,0
			c-0.48,0.48-0.48,1.27,0,1.75c0.48,0.48,1.27,0.48,1.75,0C1731.83,919,1731.83,918.21,1731.34,917.73 M1731.34,917.73
			c-0.48-0.48-1.27-0.48-1.75,0c-0.48,0.48-0.48,1.27,0,1.75c0.48,0.48,1.27,0.48,1.75,0C1731.83,919,1731.83,918.21,1731.34,917.73
			 M1719.65,929.42c-0.48-0.48-1.27-0.48-1.75,0c-0.48,0.48-0.48,1.27,0,1.75c0.48,0.48,1.27,0.48,1.75,0
			S1720.14,929.91,1719.65,929.42 M1719.65,929.42c-0.48-0.48-1.27-0.48-1.75,0c-0.48,0.48-0.48,1.27,0,1.75
			c0.48,0.48,1.27,0.48,1.75,0S1720.14,929.91,1719.65,929.42 M1707.96,941.11c-0.48-0.48-1.27-0.48-1.75,0
			c-0.48,0.48-0.48,1.27,0,1.75c0.48,0.48,1.27,0.48,1.75,0C1708.44,942.38,1708.44,941.6,1707.96,941.11 M1707.96,941.11
			c-0.48-0.48-1.27-0.48-1.75,0c-0.48,0.48-0.48,1.27,0,1.75c0.48,0.48,1.27,0.48,1.75,0
			C1708.44,942.38,1708.44,941.6,1707.96,941.11 M1696.27,952.8c-0.48-0.48-1.27-0.48-1.75,0c-0.48,0.48-0.48,1.27,0,1.75
			c0.48,0.48,1.27,0.48,1.75,0C1696.75,954.07,1696.75,953.29,1696.27,952.8 M1696.27,952.8c-0.48-0.48-1.27-0.48-1.75,0
			c-0.48,0.48-0.48,1.27,0,1.75c0.48,0.48,1.27,0.48,1.75,0C1696.75,954.07,1696.75,953.29,1696.27,952.8 M1684.58,964.5
			c-0.48-0.48-1.27-0.48-1.75,0c-0.48,0.48-0.48,1.27,0,1.75c0.48,0.48,1.27,0.48,1.75,0
			C1685.06,965.77,1685.06,964.98,1684.58,964.5 M1684.58,964.5c-0.48-0.48-1.27-0.48-1.75,0c-0.48,0.48-0.48,1.27,0,1.75
			c0.48,0.48,1.27,0.48,1.75,0C1685.06,965.77,1685.06,964.98,1684.58,964.5 M1672.88,976.19c-0.48-0.48-1.27-0.48-1.75,0
			s-0.48,1.27,0,1.75s1.27,0.48,1.75,0S1673.37,976.67,1672.88,976.19 M1672.88,976.19c-0.48-0.48-1.27-0.48-1.75,0
			s-0.48,1.27,0,1.75s1.27,0.48,1.75,0S1673.37,976.67,1672.88,976.19 M1661.19,987.88c-0.48-0.48-1.27-0.48-1.75,0
			c-0.48,0.48-0.48,1.27,0,1.75c0.48,0.48,1.27,0.48,1.75,0C1661.68,989.15,1661.68,988.36,1661.19,987.88 M1661.19,987.88
			c-0.48-0.48-1.27-0.48-1.75,0c-0.48,0.48-0.48,1.27,0,1.75c0.48,0.48,1.27,0.48,1.75,0
			C1661.68,989.15,1661.68,988.36,1661.19,987.88 M1649.5,999.57c-0.48-0.49-1.27-0.49-1.75,0c-0.49,0.48-0.49,1.27,0,1.75
			c0.48,0.48,1.27,0.48,1.75,0C1649.99,1000.84,1649.99,1000.06,1649.5,999.57 M1649.5,999.57c-0.48-0.49-1.27-0.49-1.75,0
			c-0.49,0.48-0.49,1.27,0,1.75c0.48,0.48,1.27,0.48,1.75,0C1649.99,1000.84,1649.99,1000.06,1649.5,999.57 M1637.81,1011.26
			c-0.49-0.48-1.27-0.48-1.75,0c-0.48,0.48-0.48,1.27,0,1.75s1.27,0.48,1.75,0C1638.29,1012.53,1638.29,1011.75,1637.81,1011.26
			 M1637.81,1011.26c-0.49-0.48-1.27-0.48-1.75,0c-0.48,0.48-0.48,1.27,0,1.75s1.27,0.48,1.75,0
			C1638.29,1012.53,1638.29,1011.75,1637.81,1011.26 M1626.12,1022.95c-0.48-0.48-1.27-0.48-1.75,0c-0.48,0.48-0.48,1.27,0,1.75
			s1.27,0.48,1.75,0S1626.6,1023.44,1626.12,1022.95 M1626.12,1022.95c-0.48-0.48-1.27-0.48-1.75,0c-0.48,0.48-0.48,1.27,0,1.75
			s1.27,0.48,1.75,0S1626.6,1023.44,1626.12,1022.95 M1836.57,835.89c-0.48-0.48-1.27-0.48-1.75,0s-0.48,1.27,0,1.75
			c0.48,0.48,1.27,0.48,1.75,0C1837.05,837.16,1837.05,836.37,1836.57,835.89 M1836.57,835.89c-0.48-0.48-1.27-0.48-1.75,0
			s-0.48,1.27,0,1.75c0.48,0.48,1.27,0.48,1.75,0C1837.05,837.16,1837.05,836.37,1836.57,835.89 M1824.88,847.58
			c-0.48-0.48-1.27-0.48-1.75,0c-0.48,0.48-0.48,1.27,0,1.75c0.48,0.48,1.27,0.48,1.75,0
			C1825.36,848.85,1825.36,848.06,1824.88,847.58 M1824.88,847.58c-0.48-0.48-1.27-0.48-1.75,0c-0.48,0.48-0.48,1.27,0,1.75
			c0.48,0.48,1.27,0.48,1.75,0C1825.36,848.85,1825.36,848.06,1824.88,847.58 M1813.19,859.27c-0.48-0.48-1.27-0.48-1.75,0
			c-0.48,0.48-0.48,1.27,0,1.75c0.48,0.49,1.27,0.49,1.75,0C1813.67,860.54,1813.67,859.76,1813.19,859.27 M1813.19,859.27
			c-0.48-0.48-1.27-0.48-1.75,0c-0.48,0.48-0.48,1.27,0,1.75c0.48,0.49,1.27,0.49,1.75,0
			C1813.67,860.54,1813.67,859.76,1813.19,859.27 M1801.49,870.96c-0.48-0.48-1.27-0.48-1.75,0c-0.48,0.48-0.48,1.27,0,1.75
			c0.48,0.48,1.27,0.48,1.75,0C1801.98,872.23,1801.98,871.45,1801.49,870.96 M1801.49,870.96c-0.48-0.48-1.27-0.48-1.75,0
			c-0.48,0.48-0.48,1.27,0,1.75c0.48,0.48,1.27,0.48,1.75,0C1801.98,872.23,1801.98,871.45,1801.49,870.96 M1789.8,882.65
			c-0.48-0.48-1.27-0.48-1.75,0s-0.48,1.27,0,1.75s1.27,0.48,1.75,0C1790.29,883.92,1790.29,883.14,1789.8,882.65 M1789.8,882.65
			c-0.48-0.48-1.27-0.48-1.75,0s-0.48,1.27,0,1.75s1.27,0.48,1.75,0C1790.29,883.92,1790.29,883.14,1789.8,882.65 M1778.11,894.35
			c-0.48-0.48-1.27-0.48-1.75,0c-0.48,0.48-0.48,1.27,0,1.75c0.48,0.48,1.27,0.48,1.75,0
			C1778.59,895.61,1778.59,894.83,1778.11,894.35 M1778.11,894.35c-0.48-0.48-1.27-0.48-1.75,0c-0.48,0.48-0.48,1.27,0,1.75
			c0.48,0.48,1.27,0.48,1.75,0C1778.59,895.61,1778.59,894.83,1778.11,894.35 M1766.42,906.04c-0.48-0.48-1.27-0.48-1.75,0
			c-0.48,0.48-0.48,1.27,0,1.75c0.48,0.48,1.27,0.48,1.75,0C1766.9,907.31,1766.9,906.52,1766.42,906.04 M1766.42,906.04
			c-0.48-0.48-1.27-0.48-1.75,0c-0.48,0.48-0.48,1.27,0,1.75c0.48,0.48,1.27,0.48,1.75,0
			C1766.9,907.31,1766.9,906.52,1766.42,906.04 M1754.73,917.73c-0.48-0.48-1.27-0.48-1.75,0c-0.48,0.48-0.48,1.27,0,1.75
			c0.48,0.48,1.27,0.48,1.75,0C1755.21,919,1755.21,918.21,1754.73,917.73 M1754.73,917.73c-0.48-0.48-1.27-0.48-1.75,0
			c-0.48,0.48-0.48,1.27,0,1.75c0.48,0.48,1.27,0.48,1.75,0C1755.21,919,1755.21,918.21,1754.73,917.73 M1743.04,929.42
			c-0.48-0.48-1.27-0.48-1.75,0c-0.48,0.48-0.48,1.27,0,1.75c0.48,0.48,1.27,0.48,1.75,0
			C1743.52,930.69,1743.52,929.91,1743.04,929.42 M1743.04,929.42c-0.48-0.48-1.27-0.48-1.75,0c-0.48,0.48-0.48,1.27,0,1.75
			c0.48,0.48,1.27,0.48,1.75,0C1743.52,930.69,1743.52,929.91,1743.04,929.42 M1731.34,941.11c-0.48-0.48-1.27-0.48-1.75,0
			c-0.48,0.48-0.48,1.27,0,1.75c0.48,0.48,1.27,0.48,1.75,0C1731.83,942.38,1731.83,941.6,1731.34,941.11 M1731.34,941.11
			c-0.48-0.48-1.27-0.48-1.75,0c-0.48,0.48-0.48,1.27,0,1.75c0.48,0.48,1.27,0.48,1.75,0
			C1731.83,942.38,1731.83,941.6,1731.34,941.11 M1719.65,952.8c-0.48-0.48-1.27-0.48-1.75,0c-0.48,0.48-0.48,1.27,0,1.75
			c0.48,0.48,1.27,0.48,1.75,0C1720.14,954.07,1720.14,953.29,1719.65,952.8 M1719.65,952.8c-0.48-0.48-1.27-0.48-1.75,0
			c-0.48,0.48-0.48,1.27,0,1.75c0.48,0.48,1.27,0.48,1.75,0C1720.14,954.07,1720.14,953.29,1719.65,952.8 M1707.96,964.5
			c-0.48-0.48-1.27-0.48-1.75,0c-0.48,0.48-0.48,1.27,0,1.75c0.48,0.48,1.27,0.48,1.75,0
			C1708.44,965.77,1708.44,964.98,1707.96,964.5 M1707.96,964.5c-0.48-0.48-1.27-0.48-1.75,0c-0.48,0.48-0.48,1.27,0,1.75
			c0.48,0.48,1.27,0.48,1.75,0C1708.44,965.77,1708.44,964.98,1707.96,964.5 M1696.27,976.19c-0.48-0.48-1.27-0.48-1.75,0
			s-0.48,1.27,0,1.75s1.27,0.48,1.75,0C1696.75,977.46,1696.75,976.67,1696.27,976.19 M1696.27,976.19c-0.48-0.48-1.27-0.48-1.75,0
			s-0.48,1.27,0,1.75s1.27,0.48,1.75,0C1696.75,977.46,1696.75,976.67,1696.27,976.19 M1684.58,987.88c-0.48-0.48-1.27-0.48-1.75,0
			s-0.48,1.27,0,1.75c0.48,0.48,1.27,0.48,1.75,0C1685.06,989.15,1685.06,988.36,1684.58,987.88 M1684.58,987.88
			c-0.48-0.48-1.27-0.48-1.75,0s-0.48,1.27,0,1.75c0.48,0.48,1.27,0.48,1.75,0C1685.06,989.15,1685.06,988.36,1684.58,987.88
			 M1672.88,999.57c-0.48-0.49-1.27-0.49-1.75,0c-0.48,0.48-0.48,1.27,0,1.75c0.48,0.48,1.27,0.48,1.75,0
			C1673.37,1000.84,1673.37,1000.06,1672.88,999.57 M1672.88,999.57c-0.48-0.49-1.27-0.49-1.75,0c-0.48,0.48-0.48,1.27,0,1.75
			c0.48,0.48,1.27,0.48,1.75,0C1673.37,1000.84,1673.37,1000.06,1672.88,999.57 M1661.19,1011.26c-0.48-0.48-1.27-0.48-1.75,0
			c-0.48,0.48-0.48,1.27,0,1.75c0.48,0.48,1.27,0.48,1.75,0S1661.68,1011.75,1661.19,1011.26 M1661.19,1011.26
			c-0.48-0.48-1.27-0.48-1.75,0c-0.48,0.48-0.48,1.27,0,1.75c0.48,0.48,1.27,0.48,1.75,0S1661.68,1011.75,1661.19,1011.26
			 M1649.5,1022.95c-0.48-0.48-1.27-0.48-1.75,0c-0.49,0.48-0.49,1.27,0,1.75c0.48,0.48,1.27,0.48,1.75,0
			C1649.99,1024.22,1649.99,1023.44,1649.5,1022.95 M1649.5,1022.95c-0.48-0.48-1.27-0.48-1.75,0c-0.49,0.48-0.49,1.27,0,1.75
			c0.48,0.48,1.27,0.48,1.75,0C1649.99,1024.22,1649.99,1023.44,1649.5,1022.95 M1637.81,1034.65c-0.49-0.48-1.27-0.48-1.75,0
			s-0.48,1.27,0,1.75c0.48,0.48,1.27,0.48,1.75,0C1638.29,1035.92,1638.29,1035.13,1637.81,1034.65 M1637.81,1034.65
			c-0.49-0.48-1.27-0.48-1.75,0s-0.48,1.27,0,1.75c0.48,0.48,1.27,0.48,1.75,0C1638.29,1035.92,1638.29,1035.13,1637.81,1034.65
			 M1848.26,847.58c-0.48-0.48-1.27-0.48-1.75,0c-0.48,0.48-0.48,1.27,0,1.75c0.48,0.48,1.27,0.48,1.75,0
			C1848.75,848.85,1848.75,848.06,1848.26,847.58 M1848.26,847.58c-0.48-0.48-1.27-0.48-1.75,0c-0.48,0.48-0.48,1.27,0,1.75
			c0.48,0.48,1.27,0.48,1.75,0C1848.75,848.85,1848.75,848.06,1848.26,847.58 M1836.57,859.27c-0.48-0.48-1.27-0.48-1.75,0
			c-0.48,0.48-0.48,1.27,0,1.75c0.48,0.49,1.27,0.49,1.75,0C1837.05,860.54,1837.05,859.76,1836.57,859.27 M1836.57,859.27
			c-0.48-0.48-1.27-0.48-1.75,0c-0.48,0.48-0.48,1.27,0,1.75c0.48,0.49,1.27,0.49,1.75,0
			C1837.05,860.54,1837.05,859.76,1836.57,859.27 M1824.88,870.96c-0.48-0.48-1.27-0.48-1.75,0c-0.48,0.48-0.48,1.27,0,1.75
			c0.48,0.48,1.27,0.48,1.75,0C1825.36,872.23,1825.36,871.45,1824.88,870.96 M1824.88,870.96c-0.48-0.48-1.27-0.48-1.75,0
			c-0.48,0.48-0.48,1.27,0,1.75c0.48,0.48,1.27,0.48,1.75,0C1825.36,872.23,1825.36,871.45,1824.88,870.96 M1813.19,882.65
			c-0.48-0.48-1.27-0.48-1.75,0c-0.48,0.48-0.48,1.27,0,1.75c0.48,0.48,1.27,0.48,1.75,0S1813.67,883.14,1813.19,882.65
			 M1813.19,882.65c-0.48-0.48-1.27-0.48-1.75,0c-0.48,0.48-0.48,1.27,0,1.75c0.48,0.48,1.27,0.48,1.75,0
			S1813.67,883.14,1813.19,882.65 M1801.49,894.35c-0.48-0.48-1.27-0.48-1.75,0c-0.48,0.48-0.48,1.27,0,1.75
			c0.48,0.48,1.27,0.48,1.75,0C1801.98,895.61,1801.98,894.83,1801.49,894.35 M1801.49,894.35c-0.48-0.48-1.27-0.48-1.75,0
			c-0.48,0.48-0.48,1.27,0,1.75c0.48,0.48,1.27,0.48,1.75,0C1801.98,895.61,1801.98,894.83,1801.49,894.35 M1789.8,906.04
			c-0.48-0.48-1.27-0.48-1.75,0c-0.48,0.48-0.48,1.27,0,1.75c0.48,0.48,1.27,0.48,1.75,0
			C1790.29,907.31,1790.29,906.52,1789.8,906.04 M1789.8,906.04c-0.48-0.48-1.27-0.48-1.75,0c-0.48,0.48-0.48,1.27,0,1.75
			c0.48,0.48,1.27,0.48,1.75,0C1790.29,907.31,1790.29,906.52,1789.8,906.04 M1778.11,917.73c-0.48-0.48-1.27-0.48-1.75,0
			c-0.48,0.48-0.48,1.27,0,1.75c0.48,0.48,1.27,0.48,1.75,0C1778.59,919,1778.59,918.21,1778.11,917.73 M1778.11,917.73
			c-0.48-0.48-1.27-0.48-1.75,0c-0.48,0.48-0.48,1.27,0,1.75c0.48,0.48,1.27,0.48,1.75,0C1778.59,919,1778.59,918.21,1778.11,917.73
			 M1766.42,929.42c-0.48-0.48-1.27-0.48-1.75,0s-0.48,1.27,0,1.75s1.27,0.48,1.75,0S1766.9,929.91,1766.42,929.42 M1766.42,929.42
			c-0.48-0.48-1.27-0.48-1.75,0s-0.48,1.27,0,1.75s1.27,0.48,1.75,0S1766.9,929.91,1766.42,929.42 M1754.73,941.11
			c-0.48-0.48-1.27-0.48-1.75,0c-0.48,0.48-0.48,1.27,0,1.75c0.48,0.48,1.27,0.48,1.75,0
			C1755.21,942.38,1755.21,941.6,1754.73,941.11 M1754.73,941.11c-0.48-0.48-1.27-0.48-1.75,0c-0.48,0.48-0.48,1.27,0,1.75
			c0.48,0.48,1.27,0.48,1.75,0C1755.21,942.38,1755.21,941.6,1754.73,941.11 M1743.04,952.8c-0.48-0.48-1.27-0.48-1.75,0
			c-0.48,0.48-0.48,1.27,0,1.75c0.48,0.48,1.27,0.48,1.75,0C1743.52,954.07,1743.52,953.29,1743.04,952.8 M1743.04,952.8
			c-0.48-0.48-1.27-0.48-1.75,0c-0.48,0.48-0.48,1.27,0,1.75c0.48,0.48,1.27,0.48,1.75,0
			C1743.52,954.07,1743.52,953.29,1743.04,952.8 M1731.34,964.5c-0.48-0.48-1.27-0.48-1.75,0c-0.48,0.48-0.48,1.27,0,1.75
			c0.48,0.48,1.27,0.48,1.75,0C1731.83,965.77,1731.83,964.98,1731.34,964.5 M1731.34,964.5c-0.48-0.48-1.27-0.48-1.75,0
			c-0.48,0.48-0.48,1.27,0,1.75c0.48,0.48,1.27,0.48,1.75,0C1731.83,965.77,1731.83,964.98,1731.34,964.5 M1719.65,976.19
			c-0.48-0.48-1.27-0.48-1.75,0c-0.48,0.48-0.48,1.27,0,1.75c0.48,0.48,1.27,0.48,1.75,0S1720.14,976.67,1719.65,976.19
			 M1719.65,976.19c-0.48-0.48-1.27-0.48-1.75,0c-0.48,0.48-0.48,1.27,0,1.75c0.48,0.48,1.27,0.48,1.75,0
			S1720.14,976.67,1719.65,976.19 M1707.96,987.88c-0.48-0.48-1.27-0.48-1.75,0c-0.48,0.48-0.48,1.27,0,1.75
			c0.48,0.48,1.27,0.48,1.75,0C1708.44,989.15,1708.44,988.36,1707.96,987.88 M1707.96,987.88c-0.48-0.48-1.27-0.48-1.75,0
			c-0.48,0.48-0.48,1.27,0,1.75c0.48,0.48,1.27,0.48,1.75,0C1708.44,989.15,1708.44,988.36,1707.96,987.88 M1696.27,999.57
			c-0.48-0.49-1.27-0.49-1.75,0c-0.48,0.48-0.48,1.27,0,1.75c0.48,0.48,1.27,0.48,1.75,0
			C1696.75,1000.84,1696.75,1000.06,1696.27,999.57 M1696.27,999.57c-0.48-0.49-1.27-0.49-1.75,0c-0.48,0.48-0.48,1.27,0,1.75
			c0.48,0.48,1.27,0.48,1.75,0C1696.75,1000.84,1696.75,1000.06,1696.27,999.57 M1684.58,1011.26c-0.48-0.48-1.27-0.48-1.75,0
			c-0.48,0.48-0.48,1.27,0,1.75s1.27,0.48,1.75,0C1685.06,1012.53,1685.06,1011.75,1684.58,1011.26 M1684.58,1011.26
			c-0.48-0.48-1.27-0.48-1.75,0c-0.48,0.48-0.48,1.27,0,1.75s1.27,0.48,1.75,0C1685.06,1012.53,1685.06,1011.75,1684.58,1011.26
			 M1672.88,1022.95c-0.48-0.48-1.27-0.48-1.75,0c-0.48,0.48-0.48,1.27,0,1.75s1.27,0.48,1.75,0S1673.37,1023.44,1672.88,1022.95
			 M1672.88,1022.95c-0.48-0.48-1.27-0.48-1.75,0c-0.48,0.48-0.48,1.27,0,1.75s1.27,0.48,1.75,0S1673.37,1023.44,1672.88,1022.95
			 M1661.19,1034.65c-0.48-0.48-1.27-0.48-1.75,0c-0.48,0.48-0.48,1.27,0,1.75c0.48,0.48,1.27,0.48,1.75,0
			C1661.68,1035.92,1661.68,1035.13,1661.19,1034.65 M1661.19,1034.65c-0.48-0.48-1.27-0.48-1.75,0c-0.48,0.48-0.48,1.27,0,1.75
			c0.48,0.48,1.27,0.48,1.75,0C1661.68,1035.92,1661.68,1035.13,1661.19,1034.65 M1649.5,1046.34c-0.48-0.48-1.27-0.48-1.75,0
			c-0.49,0.48-0.49,1.27,0,1.75c0.48,0.48,1.27,0.48,1.75,0C1649.99,1047.61,1649.99,1046.82,1649.5,1046.34 M1649.5,1046.34
			c-0.48-0.48-1.27-0.48-1.75,0c-0.49,0.48-0.49,1.27,0,1.75c0.48,0.48,1.27,0.48,1.75,0
			C1649.99,1047.61,1649.99,1046.82,1649.5,1046.34 M1859.95,859.27c-0.48-0.48-1.27-0.48-1.75,0c-0.48,0.48-0.48,1.27,0,1.75
			c0.48,0.49,1.27,0.49,1.75,0C1860.44,860.54,1860.44,859.76,1859.95,859.27 M1859.95,859.27c-0.48-0.48-1.27-0.48-1.75,0
			c-0.48,0.48-0.48,1.27,0,1.75c0.48,0.49,1.27,0.49,1.75,0C1860.44,860.54,1860.44,859.76,1859.95,859.27 M1848.26,870.96
			c-0.48-0.48-1.27-0.48-1.75,0c-0.48,0.48-0.48,1.27,0,1.75c0.48,0.48,1.27,0.48,1.75,0
			C1848.75,872.23,1848.75,871.45,1848.26,870.96 M1848.26,870.96c-0.48-0.48-1.27-0.48-1.75,0c-0.48,0.48-0.48,1.27,0,1.75
			c0.48,0.48,1.27,0.48,1.75,0C1848.75,872.23,1848.75,871.45,1848.26,870.96 M1836.57,882.65c-0.48-0.48-1.27-0.48-1.75,0
			s-0.48,1.27,0,1.75s1.27,0.48,1.75,0C1837.05,883.92,1837.05,883.14,1836.57,882.65 M1836.57,882.65c-0.48-0.48-1.27-0.48-1.75,0
			s-0.48,1.27,0,1.75s1.27,0.48,1.75,0C1837.05,883.92,1837.05,883.14,1836.57,882.65 M1824.88,894.35c-0.48-0.48-1.27-0.48-1.75,0
			c-0.48,0.48-0.48,1.27,0,1.75c0.48,0.48,1.27,0.48,1.75,0C1825.36,895.61,1825.36,894.83,1824.88,894.35 M1824.88,894.35
			c-0.48-0.48-1.27-0.48-1.75,0c-0.48,0.48-0.48,1.27,0,1.75c0.48,0.48,1.27,0.48,1.75,0
			C1825.36,895.61,1825.36,894.83,1824.88,894.35 M1813.19,906.04c-0.48-0.48-1.27-0.48-1.75,0c-0.48,0.48-0.48,1.27,0,1.75
			c0.48,0.48,1.27,0.48,1.75,0C1813.67,907.31,1813.67,906.52,1813.19,906.04 M1813.19,906.04c-0.48-0.48-1.27-0.48-1.75,0
			c-0.48,0.48-0.48,1.27,0,1.75c0.48,0.48,1.27,0.48,1.75,0C1813.67,907.31,1813.67,906.52,1813.19,906.04 M1801.49,917.73
			c-0.48-0.48-1.27-0.48-1.75,0c-0.48,0.48-0.48,1.27,0,1.75c0.48,0.48,1.27,0.48,1.75,0C1801.98,919,1801.98,918.21,1801.49,917.73
			 M1801.49,917.73c-0.48-0.48-1.27-0.48-1.75,0c-0.48,0.48-0.48,1.27,0,1.75c0.48,0.48,1.27,0.48,1.75,0
			C1801.98,919,1801.98,918.21,1801.49,917.73 M1789.8,929.42c-0.48-0.48-1.27-0.48-1.75,0s-0.48,1.27,0,1.75s1.27,0.48,1.75,0
			C1790.29,930.69,1790.29,929.91,1789.8,929.42 M1789.8,929.42c-0.48-0.48-1.27-0.48-1.75,0s-0.48,1.27,0,1.75s1.27,0.48,1.75,0
			C1790.29,930.69,1790.29,929.91,1789.8,929.42 M1778.11,941.11c-0.48-0.48-1.27-0.48-1.75,0c-0.48,0.48-0.48,1.27,0,1.75
			c0.48,0.48,1.27,0.48,1.75,0C1778.59,942.38,1778.59,941.6,1778.11,941.11 M1778.11,941.11c-0.48-0.48-1.27-0.48-1.75,0
			c-0.48,0.48-0.48,1.27,0,1.75c0.48,0.48,1.27,0.48,1.75,0C1778.59,942.38,1778.59,941.6,1778.11,941.11 M1766.42,952.8
			c-0.48-0.48-1.27-0.48-1.75,0c-0.48,0.48-0.48,1.27,0,1.75c0.48,0.48,1.27,0.48,1.75,0C1766.9,954.07,1766.9,953.29,1766.42,952.8
			 M1766.42,952.8c-0.48-0.48-1.27-0.48-1.75,0c-0.48,0.48-0.48,1.27,0,1.75c0.48,0.48,1.27,0.48,1.75,0
			C1766.9,954.07,1766.9,953.29,1766.42,952.8 M1754.73,964.5c-0.48-0.48-1.27-0.48-1.75,0c-0.48,0.48-0.48,1.27,0,1.75
			c0.48,0.48,1.27,0.48,1.75,0C1755.21,965.77,1755.21,964.98,1754.73,964.5 M1754.73,964.5c-0.48-0.48-1.27-0.48-1.75,0
			c-0.48,0.48-0.48,1.27,0,1.75c0.48,0.48,1.27,0.48,1.75,0C1755.21,965.77,1755.21,964.98,1754.73,964.5 M1743.04,976.19
			c-0.48-0.48-1.27-0.48-1.75,0c-0.48,0.48-0.48,1.27,0,1.75c0.48,0.48,1.27,0.48,1.75,0
			C1743.52,977.46,1743.52,976.67,1743.04,976.19 M1743.04,976.19c-0.48-0.48-1.27-0.48-1.75,0c-0.48,0.48-0.48,1.27,0,1.75
			c0.48,0.48,1.27,0.48,1.75,0C1743.52,977.46,1743.52,976.67,1743.04,976.19 M1731.34,987.88c-0.48-0.48-1.27-0.48-1.75,0
			s-0.48,1.27,0,1.75c0.48,0.48,1.27,0.48,1.75,0C1731.83,989.15,1731.83,988.36,1731.34,987.88 M1731.34,987.88
			c-0.48-0.48-1.27-0.48-1.75,0s-0.48,1.27,0,1.75c0.48,0.48,1.27,0.48,1.75,0C1731.83,989.15,1731.83,988.36,1731.34,987.88
			 M1719.65,999.57c-0.48-0.49-1.27-0.49-1.75,0c-0.48,0.48-0.48,1.27,0,1.75c0.48,0.48,1.27,0.48,1.75,0
			C1720.14,1000.84,1720.14,1000.06,1719.65,999.57 M1719.65,999.57c-0.48-0.49-1.27-0.49-1.75,0c-0.48,0.48-0.48,1.27,0,1.75
			c0.48,0.48,1.27,0.48,1.75,0C1720.14,1000.84,1720.14,1000.06,1719.65,999.57 M1707.96,1011.26c-0.48-0.48-1.27-0.48-1.75,0
			c-0.48,0.48-0.48,1.27,0,1.75c0.48,0.48,1.27,0.48,1.75,0C1708.44,1012.53,1708.44,1011.75,1707.96,1011.26 M1707.96,1011.26
			c-0.48-0.48-1.27-0.48-1.75,0c-0.48,0.48-0.48,1.27,0,1.75c0.48,0.48,1.27,0.48,1.75,0
			C1708.44,1012.53,1708.44,1011.75,1707.96,1011.26 M1696.27,1022.95c-0.48-0.48-1.27-0.48-1.75,0c-0.48,0.48-0.48,1.27,0,1.75
			s1.27,0.48,1.75,0C1696.75,1024.22,1696.75,1023.44,1696.27,1022.95 M1696.27,1022.95c-0.48-0.48-1.27-0.48-1.75,0
			c-0.48,0.48-0.48,1.27,0,1.75s1.27,0.48,1.75,0C1696.75,1024.22,1696.75,1023.44,1696.27,1022.95 M1684.58,1034.65
			c-0.48-0.48-1.27-0.48-1.75,0s-0.48,1.27,0,1.75c0.48,0.48,1.27,0.48,1.75,0C1685.06,1035.92,1685.06,1035.13,1684.58,1034.65
			 M1684.58,1034.65c-0.48-0.48-1.27-0.48-1.75,0s-0.48,1.27,0,1.75c0.48,0.48,1.27,0.48,1.75,0
			C1685.06,1035.92,1685.06,1035.13,1684.58,1034.65 M1672.88,1046.34c-0.48-0.48-1.27-0.48-1.75,0c-0.48,0.48-0.48,1.27,0,1.75
			c0.48,0.48,1.27,0.48,1.75,0C1673.37,1047.61,1673.37,1046.82,1672.88,1046.34 M1672.88,1046.34c-0.48-0.48-1.27-0.48-1.75,0
			c-0.48,0.48-0.48,1.27,0,1.75c0.48,0.48,1.27,0.48,1.75,0C1673.37,1047.61,1673.37,1046.82,1672.88,1046.34 M1661.19,1058.03
			c-0.48-0.48-1.27-0.48-1.75,0c-0.48,0.48-0.48,1.27,0,1.75c0.48,0.49,1.27,0.49,1.75,0
			C1661.68,1059.3,1661.68,1058.52,1661.19,1058.03 M1661.19,1058.03c-0.48-0.48-1.27-0.48-1.75,0c-0.48,0.48-0.48,1.27,0,1.75
			c0.48,0.49,1.27,0.49,1.75,0C1661.68,1059.3,1661.68,1058.52,1661.19,1058.03 M1871.64,870.96c-0.48-0.48-1.27-0.48-1.75,0
			c-0.48,0.48-0.48,1.27,0,1.75c0.48,0.48,1.27,0.48,1.75,0C1872.13,872.23,1872.13,871.45,1871.64,870.96 M1871.64,870.96
			c-0.48-0.48-1.27-0.48-1.75,0c-0.48,0.48-0.48,1.27,0,1.75c0.48,0.48,1.27,0.48,1.75,0
			C1872.13,872.23,1872.13,871.45,1871.64,870.96 M1859.95,882.65c-0.48-0.48-1.27-0.48-1.75,0c-0.48,0.48-0.48,1.27,0,1.75
			c0.48,0.48,1.27,0.48,1.75,0C1860.44,883.92,1860.44,883.14,1859.95,882.65 M1859.95,882.65c-0.48-0.48-1.27-0.48-1.75,0
			c-0.48,0.48-0.48,1.27,0,1.75c0.48,0.48,1.27,0.48,1.75,0C1860.44,883.92,1860.44,883.14,1859.95,882.65 M1848.26,894.35
			c-0.48-0.48-1.27-0.48-1.75,0c-0.48,0.48-0.48,1.27,0,1.75c0.48,0.48,1.27,0.48,1.75,0
			C1848.75,895.61,1848.75,894.83,1848.26,894.35 M1848.26,894.35c-0.48-0.48-1.27-0.48-1.75,0c-0.48,0.48-0.48,1.27,0,1.75
			c0.48,0.48,1.27,0.48,1.75,0C1848.75,895.61,1848.75,894.83,1848.26,894.35 M1836.57,906.04c-0.48-0.48-1.27-0.48-1.75,0
			c-0.48,0.48-0.48,1.27,0,1.75c0.48,0.48,1.27,0.48,1.75,0C1837.05,907.31,1837.05,906.52,1836.57,906.04 M1836.57,906.04
			c-0.48-0.48-1.27-0.48-1.75,0c-0.48,0.48-0.48,1.27,0,1.75c0.48,0.48,1.27,0.48,1.75,0
			C1837.05,907.31,1837.05,906.52,1836.57,906.04 M1824.88,917.73c-0.48-0.48-1.27-0.48-1.75,0c-0.48,0.48-0.48,1.27,0,1.75
			c0.48,0.48,1.27,0.48,1.75,0C1825.36,919,1825.36,918.21,1824.88,917.73 M1824.88,917.73c-0.48-0.48-1.27-0.48-1.75,0
			c-0.48,0.48-0.48,1.27,0,1.75c0.48,0.48,1.27,0.48,1.75,0C1825.36,919,1825.36,918.21,1824.88,917.73 M1813.19,929.42
			c-0.48-0.48-1.27-0.48-1.75,0c-0.48,0.48-0.48,1.27,0,1.75c0.48,0.48,1.27,0.48,1.75,0S1813.67,929.91,1813.19,929.42
			 M1813.19,929.42c-0.48-0.48-1.27-0.48-1.75,0c-0.48,0.48-0.48,1.27,0,1.75c0.48,0.48,1.27,0.48,1.75,0
			S1813.67,929.91,1813.19,929.42 M1801.49,941.11c-0.48-0.48-1.27-0.48-1.75,0c-0.48,0.48-0.48,1.27,0,1.75
			c0.48,0.48,1.27,0.48,1.75,0C1801.98,942.38,1801.98,941.6,1801.49,941.11 M1801.49,941.11c-0.48-0.48-1.27-0.48-1.75,0
			c-0.48,0.48-0.48,1.27,0,1.75c0.48,0.48,1.27,0.48,1.75,0C1801.98,942.38,1801.98,941.6,1801.49,941.11 M1789.8,952.8
			c-0.48-0.48-1.27-0.48-1.75,0c-0.48,0.48-0.48,1.27,0,1.75c0.48,0.48,1.27,0.48,1.75,0
			C1790.29,954.07,1790.29,953.29,1789.8,952.8 M1789.8,952.8c-0.48-0.48-1.27-0.48-1.75,0c-0.48,0.48-0.48,1.27,0,1.75
			c0.48,0.48,1.27,0.48,1.75,0C1790.29,954.07,1790.29,953.29,1789.8,952.8 M1778.11,964.5c-0.48-0.48-1.27-0.48-1.75,0
			c-0.48,0.48-0.48,1.27,0,1.75c0.48,0.48,1.27,0.48,1.75,0C1778.59,965.77,1778.59,964.98,1778.11,964.5 M1778.11,964.5
			c-0.48-0.48-1.27-0.48-1.75,0c-0.48,0.48-0.48,1.27,0,1.75c0.48,0.48,1.27,0.48,1.75,0
			C1778.59,965.77,1778.59,964.98,1778.11,964.5 M1766.42,976.19c-0.48-0.48-1.27-0.48-1.75,0s-0.48,1.27,0,1.75s1.27,0.48,1.75,0
			S1766.9,976.67,1766.42,976.19 M1766.42,976.19c-0.48-0.48-1.27-0.48-1.75,0s-0.48,1.27,0,1.75s1.27,0.48,1.75,0
			S1766.9,976.67,1766.42,976.19 M1754.73,987.88c-0.48-0.48-1.27-0.48-1.75,0c-0.48,0.48-0.48,1.27,0,1.75
			c0.48,0.48,1.27,0.48,1.75,0C1755.21,989.15,1755.21,988.36,1754.73,987.88 M1754.73,987.88c-0.48-0.48-1.27-0.48-1.75,0
			c-0.48,0.48-0.48,1.27,0,1.75c0.48,0.48,1.27,0.48,1.75,0C1755.21,989.15,1755.21,988.36,1754.73,987.88 M1743.04,999.57
			c-0.48-0.49-1.27-0.49-1.75,0c-0.48,0.48-0.48,1.27,0,1.75c0.48,0.48,1.27,0.48,1.75,0
			C1743.52,1000.84,1743.52,1000.06,1743.04,999.57 M1743.04,999.57c-0.48-0.49-1.27-0.49-1.75,0c-0.48,0.48-0.48,1.27,0,1.75
			c0.48,0.48,1.27,0.48,1.75,0C1743.52,1000.84,1743.52,1000.06,1743.04,999.57 M1731.34,1011.26c-0.48-0.48-1.27-0.48-1.75,0
			c-0.48,0.48-0.48,1.27,0,1.75s1.27,0.48,1.75,0C1731.83,1012.53,1731.83,1011.75,1731.34,1011.26 M1731.34,1011.26
			c-0.48-0.48-1.27-0.48-1.75,0c-0.48,0.48-0.48,1.27,0,1.75s1.27,0.48,1.75,0C1731.83,1012.53,1731.83,1011.75,1731.34,1011.26
			 M1719.65,1022.95c-0.48-0.48-1.27-0.48-1.75,0c-0.48,0.48-0.48,1.27,0,1.75c0.48,0.48,1.27,0.48,1.75,0
			S1720.14,1023.44,1719.65,1022.95 M1719.65,1022.95c-0.48-0.48-1.27-0.48-1.75,0c-0.48,0.48-0.48,1.27,0,1.75
			c0.48,0.48,1.27,0.48,1.75,0S1720.14,1023.44,1719.65,1022.95 M1707.96,1034.65c-0.48-0.48-1.27-0.48-1.75,0
			c-0.48,0.48-0.48,1.27,0,1.75c0.48,0.48,1.27,0.48,1.75,0C1708.44,1035.92,1708.44,1035.13,1707.96,1034.65 M1707.96,1034.65
			c-0.48-0.48-1.27-0.48-1.75,0c-0.48,0.48-0.48,1.27,0,1.75c0.48,0.48,1.27,0.48,1.75,0
			C1708.44,1035.92,1708.44,1035.13,1707.96,1034.65 M1696.27,1046.34c-0.48-0.48-1.27-0.48-1.75,0c-0.48,0.48-0.48,1.27,0,1.75
			c0.48,0.48,1.27,0.48,1.75,0C1696.75,1047.61,1696.75,1046.82,1696.27,1046.34 M1696.27,1046.34c-0.48-0.48-1.27-0.48-1.75,0
			c-0.48,0.48-0.48,1.27,0,1.75c0.48,0.48,1.27,0.48,1.75,0C1696.75,1047.61,1696.75,1046.82,1696.27,1046.34 M1684.58,1058.03
			c-0.48-0.48-1.27-0.48-1.75,0c-0.48,0.48-0.48,1.27,0,1.75c0.48,0.49,1.27,0.49,1.75,0
			C1685.06,1059.3,1685.06,1058.52,1684.58,1058.03 M1684.58,1058.03c-0.48-0.48-1.27-0.48-1.75,0c-0.48,0.48-0.48,1.27,0,1.75
			c0.48,0.49,1.27,0.49,1.75,0C1685.06,1059.3,1685.06,1058.52,1684.58,1058.03 M1672.88,1069.72c-0.48-0.48-1.27-0.48-1.75,0
			c-0.48,0.48-0.48,1.27,0,1.75s1.27,0.48,1.75,0S1673.37,1070.21,1672.88,1069.72 M1672.88,1069.72c-0.48-0.48-1.27-0.48-1.75,0
			c-0.48,0.48-0.48,1.27,0,1.75s1.27,0.48,1.75,0S1673.37,1070.21,1672.88,1069.72 M1883.34,882.65c-0.48-0.48-1.27-0.48-1.75,0
			c-0.48,0.48-0.48,1.27,0,1.75c0.48,0.48,1.27,0.48,1.75,0C1883.82,883.92,1883.82,883.14,1883.34,882.65 M1883.34,882.65
			c-0.48-0.48-1.27-0.48-1.75,0c-0.48,0.48-0.48,1.27,0,1.75c0.48,0.48,1.27,0.48,1.75,0
			C1883.82,883.92,1883.82,883.14,1883.34,882.65 M1871.64,894.35c-0.48-0.48-1.27-0.48-1.75,0c-0.48,0.48-0.48,1.27,0,1.75
			c0.48,0.48,1.27,0.48,1.75,0C1872.13,895.61,1872.13,894.83,1871.64,894.35 M1871.64,894.35c-0.48-0.48-1.27-0.48-1.75,0
			c-0.48,0.48-0.48,1.27,0,1.75c0.48,0.48,1.27,0.48,1.75,0C1872.13,895.61,1872.13,894.83,1871.64,894.35 M1859.95,906.04
			c-0.48-0.48-1.27-0.48-1.75,0c-0.48,0.48-0.48,1.27,0,1.75c0.48,0.48,1.27,0.48,1.75,0
			C1860.44,907.31,1860.44,906.52,1859.95,906.04 M1859.95,906.04c-0.48-0.48-1.27-0.48-1.75,0c-0.48,0.48-0.48,1.27,0,1.75
			c0.48,0.48,1.27,0.48,1.75,0C1860.44,907.31,1860.44,906.52,1859.95,906.04 M1848.26,917.73c-0.48-0.48-1.27-0.48-1.75,0
			c-0.48,0.48-0.48,1.27,0,1.75c0.48,0.48,1.27,0.48,1.75,0C1848.75,919,1848.75,918.21,1848.26,917.73 M1848.26,917.73
			c-0.48-0.48-1.27-0.48-1.75,0c-0.48,0.48-0.48,1.27,0,1.75c0.48,0.48,1.27,0.48,1.75,0C1848.75,919,1848.75,918.21,1848.26,917.73
			 M1836.57,929.42c-0.48-0.48-1.27-0.48-1.75,0s-0.48,1.27,0,1.75s1.27,0.48,1.75,0C1837.05,930.69,1837.05,929.91,1836.57,929.42
			 M1836.57,929.42c-0.48-0.48-1.27-0.48-1.75,0s-0.48,1.27,0,1.75s1.27,0.48,1.75,0C1837.05,930.69,1837.05,929.91,1836.57,929.42
			 M1824.88,941.11c-0.48-0.48-1.27-0.48-1.75,0c-0.48,0.48-0.48,1.27,0,1.75c0.48,0.48,1.27,0.48,1.75,0
			C1825.36,942.38,1825.36,941.6,1824.88,941.11 M1824.88,941.11c-0.48-0.48-1.27-0.48-1.75,0c-0.48,0.48-0.48,1.27,0,1.75
			c0.48,0.48,1.27,0.48,1.75,0C1825.36,942.38,1825.36,941.6,1824.88,941.11 M1813.19,952.8c-0.48-0.48-1.27-0.48-1.75,0
			c-0.48,0.48-0.48,1.27,0,1.75c0.48,0.48,1.27,0.48,1.75,0C1813.67,954.07,1813.67,953.29,1813.19,952.8 M1813.19,952.8
			c-0.48-0.48-1.27-0.48-1.75,0c-0.48,0.48-0.48,1.27,0,1.75c0.48,0.48,1.27,0.48,1.75,0
			C1813.67,954.07,1813.67,953.29,1813.19,952.8 M1801.49,964.5c-0.48-0.48-1.27-0.48-1.75,0c-0.48,0.48-0.48,1.27,0,1.75
			c0.48,0.48,1.27,0.48,1.75,0C1801.98,965.77,1801.98,964.98,1801.49,964.5 M1801.49,964.5c-0.48-0.48-1.27-0.48-1.75,0
			c-0.48,0.48-0.48,1.27,0,1.75c0.48,0.48,1.27,0.48,1.75,0C1801.98,965.77,1801.98,964.98,1801.49,964.5 M1789.8,976.19
			c-0.48-0.48-1.27-0.48-1.75,0s-0.48,1.27,0,1.75s1.27,0.48,1.75,0C1790.29,977.46,1790.29,976.67,1789.8,976.19 M1789.8,976.19
			c-0.48-0.48-1.27-0.48-1.75,0s-0.48,1.27,0,1.75s1.27,0.48,1.75,0C1790.29,977.46,1790.29,976.67,1789.8,976.19 M1778.11,987.88
			c-0.48-0.48-1.27-0.48-1.75,0c-0.48,0.48-0.48,1.27,0,1.75c0.48,0.48,1.27,0.48,1.75,0
			C1778.59,989.15,1778.59,988.36,1778.11,987.88 M1778.11,987.88c-0.48-0.48-1.27-0.48-1.75,0c-0.48,0.48-0.48,1.27,0,1.75
			c0.48,0.48,1.27,0.48,1.75,0C1778.59,989.15,1778.59,988.36,1778.11,987.88 M1766.42,999.57c-0.48-0.49-1.27-0.49-1.75,0
			c-0.48,0.48-0.48,1.27,0,1.75c0.48,0.48,1.27,0.48,1.75,0C1766.9,1000.84,1766.9,1000.06,1766.42,999.57 M1766.42,999.57
			c-0.48-0.49-1.27-0.49-1.75,0c-0.48,0.48-0.48,1.27,0,1.75c0.48,0.48,1.27,0.48,1.75,0
			C1766.9,1000.84,1766.9,1000.06,1766.42,999.57 M1754.73,1011.26c-0.48-0.48-1.27-0.48-1.75,0c-0.48,0.48-0.48,1.27,0,1.75
			c0.48,0.48,1.27,0.48,1.75,0C1755.21,1012.53,1755.21,1011.75,1754.73,1011.26 M1754.73,1011.26c-0.48-0.48-1.27-0.48-1.75,0
			c-0.48,0.48-0.48,1.27,0,1.75c0.48,0.48,1.27,0.48,1.75,0C1755.21,1012.53,1755.21,1011.75,1754.73,1011.26 M1743.04,1022.95
			c-0.48-0.48-1.27-0.48-1.75,0c-0.48,0.48-0.48,1.27,0,1.75c0.48,0.48,1.27,0.48,1.75,0
			C1743.52,1024.22,1743.52,1023.44,1743.04,1022.95 M1743.04,1022.95c-0.48-0.48-1.27-0.48-1.75,0c-0.48,0.48-0.48,1.27,0,1.75
			c0.48,0.48,1.27,0.48,1.75,0C1743.52,1024.22,1743.52,1023.44,1743.04,1022.95 M1731.34,1034.65c-0.48-0.48-1.27-0.48-1.75,0
			s-0.48,1.27,0,1.75c0.48,0.48,1.27,0.48,1.75,0C1731.83,1035.92,1731.83,1035.13,1731.34,1034.65 M1731.34,1034.65
			c-0.48-0.48-1.27-0.48-1.75,0s-0.48,1.27,0,1.75c0.48,0.48,1.27,0.48,1.75,0C1731.83,1035.92,1731.83,1035.13,1731.34,1034.65
			 M1719.65,1046.34c-0.48-0.48-1.27-0.48-1.75,0c-0.48,0.48-0.48,1.27,0,1.75c0.48,0.48,1.27,0.48,1.75,0
			C1720.14,1047.61,1720.14,1046.82,1719.65,1046.34 M1719.65,1046.34c-0.48-0.48-1.27-0.48-1.75,0c-0.48,0.48-0.48,1.27,0,1.75
			c0.48,0.48,1.27,0.48,1.75,0C1720.14,1047.61,1720.14,1046.82,1719.65,1046.34 M1707.96,1058.03c-0.48-0.48-1.27-0.48-1.75,0
			c-0.48,0.48-0.48,1.27,0,1.75c0.48,0.49,1.27,0.49,1.75,0C1708.44,1059.3,1708.44,1058.52,1707.96,1058.03 M1707.96,1058.03
			c-0.48-0.48-1.27-0.48-1.75,0c-0.48,0.48-0.48,1.27,0,1.75c0.48,0.49,1.27,0.49,1.75,0
			C1708.44,1059.3,1708.44,1058.52,1707.96,1058.03 M1696.27,1069.72c-0.48-0.48-1.27-0.48-1.75,0c-0.48,0.48-0.48,1.27,0,1.75
			s1.27,0.48,1.75,0C1696.75,1070.99,1696.75,1070.21,1696.27,1069.72 M1696.27,1069.72c-0.48-0.48-1.27-0.48-1.75,0
			c-0.48,0.48-0.48,1.27,0,1.75s1.27,0.48,1.75,0C1696.75,1070.99,1696.75,1070.21,1696.27,1069.72 M1684.58,1081.41
			c-0.48-0.48-1.27-0.48-1.75,0c-0.48,0.48-0.48,1.27,0,1.75c0.48,0.48,1.27,0.48,1.75,0
			C1685.06,1082.68,1685.06,1081.9,1684.58,1081.41 M1684.58,1081.41c-0.48-0.48-1.27-0.48-1.75,0c-0.48,0.48-0.48,1.27,0,1.75
			c0.48,0.48,1.27,0.48,1.75,0C1685.06,1082.68,1685.06,1081.9,1684.58,1081.41 M1895.03,894.35c-0.49-0.48-1.27-0.48-1.75,0
			c-0.48,0.48-0.48,1.27,0,1.75c0.48,0.48,1.27,0.48,1.75,0C1895.51,895.61,1895.51,894.83,1895.03,894.35 M1895.03,894.35
			c-0.49-0.48-1.27-0.48-1.75,0c-0.48,0.48-0.48,1.27,0,1.75c0.48,0.48,1.27,0.48,1.75,0
			C1895.51,895.61,1895.51,894.83,1895.03,894.35 M1883.34,906.04c-0.48-0.48-1.27-0.48-1.75,0c-0.48,0.48-0.48,1.27,0,1.75
			c0.48,0.48,1.27,0.48,1.75,0C1883.82,907.31,1883.82,906.52,1883.34,906.04 M1883.34,906.04c-0.48-0.48-1.27-0.48-1.75,0
			c-0.48,0.48-0.48,1.27,0,1.75c0.48,0.48,1.27,0.48,1.75,0C1883.82,907.31,1883.82,906.52,1883.34,906.04 M1871.64,917.73
			c-0.48-0.48-1.27-0.48-1.75,0c-0.48,0.48-0.48,1.27,0,1.75c0.48,0.48,1.27,0.48,1.75,0C1872.13,919,1872.13,918.21,1871.64,917.73
			 M1871.64,917.73c-0.48-0.48-1.27-0.48-1.75,0c-0.48,0.48-0.48,1.27,0,1.75c0.48,0.48,1.27,0.48,1.75,0
			C1872.13,919,1872.13,918.21,1871.64,917.73 M1859.95,929.42c-0.48-0.48-1.27-0.48-1.75,0c-0.48,0.48-0.48,1.27,0,1.75
			c0.48,0.48,1.27,0.48,1.75,0C1860.44,930.69,1860.44,929.91,1859.95,929.42 M1859.95,929.42c-0.48-0.48-1.27-0.48-1.75,0
			c-0.48,0.48-0.48,1.27,0,1.75c0.48,0.48,1.27,0.48,1.75,0C1860.44,930.69,1860.44,929.91,1859.95,929.42 M1848.26,941.11
			c-0.48-0.48-1.27-0.48-1.75,0c-0.48,0.48-0.48,1.27,0,1.75c0.48,0.48,1.27,0.48,1.75,0
			C1848.75,942.38,1848.75,941.6,1848.26,941.11 M1848.26,941.11c-0.48-0.48-1.27-0.48-1.75,0c-0.48,0.48-0.48,1.27,0,1.75
			c0.48,0.48,1.27,0.48,1.75,0C1848.75,942.38,1848.75,941.6,1848.26,941.11 M1836.57,952.8c-0.48-0.48-1.27-0.48-1.75,0
			c-0.48,0.48-0.48,1.27,0,1.75c0.48,0.48,1.27,0.48,1.75,0C1837.05,954.07,1837.05,953.29,1836.57,952.8 M1836.57,952.8
			c-0.48-0.48-1.27-0.48-1.75,0c-0.48,0.48-0.48,1.27,0,1.75c0.48,0.48,1.27,0.48,1.75,0
			C1837.05,954.07,1837.05,953.29,1836.57,952.8 M1824.88,964.5c-0.48-0.48-1.27-0.48-1.75,0c-0.48,0.48-0.48,1.27,0,1.75
			c0.48,0.48,1.27,0.48,1.75,0C1825.36,965.77,1825.36,964.98,1824.88,964.5 M1824.88,964.5c-0.48-0.48-1.27-0.48-1.75,0
			c-0.48,0.48-0.48,1.27,0,1.75c0.48,0.48,1.27,0.48,1.75,0C1825.36,965.77,1825.36,964.98,1824.88,964.5 M1813.19,976.19
			c-0.48-0.48-1.27-0.48-1.75,0c-0.48,0.48-0.48,1.27,0,1.75c0.48,0.48,1.27,0.48,1.75,0S1813.67,976.67,1813.19,976.19
			 M1813.19,976.19c-0.48-0.48-1.27-0.48-1.75,0c-0.48,0.48-0.48,1.27,0,1.75c0.48,0.48,1.27,0.48,1.75,0
			S1813.67,976.67,1813.19,976.19 M1801.49,987.88c-0.48-0.48-1.27-0.48-1.75,0c-0.48,0.48-0.48,1.27,0,1.75
			c0.48,0.48,1.27,0.48,1.75,0C1801.98,989.15,1801.98,988.36,1801.49,987.88 M1801.49,987.88c-0.48-0.48-1.27-0.48-1.75,0
			c-0.48,0.48-0.48,1.27,0,1.75c0.48,0.48,1.27,0.48,1.75,0C1801.98,989.15,1801.98,988.36,1801.49,987.88 M1789.8,999.57
			c-0.48-0.49-1.27-0.49-1.75,0c-0.48,0.48-0.48,1.27,0,1.75c0.48,0.48,1.27,0.48,1.75,0
			C1790.29,1000.84,1790.29,1000.06,1789.8,999.57 M1789.8,999.57c-0.48-0.49-1.27-0.49-1.75,0c-0.48,0.48-0.48,1.27,0,1.75
			c0.48,0.48,1.27,0.48,1.75,0C1790.29,1000.84,1790.29,1000.06,1789.8,999.57 M1778.11,1011.26c-0.48-0.48-1.27-0.48-1.75,0
			c-0.48,0.48-0.48,1.27,0,1.75c0.48,0.48,1.27,0.48,1.75,0S1778.59,1011.75,1778.11,1011.26 M1778.11,1011.26
			c-0.48-0.48-1.27-0.48-1.75,0c-0.48,0.48-0.48,1.27,0,1.75c0.48,0.48,1.27,0.48,1.75,0S1778.59,1011.75,1778.11,1011.26
			 M1766.42,1022.95c-0.48-0.48-1.27-0.48-1.75,0c-0.48,0.48-0.48,1.27,0,1.75s1.27,0.48,1.75,0S1766.9,1023.44,1766.42,1022.95
			 M1766.42,1022.95c-0.48-0.48-1.27-0.48-1.75,0c-0.48,0.48-0.48,1.27,0,1.75s1.27,0.48,1.75,0S1766.9,1023.44,1766.42,1022.95
			 M1754.73,1034.65c-0.48-0.48-1.27-0.48-1.75,0c-0.48,0.48-0.48,1.27,0,1.75c0.48,0.48,1.27,0.48,1.75,0
			C1755.21,1035.92,1755.21,1035.13,1754.73,1034.65 M1754.73,1034.65c-0.48-0.48-1.27-0.48-1.75,0c-0.48,0.48-0.48,1.27,0,1.75
			c0.48,0.48,1.27,0.48,1.75,0C1755.21,1035.92,1755.21,1035.13,1754.73,1034.65 M1743.04,1046.34c-0.48-0.48-1.27-0.48-1.75,0
			c-0.48,0.48-0.48,1.27,0,1.75c0.48,0.48,1.27,0.48,1.75,0C1743.52,1047.61,1743.52,1046.82,1743.04,1046.34 M1743.04,1046.34
			c-0.48-0.48-1.27-0.48-1.75,0c-0.48,0.48-0.48,1.27,0,1.75c0.48,0.48,1.27,0.48,1.75,0
			C1743.52,1047.61,1743.52,1046.82,1743.04,1046.34 M1731.34,1058.03c-0.48-0.48-1.27-0.48-1.75,0c-0.48,0.48-0.48,1.27,0,1.75
			c0.48,0.49,1.27,0.49,1.75,0C1731.83,1059.3,1731.83,1058.52,1731.34,1058.03 M1731.34,1058.03c-0.48-0.48-1.27-0.48-1.75,0
			c-0.48,0.48-0.48,1.27,0,1.75c0.48,0.49,1.27,0.49,1.75,0C1731.83,1059.3,1731.83,1058.52,1731.34,1058.03 M1719.65,1069.72
			c-0.48-0.48-1.27-0.48-1.75,0c-0.48,0.48-0.48,1.27,0,1.75c0.48,0.48,1.27,0.48,1.75,0S1720.14,1070.21,1719.65,1069.72
			 M1719.65,1069.72c-0.48-0.48-1.27-0.48-1.75,0c-0.48,0.48-0.48,1.27,0,1.75c0.48,0.48,1.27,0.48,1.75,0
			S1720.14,1070.21,1719.65,1069.72 M1707.96,1081.41c-0.48-0.48-1.27-0.48-1.75,0c-0.48,0.48-0.48,1.27,0,1.75
			c0.48,0.48,1.27,0.48,1.75,0C1708.44,1082.68,1708.44,1081.9,1707.96,1081.41 M1707.96,1081.41c-0.48-0.48-1.27-0.48-1.75,0
			c-0.48,0.48-0.48,1.27,0,1.75c0.48,0.48,1.27,0.48,1.75,0C1708.44,1082.68,1708.44,1081.9,1707.96,1081.41 M1696.27,1093.11
			c-0.48-0.48-1.27-0.48-1.75,0s-0.48,1.27,0,1.75c0.48,0.48,1.27,0.48,1.75,0C1696.75,1094.38,1696.75,1093.59,1696.27,1093.11
			 M1696.27,1093.11c-0.48-0.48-1.27-0.48-1.75,0s-0.48,1.27,0,1.75c0.48,0.48,1.27,0.48,1.75,0
			C1696.75,1094.38,1696.75,1093.59,1696.27,1093.11 M1906.72,906.04c-0.48-0.48-1.27-0.48-1.75,0c-0.49,0.48-0.49,1.27,0,1.75
			c0.48,0.48,1.27,0.48,1.75,0C1907.2,907.31,1907.2,906.52,1906.72,906.04 M1906.72,906.04c-0.48-0.48-1.27-0.48-1.75,0
			c-0.49,0.48-0.49,1.27,0,1.75c0.48,0.48,1.27,0.48,1.75,0C1907.2,907.31,1907.2,906.52,1906.72,906.04 M1895.03,917.73
			c-0.49-0.48-1.27-0.48-1.75,0c-0.48,0.48-0.48,1.27,0,1.75c0.48,0.48,1.27,0.48,1.75,0C1895.51,919,1895.51,918.21,1895.03,917.73
			 M1895.03,917.73c-0.49-0.48-1.27-0.48-1.75,0c-0.48,0.48-0.48,1.27,0,1.75c0.48,0.48,1.27,0.48,1.75,0
			C1895.51,919,1895.51,918.21,1895.03,917.73 M1883.34,929.42c-0.48-0.48-1.27-0.48-1.75,0c-0.48,0.48-0.48,1.27,0,1.75
			c0.48,0.48,1.27,0.48,1.75,0C1883.82,930.69,1883.82,929.91,1883.34,929.42 M1883.34,929.42c-0.48-0.48-1.27-0.48-1.75,0
			c-0.48,0.48-0.48,1.27,0,1.75c0.48,0.48,1.27,0.48,1.75,0C1883.82,930.69,1883.82,929.91,1883.34,929.42 M1871.64,941.11
			c-0.48-0.48-1.27-0.48-1.75,0c-0.48,0.48-0.48,1.27,0,1.75c0.48,0.48,1.27,0.48,1.75,0
			C1872.13,942.38,1872.13,941.6,1871.64,941.11 M1871.64,941.11c-0.48-0.48-1.27-0.48-1.75,0c-0.48,0.48-0.48,1.27,0,1.75
			c0.48,0.48,1.27,0.48,1.75,0C1872.13,942.38,1872.13,941.6,1871.64,941.11 M1859.95,952.8c-0.48-0.48-1.27-0.48-1.75,0
			c-0.48,0.48-0.48,1.27,0,1.75c0.48,0.48,1.27,0.48,1.75,0C1860.44,954.07,1860.44,953.29,1859.95,952.8 M1859.95,952.8
			c-0.48-0.48-1.27-0.48-1.75,0c-0.48,0.48-0.48,1.27,0,1.75c0.48,0.48,1.27,0.48,1.75,0
			C1860.44,954.07,1860.44,953.29,1859.95,952.8 M1848.26,964.5c-0.48-0.48-1.27-0.48-1.75,0c-0.48,0.48-0.48,1.27,0,1.75
			c0.48,0.48,1.27,0.48,1.75,0C1848.75,965.77,1848.75,964.98,1848.26,964.5 M1848.26,964.5c-0.48-0.48-1.27-0.48-1.75,0
			c-0.48,0.48-0.48,1.27,0,1.75c0.48,0.48,1.27,0.48,1.75,0C1848.75,965.77,1848.75,964.98,1848.26,964.5 M1836.57,976.19
			c-0.48-0.48-1.27-0.48-1.75,0s-0.48,1.27,0,1.75s1.27,0.48,1.75,0C1837.05,977.46,1837.05,976.67,1836.57,976.19 M1836.57,976.19
			c-0.48-0.48-1.27-0.48-1.75,0s-0.48,1.27,0,1.75s1.27,0.48,1.75,0C1837.05,977.46,1837.05,976.67,1836.57,976.19 M1824.88,987.88
			c-0.48-0.48-1.27-0.48-1.75,0s-0.48,1.27,0,1.75c0.48,0.48,1.27,0.48,1.75,0C1825.36,989.15,1825.36,988.36,1824.88,987.88
			 M1824.88,987.88c-0.48-0.48-1.27-0.48-1.75,0s-0.48,1.27,0,1.75c0.48,0.48,1.27,0.48,1.75,0
			C1825.36,989.15,1825.36,988.36,1824.88,987.88 M1813.19,999.57c-0.48-0.49-1.27-0.49-1.75,0c-0.48,0.48-0.48,1.27,0,1.75
			c0.48,0.48,1.27,0.48,1.75,0C1813.67,1000.84,1813.67,1000.06,1813.19,999.57 M1813.19,999.57c-0.48-0.49-1.27-0.49-1.75,0
			c-0.48,0.48-0.48,1.27,0,1.75c0.48,0.48,1.27,0.48,1.75,0C1813.67,1000.84,1813.67,1000.06,1813.19,999.57 M1801.49,1011.26
			c-0.48-0.48-1.27-0.48-1.75,0c-0.48,0.48-0.48,1.27,0,1.75c0.48,0.48,1.27,0.48,1.75,0
			C1801.98,1012.53,1801.98,1011.75,1801.49,1011.26 M1801.49,1011.26c-0.48-0.48-1.27-0.48-1.75,0c-0.48,0.48-0.48,1.27,0,1.75
			c0.48,0.48,1.27,0.48,1.75,0C1801.98,1012.53,1801.98,1011.75,1801.49,1011.26 M1789.8,1022.95c-0.48-0.48-1.27-0.48-1.75,0
			c-0.48,0.48-0.48,1.27,0,1.75s1.27,0.48,1.75,0C1790.29,1024.22,1790.29,1023.44,1789.8,1022.95 M1789.8,1022.95
			c-0.48-0.48-1.27-0.48-1.75,0c-0.48,0.48-0.48,1.27,0,1.75s1.27,0.48,1.75,0C1790.29,1024.22,1790.29,1023.44,1789.8,1022.95
			 M1778.11,1034.65c-0.48-0.48-1.27-0.48-1.75,0c-0.48,0.48-0.48,1.27,0,1.75c0.48,0.48,1.27,0.48,1.75,0
			C1778.59,1035.92,1778.59,1035.13,1778.11,1034.65 M1778.11,1034.65c-0.48-0.48-1.27-0.48-1.75,0c-0.48,0.48-0.48,1.27,0,1.75
			c0.48,0.48,1.27,0.48,1.75,0C1778.59,1035.92,1778.59,1035.13,1778.11,1034.65 M1766.42,1046.34c-0.48-0.48-1.27-0.48-1.75,0
			c-0.48,0.48-0.48,1.27,0,1.75c0.48,0.48,1.27,0.48,1.75,0C1766.9,1047.61,1766.9,1046.82,1766.42,1046.34 M1766.42,1046.34
			c-0.48-0.48-1.27-0.48-1.75,0c-0.48,0.48-0.48,1.27,0,1.75c0.48,0.48,1.27,0.48,1.75,0
			C1766.9,1047.61,1766.9,1046.82,1766.42,1046.34 M1754.73,1058.03c-0.48-0.48-1.27-0.48-1.75,0c-0.48,0.48-0.48,1.27,0,1.75
			c0.48,0.49,1.27,0.49,1.75,0C1755.21,1059.3,1755.21,1058.52,1754.73,1058.03 M1754.73,1058.03c-0.48-0.48-1.27-0.48-1.75,0
			c-0.48,0.48-0.48,1.27,0,1.75c0.48,0.49,1.27,0.49,1.75,0C1755.21,1059.3,1755.21,1058.52,1754.73,1058.03 M1743.04,1069.72
			c-0.48-0.48-1.27-0.48-1.75,0c-0.48,0.48-0.48,1.27,0,1.75c0.48,0.48,1.27,0.48,1.75,0
			C1743.52,1070.99,1743.52,1070.21,1743.04,1069.72 M1743.04,1069.72c-0.48-0.48-1.27-0.48-1.75,0c-0.48,0.48-0.48,1.27,0,1.75
			c0.48,0.48,1.27,0.48,1.75,0C1743.52,1070.99,1743.52,1070.21,1743.04,1069.72 M1731.34,1081.41c-0.48-0.48-1.27-0.48-1.75,0
			c-0.48,0.48-0.48,1.27,0,1.75c0.48,0.48,1.27,0.48,1.75,0C1731.83,1082.68,1731.83,1081.9,1731.34,1081.41 M1731.34,1081.41
			c-0.48-0.48-1.27-0.48-1.75,0c-0.48,0.48-0.48,1.27,0,1.75c0.48,0.48,1.27,0.48,1.75,0
			C1731.83,1082.68,1731.83,1081.9,1731.34,1081.41 M1719.65,1093.11c-0.48-0.48-1.27-0.48-1.75,0c-0.48,0.48-0.48,1.27,0,1.75
			c0.48,0.48,1.27,0.48,1.75,0C1720.14,1094.38,1720.14,1093.59,1719.65,1093.11 M1719.65,1093.11c-0.48-0.48-1.27-0.48-1.75,0
			c-0.48,0.48-0.48,1.27,0,1.75c0.48,0.48,1.27,0.48,1.75,0C1720.14,1094.38,1720.14,1093.59,1719.65,1093.11 M1707.96,1104.8
			c-0.48-0.48-1.27-0.48-1.75,0c-0.48,0.48-0.48,1.27,0,1.75c0.48,0.48,1.27,0.48,1.75,0
			C1708.44,1106.07,1708.44,1105.28,1707.96,1104.8 M1707.96,1104.8c-0.48-0.48-1.27-0.48-1.75,0c-0.48,0.48-0.48,1.27,0,1.75
			c0.48,0.48,1.27,0.48,1.75,0C1708.44,1106.07,1708.44,1105.28,1707.96,1104.8 M1918.41,917.73c-0.48-0.48-1.27-0.48-1.75,0
			c-0.48,0.48-0.48,1.27,0,1.75c0.48,0.48,1.27,0.48,1.75,0C1918.9,919,1918.9,918.21,1918.41,917.73 M1918.41,917.73
			c-0.48-0.48-1.27-0.48-1.75,0c-0.48,0.48-0.48,1.27,0,1.75c0.48,0.48,1.27,0.48,1.75,0C1918.9,919,1918.9,918.21,1918.41,917.73
			 M1906.72,929.42c-0.48-0.48-1.27-0.48-1.75,0c-0.49,0.48-0.49,1.27,0,1.75c0.48,0.48,1.27,0.48,1.75,0
			S1907.2,929.91,1906.72,929.42 M1906.72,929.42c-0.48-0.48-1.27-0.48-1.75,0c-0.49,0.48-0.49,1.27,0,1.75
			c0.48,0.48,1.27,0.48,1.75,0S1907.2,929.91,1906.72,929.42 M1895.03,941.11c-0.49-0.48-1.27-0.48-1.75,0
			c-0.48,0.48-0.48,1.27,0,1.75c0.48,0.48,1.27,0.48,1.75,0C1895.51,942.38,1895.51,941.6,1895.03,941.11 M1895.03,941.11
			c-0.49-0.48-1.27-0.48-1.75,0c-0.48,0.48-0.48,1.27,0,1.75c0.48,0.48,1.27,0.48,1.75,0
			C1895.51,942.38,1895.51,941.6,1895.03,941.11 M1883.34,952.8c-0.48-0.48-1.27-0.48-1.75,0c-0.48,0.48-0.48,1.27,0,1.75
			c0.48,0.48,1.27,0.48,1.75,0C1883.82,954.07,1883.82,953.29,1883.34,952.8 M1883.34,952.8c-0.48-0.48-1.27-0.48-1.75,0
			c-0.48,0.48-0.48,1.27,0,1.75c0.48,0.48,1.27,0.48,1.75,0C1883.82,954.07,1883.82,953.29,1883.34,952.8 M1871.64,964.5
			c-0.48-0.48-1.27-0.48-1.75,0c-0.48,0.48-0.48,1.27,0,1.75c0.48,0.48,1.27,0.48,1.75,0
			C1872.13,965.77,1872.13,964.98,1871.64,964.5 M1871.64,964.5c-0.48-0.48-1.27-0.48-1.75,0c-0.48,0.48-0.48,1.27,0,1.75
			c0.48,0.48,1.27,0.48,1.75,0C1872.13,965.77,1872.13,964.98,1871.64,964.5 M1859.95,976.19c-0.48-0.48-1.27-0.48-1.75,0
			c-0.48,0.48-0.48,1.27,0,1.75c0.48,0.48,1.27,0.48,1.75,0C1860.44,977.46,1860.44,976.67,1859.95,976.19 M1859.95,976.19
			c-0.48-0.48-1.27-0.48-1.75,0c-0.48,0.48-0.48,1.27,0,1.75c0.48,0.48,1.27,0.48,1.75,0
			C1860.44,977.46,1860.44,976.67,1859.95,976.19 M1848.26,987.88c-0.48-0.48-1.27-0.48-1.75,0c-0.48,0.48-0.48,1.27,0,1.75
			c0.48,0.48,1.27,0.48,1.75,0C1848.75,989.15,1848.75,988.36,1848.26,987.88 M1848.26,987.88c-0.48-0.48-1.27-0.48-1.75,0
			c-0.48,0.48-0.48,1.27,0,1.75c0.48,0.48,1.27,0.48,1.75,0C1848.75,989.15,1848.75,988.36,1848.26,987.88 M1836.57,999.57
			c-0.48-0.49-1.27-0.49-1.75,0c-0.48,0.48-0.48,1.27,0,1.75c0.48,0.48,1.27,0.48,1.75,0
			C1837.05,1000.84,1837.05,1000.06,1836.57,999.57 M1836.57,999.57c-0.48-0.49-1.27-0.49-1.75,0c-0.48,0.48-0.48,1.27,0,1.75
			c0.48,0.48,1.27,0.48,1.75,0C1837.05,1000.84,1837.05,1000.06,1836.57,999.57 M1824.88,1011.26c-0.48-0.48-1.27-0.48-1.75,0
			c-0.48,0.48-0.48,1.27,0,1.75s1.27,0.48,1.75,0C1825.36,1012.53,1825.36,1011.75,1824.88,1011.26 M1824.88,1011.26
			c-0.48-0.48-1.27-0.48-1.75,0c-0.48,0.48-0.48,1.27,0,1.75s1.27,0.48,1.75,0C1825.36,1012.53,1825.36,1011.75,1824.88,1011.26
			 M1813.19,1022.95c-0.48-0.48-1.27-0.48-1.75,0c-0.48,0.48-0.48,1.27,0,1.75c0.48,0.48,1.27,0.48,1.75,0
			S1813.67,1023.44,1813.19,1022.95 M1813.19,1022.95c-0.48-0.48-1.27-0.48-1.75,0c-0.48,0.48-0.48,1.27,0,1.75
			c0.48,0.48,1.27,0.48,1.75,0S1813.67,1023.44,1813.19,1022.95 M1801.49,1034.65c-0.48-0.48-1.27-0.48-1.75,0
			c-0.48,0.48-0.48,1.27,0,1.75c0.48,0.48,1.27,0.48,1.75,0C1801.98,1035.92,1801.98,1035.13,1801.49,1034.65 M1801.49,1034.65
			c-0.48-0.48-1.27-0.48-1.75,0c-0.48,0.48-0.48,1.27,0,1.75c0.48,0.48,1.27,0.48,1.75,0
			C1801.98,1035.92,1801.98,1035.13,1801.49,1034.65 M1789.8,1046.34c-0.48-0.48-1.27-0.48-1.75,0c-0.48,0.48-0.48,1.27,0,1.75
			c0.48,0.48,1.27,0.48,1.75,0C1790.29,1047.61,1790.29,1046.82,1789.8,1046.34 M1789.8,1046.34c-0.48-0.48-1.27-0.48-1.75,0
			c-0.48,0.48-0.48,1.27,0,1.75c0.48,0.48,1.27,0.48,1.75,0C1790.29,1047.61,1790.29,1046.82,1789.8,1046.34 M1778.11,1058.03
			c-0.48-0.48-1.27-0.48-1.75,0c-0.48,0.48-0.48,1.27,0,1.75c0.48,0.49,1.27,0.49,1.75,0
			C1778.59,1059.3,1778.59,1058.52,1778.11,1058.03 M1778.11,1058.03c-0.48-0.48-1.27-0.48-1.75,0c-0.48,0.48-0.48,1.27,0,1.75
			c0.48,0.49,1.27,0.49,1.75,0C1778.59,1059.3,1778.59,1058.52,1778.11,1058.03 M1766.42,1069.72c-0.48-0.48-1.27-0.48-1.75,0
			c-0.48,0.48-0.48,1.27,0,1.75s1.27,0.48,1.75,0S1766.9,1070.21,1766.42,1069.72 M1766.42,1069.72c-0.48-0.48-1.27-0.48-1.75,0
			c-0.48,0.48-0.48,1.27,0,1.75s1.27,0.48,1.75,0S1766.9,1070.21,1766.42,1069.72 M1754.73,1081.41c-0.48-0.48-1.27-0.48-1.75,0
			c-0.48,0.48-0.48,1.27,0,1.75c0.48,0.48,1.27,0.48,1.75,0C1755.21,1082.68,1755.21,1081.9,1754.73,1081.41 M1754.73,1081.41
			c-0.48-0.48-1.27-0.48-1.75,0c-0.48,0.48-0.48,1.27,0,1.75c0.48,0.48,1.27,0.48,1.75,0
			C1755.21,1082.68,1755.21,1081.9,1754.73,1081.41 M1743.04,1093.11c-0.48-0.48-1.27-0.48-1.75,0c-0.48,0.48-0.48,1.27,0,1.75
			c0.48,0.48,1.27,0.48,1.75,0C1743.52,1094.38,1743.52,1093.59,1743.04,1093.11 M1743.04,1093.11c-0.48-0.48-1.27-0.48-1.75,0
			c-0.48,0.48-0.48,1.27,0,1.75c0.48,0.48,1.27,0.48,1.75,0C1743.52,1094.38,1743.52,1093.59,1743.04,1093.11 M1731.34,1104.8
			c-0.48-0.48-1.27-0.48-1.75,0c-0.48,0.48-0.48,1.27,0,1.75c0.48,0.48,1.27,0.48,1.75,0
			C1731.83,1106.07,1731.83,1105.28,1731.34,1104.8 M1731.34,1104.8c-0.48-0.48-1.27-0.48-1.75,0c-0.48,0.48-0.48,1.27,0,1.75
			c0.48,0.48,1.27,0.48,1.75,0C1731.83,1106.07,1731.83,1105.28,1731.34,1104.8 M1719.65,1116.49c-0.48-0.48-1.27-0.48-1.75,0
			c-0.48,0.48-0.48,1.27,0,1.75c0.48,0.48,1.27,0.48,1.75,0S1720.14,1116.97,1719.65,1116.49 M1719.65,1116.49
			c-0.48-0.48-1.27-0.48-1.75,0c-0.48,0.48-0.48,1.27,0,1.75c0.48,0.48,1.27,0.48,1.75,0S1720.14,1116.97,1719.65,1116.49
			 M1930.1,929.42c-0.48-0.48-1.27-0.48-1.75,0s-0.48,1.27,0,1.75s1.27,0.48,1.75,0C1930.59,930.69,1930.59,929.91,1930.1,929.42
			 M1930.1,929.42c-0.48-0.48-1.27-0.48-1.75,0s-0.48,1.27,0,1.75s1.27,0.48,1.75,0C1930.59,930.69,1930.59,929.91,1930.1,929.42
			 M1918.41,941.11c-0.48-0.48-1.27-0.48-1.75,0c-0.48,0.48-0.48,1.27,0,1.75c0.48,0.48,1.27,0.48,1.75,0
			C1918.9,942.38,1918.9,941.6,1918.41,941.11 M1918.41,941.11c-0.48-0.48-1.27-0.48-1.75,0c-0.48,0.48-0.48,1.27,0,1.75
			c0.48,0.48,1.27,0.48,1.75,0C1918.9,942.38,1918.9,941.6,1918.41,941.11 M1906.72,952.8c-0.48-0.48-1.27-0.48-1.75,0
			c-0.49,0.48-0.49,1.27,0,1.75c0.48,0.48,1.27,0.48,1.75,0C1907.2,954.07,1907.2,953.29,1906.72,952.8 M1906.72,952.8
			c-0.48-0.48-1.27-0.48-1.75,0c-0.49,0.48-0.49,1.27,0,1.75c0.48,0.48,1.27,0.48,1.75,0C1907.2,954.07,1907.2,953.29,1906.72,952.8
			 M1895.03,964.5c-0.49-0.48-1.27-0.48-1.75,0c-0.48,0.48-0.48,1.27,0,1.75c0.48,0.48,1.27,0.48,1.75,0
			C1895.51,965.77,1895.51,964.98,1895.03,964.5 M1895.03,964.5c-0.49-0.48-1.27-0.48-1.75,0c-0.48,0.48-0.48,1.27,0,1.75
			c0.48,0.48,1.27,0.48,1.75,0C1895.51,965.77,1895.51,964.98,1895.03,964.5 M1883.34,976.19c-0.48-0.48-1.27-0.48-1.75,0
			c-0.48,0.48-0.48,1.27,0,1.75c0.48,0.48,1.27,0.48,1.75,0C1883.82,977.46,1883.82,976.67,1883.34,976.19 M1883.34,976.19
			c-0.48-0.48-1.27-0.48-1.75,0c-0.48,0.48-0.48,1.27,0,1.75c0.48,0.48,1.27,0.48,1.75,0
			C1883.82,977.46,1883.82,976.67,1883.34,976.19 M1871.64,987.88c-0.48-0.48-1.27-0.48-1.75,0s-0.48,1.27,0,1.75
			c0.48,0.48,1.27,0.48,1.75,0C1872.13,989.15,1872.13,988.36,1871.64,987.88 M1871.64,987.88c-0.48-0.48-1.27-0.48-1.75,0
			s-0.48,1.27,0,1.75c0.48,0.48,1.27,0.48,1.75,0C1872.13,989.15,1872.13,988.36,1871.64,987.88 M1859.95,999.57
			c-0.48-0.49-1.27-0.49-1.75,0c-0.48,0.48-0.48,1.27,0,1.75c0.48,0.48,1.27,0.48,1.75,0
			C1860.44,1000.84,1860.44,1000.06,1859.95,999.57 M1859.95,999.57c-0.48-0.49-1.27-0.49-1.75,0c-0.48,0.48-0.48,1.27,0,1.75
			c0.48,0.48,1.27,0.48,1.75,0C1860.44,1000.84,1860.44,1000.06,1859.95,999.57 M1848.26,1011.26c-0.48-0.48-1.27-0.48-1.75,0
			c-0.48,0.48-0.48,1.27,0,1.75c0.48,0.48,1.27,0.48,1.75,0C1848.75,1012.53,1848.75,1011.75,1848.26,1011.26 M1848.26,1011.26
			c-0.48-0.48-1.27-0.48-1.75,0c-0.48,0.48-0.48,1.27,0,1.75c0.48,0.48,1.27,0.48,1.75,0
			C1848.75,1012.53,1848.75,1011.75,1848.26,1011.26 M1836.57,1022.95c-0.48-0.48-1.27-0.48-1.75,0c-0.48,0.48-0.48,1.27,0,1.75
			s1.27,0.48,1.75,0C1837.05,1024.22,1837.05,1023.44,1836.57,1022.95 M1836.57,1022.95c-0.48-0.48-1.27-0.48-1.75,0
			c-0.48,0.48-0.48,1.27,0,1.75s1.27,0.48,1.75,0C1837.05,1024.22,1837.05,1023.44,1836.57,1022.95 M1824.88,1034.65
			c-0.48-0.48-1.27-0.48-1.75,0s-0.48,1.27,0,1.75c0.48,0.48,1.27,0.48,1.75,0C1825.36,1035.92,1825.36,1035.13,1824.88,1034.65
			 M1824.88,1034.65c-0.48-0.48-1.27-0.48-1.75,0s-0.48,1.27,0,1.75c0.48,0.48,1.27,0.48,1.75,0
			C1825.36,1035.92,1825.36,1035.13,1824.88,1034.65 M1813.19,1046.34c-0.48-0.48-1.27-0.48-1.75,0c-0.48,0.48-0.48,1.27,0,1.75
			c0.48,0.48,1.27,0.48,1.75,0C1813.67,1047.61,1813.67,1046.82,1813.19,1046.34 M1813.19,1046.34c-0.48-0.48-1.27-0.48-1.75,0
			c-0.48,0.48-0.48,1.27,0,1.75c0.48,0.48,1.27,0.48,1.75,0C1813.67,1047.61,1813.67,1046.82,1813.19,1046.34 M1801.49,1058.03
			c-0.48-0.48-1.27-0.48-1.75,0c-0.48,0.48-0.48,1.27,0,1.75c0.48,0.49,1.27,0.49,1.75,0
			C1801.98,1059.3,1801.98,1058.52,1801.49,1058.03 M1801.49,1058.03c-0.48-0.48-1.27-0.48-1.75,0c-0.48,0.48-0.48,1.27,0,1.75
			c0.48,0.49,1.27,0.49,1.75,0C1801.98,1059.3,1801.98,1058.52,1801.49,1058.03 M1789.8,1069.72c-0.48-0.48-1.27-0.48-1.75,0
			c-0.48,0.48-0.48,1.27,0,1.75s1.27,0.48,1.75,0C1790.29,1070.99,1790.29,1070.21,1789.8,1069.72 M1789.8,1069.72
			c-0.48-0.48-1.27-0.48-1.75,0c-0.48,0.48-0.48,1.27,0,1.75s1.27,0.48,1.75,0C1790.29,1070.99,1790.29,1070.21,1789.8,1069.72
			 M1778.11,1081.41c-0.48-0.48-1.27-0.48-1.75,0c-0.48,0.48-0.48,1.27,0,1.75c0.48,0.48,1.27,0.48,1.75,0
			C1778.59,1082.68,1778.59,1081.9,1778.11,1081.41 M1778.11,1081.41c-0.48-0.48-1.27-0.48-1.75,0c-0.48,0.48-0.48,1.27,0,1.75
			c0.48,0.48,1.27,0.48,1.75,0C1778.59,1082.68,1778.59,1081.9,1778.11,1081.41 M1766.42,1093.11c-0.48-0.48-1.27-0.48-1.75,0
			s-0.48,1.27,0,1.75c0.48,0.48,1.27,0.48,1.75,0C1766.9,1094.38,1766.9,1093.59,1766.42,1093.11 M1766.42,1093.11
			c-0.48-0.48-1.27-0.48-1.75,0s-0.48,1.27,0,1.75c0.48,0.48,1.27,0.48,1.75,0C1766.9,1094.38,1766.9,1093.59,1766.42,1093.11
			 M1754.73,1104.8c-0.48-0.48-1.27-0.48-1.75,0c-0.48,0.48-0.48,1.27,0,1.75c0.48,0.48,1.27,0.48,1.75,0
			C1755.21,1106.07,1755.21,1105.28,1754.73,1104.8 M1754.73,1104.8c-0.48-0.48-1.27-0.48-1.75,0c-0.48,0.48-0.48,1.27,0,1.75
			c0.48,0.48,1.27,0.48,1.75,0C1755.21,1106.07,1755.21,1105.28,1754.73,1104.8 M1743.04,1116.49c-0.48-0.48-1.27-0.48-1.75,0
			c-0.48,0.48-0.48,1.27,0,1.75c0.48,0.48,1.27,0.48,1.75,0C1743.52,1117.76,1743.52,1116.97,1743.04,1116.49 M1743.04,1116.49
			c-0.48-0.48-1.27-0.48-1.75,0c-0.48,0.48-0.48,1.27,0,1.75c0.48,0.48,1.27,0.48,1.75,0
			C1743.52,1117.76,1743.52,1116.97,1743.04,1116.49 M1731.34,1128.18c-0.48-0.48-1.27-0.48-1.75,0s-0.48,1.27,0,1.75
			c0.48,0.48,1.27,0.48,1.75,0C1731.83,1129.45,1731.83,1128.67,1731.34,1128.18 M1731.34,1128.18c-0.48-0.48-1.27-0.48-1.75,0
			s-0.48,1.27,0,1.75c0.48,0.48,1.27,0.48,1.75,0C1731.83,1129.45,1731.83,1128.67,1731.34,1128.18 M1941.79,941.11
			c-0.48-0.48-1.27-0.48-1.75,0c-0.48,0.48-0.48,1.27,0,1.75c0.48,0.48,1.27,0.48,1.75,0
			C1942.28,942.38,1942.28,941.6,1941.79,941.11 M1941.79,941.11c-0.48-0.48-1.27-0.48-1.75,0c-0.48,0.48-0.48,1.27,0,1.75
			c0.48,0.48,1.27,0.48,1.75,0C1942.28,942.38,1942.28,941.6,1941.79,941.11 M1930.1,952.8c-0.48-0.48-1.27-0.48-1.75,0
			c-0.48,0.48-0.48,1.27,0,1.75c0.48,0.48,1.27,0.48,1.75,0C1930.59,954.07,1930.59,953.29,1930.1,952.8 M1930.1,952.8
			c-0.48-0.48-1.27-0.48-1.75,0c-0.48,0.48-0.48,1.27,0,1.75c0.48,0.48,1.27,0.48,1.75,0
			C1930.59,954.07,1930.59,953.29,1930.1,952.8 M1918.41,964.5c-0.48-0.48-1.27-0.48-1.75,0c-0.48,0.48-0.48,1.27,0,1.75
			c0.48,0.48,1.27,0.48,1.75,0C1918.9,965.77,1918.9,964.98,1918.41,964.5 M1918.41,964.5c-0.48-0.48-1.27-0.48-1.75,0
			c-0.48,0.48-0.48,1.27,0,1.75c0.48,0.48,1.27,0.48,1.75,0C1918.9,965.77,1918.9,964.98,1918.41,964.5 M1906.72,976.19
			c-0.48-0.48-1.27-0.48-1.75,0c-0.49,0.48-0.49,1.27,0,1.75c0.48,0.48,1.27,0.48,1.75,0S1907.2,976.67,1906.72,976.19
			 M1906.72,976.19c-0.48-0.48-1.27-0.48-1.75,0c-0.49,0.48-0.49,1.27,0,1.75c0.48,0.48,1.27,0.48,1.75,0
			S1907.2,976.67,1906.72,976.19 M1895.03,987.88c-0.49-0.48-1.27-0.48-1.75,0c-0.48,0.48-0.48,1.27,0,1.75
			c0.48,0.48,1.27,0.48,1.75,0C1895.51,989.15,1895.51,988.36,1895.03,987.88 M1895.03,987.88c-0.49-0.48-1.27-0.48-1.75,0
			c-0.48,0.48-0.48,1.27,0,1.75c0.48,0.48,1.27,0.48,1.75,0C1895.51,989.15,1895.51,988.36,1895.03,987.88 M1883.34,999.57
			c-0.48-0.49-1.27-0.49-1.75,0c-0.48,0.48-0.48,1.27,0,1.75c0.48,0.48,1.27,0.48,1.75,0
			C1883.82,1000.84,1883.82,1000.06,1883.34,999.57 M1883.34,999.57c-0.48-0.49-1.27-0.49-1.75,0c-0.48,0.48-0.48,1.27,0,1.75
			c0.48,0.48,1.27,0.48,1.75,0C1883.82,1000.84,1883.82,1000.06,1883.34,999.57 M1871.64,1011.26c-0.48-0.48-1.27-0.48-1.75,0
			c-0.48,0.48-0.48,1.27,0,1.75s1.27,0.48,1.75,0S1872.13,1011.75,1871.64,1011.26 M1871.64,1011.26c-0.48-0.48-1.27-0.48-1.75,0
			c-0.48,0.48-0.48,1.27,0,1.75s1.27,0.48,1.75,0S1872.13,1011.75,1871.64,1011.26 M1859.95,1022.95c-0.48-0.48-1.27-0.48-1.75,0
			c-0.48,0.48-0.48,1.27,0,1.75c0.48,0.48,1.27,0.48,1.75,0C1860.44,1024.22,1860.44,1023.44,1859.95,1022.95 M1859.95,1022.95
			c-0.48-0.48-1.27-0.48-1.75,0c-0.48,0.48-0.48,1.27,0,1.75c0.48,0.48,1.27,0.48,1.75,0
			C1860.44,1024.22,1860.44,1023.44,1859.95,1022.95 M1848.26,1034.65c-0.48-0.48-1.27-0.48-1.75,0c-0.48,0.48-0.48,1.27,0,1.75
			c0.48,0.48,1.27,0.48,1.75,0C1848.75,1035.92,1848.75,1035.13,1848.26,1034.65 M1848.26,1034.65c-0.48-0.48-1.27-0.48-1.75,0
			c-0.48,0.48-0.48,1.27,0,1.75c0.48,0.48,1.27,0.48,1.75,0C1848.75,1035.92,1848.75,1035.13,1848.26,1034.65 M1836.57,1046.34
			c-0.48-0.48-1.27-0.48-1.75,0c-0.48,0.48-0.48,1.27,0,1.75c0.48,0.48,1.27,0.48,1.75,0
			C1837.05,1047.61,1837.05,1046.82,1836.57,1046.34 M1836.57,1046.34c-0.48-0.48-1.27-0.48-1.75,0c-0.48,0.48-0.48,1.27,0,1.75
			c0.48,0.48,1.27,0.48,1.75,0C1837.05,1047.61,1837.05,1046.82,1836.57,1046.34 M1824.88,1058.03c-0.48-0.48-1.27-0.48-1.75,0
			c-0.48,0.48-0.48,1.27,0,1.75c0.48,0.49,1.27,0.49,1.75,0C1825.36,1059.3,1825.36,1058.52,1824.88,1058.03 M1824.88,1058.03
			c-0.48-0.48-1.27-0.48-1.75,0c-0.48,0.48-0.48,1.27,0,1.75c0.48,0.49,1.27,0.49,1.75,0
			C1825.36,1059.3,1825.36,1058.52,1824.88,1058.03 M1813.19,1069.72c-0.48-0.48-1.27-0.48-1.75,0c-0.48,0.48-0.48,1.27,0,1.75
			c0.48,0.48,1.27,0.48,1.75,0S1813.67,1070.21,1813.19,1069.72 M1813.19,1069.72c-0.48-0.48-1.27-0.48-1.75,0
			c-0.48,0.48-0.48,1.27,0,1.75c0.48,0.48,1.27,0.48,1.75,0S1813.67,1070.21,1813.19,1069.72 M1801.49,1081.41
			c-0.48-0.48-1.27-0.48-1.75,0c-0.48,0.48-0.48,1.27,0,1.75c0.48,0.48,1.27,0.48,1.75,0
			C1801.98,1082.68,1801.98,1081.9,1801.49,1081.41 M1801.49,1081.41c-0.48-0.48-1.27-0.48-1.75,0c-0.48,0.48-0.48,1.27,0,1.75
			c0.48,0.48,1.27,0.48,1.75,0C1801.98,1082.68,1801.98,1081.9,1801.49,1081.41 M1789.8,1093.11c-0.48-0.48-1.27-0.48-1.75,0
			s-0.48,1.27,0,1.75c0.48,0.48,1.27,0.48,1.75,0C1790.29,1094.38,1790.29,1093.59,1789.8,1093.11 M1789.8,1093.11
			c-0.48-0.48-1.27-0.48-1.75,0s-0.48,1.27,0,1.75c0.48,0.48,1.27,0.48,1.75,0C1790.29,1094.38,1790.29,1093.59,1789.8,1093.11
			 M1778.11,1104.8c-0.48-0.48-1.27-0.48-1.75,0c-0.48,0.48-0.48,1.27,0,1.75c0.48,0.48,1.27,0.48,1.75,0
			C1778.59,1106.07,1778.59,1105.28,1778.11,1104.8 M1778.11,1104.8c-0.48-0.48-1.27-0.48-1.75,0c-0.48,0.48-0.48,1.27,0,1.75
			c0.48,0.48,1.27,0.48,1.75,0C1778.59,1106.07,1778.59,1105.28,1778.11,1104.8 M1766.42,1116.49c-0.48-0.48-1.27-0.48-1.75,0
			c-0.48,0.48-0.48,1.27,0,1.75s1.27,0.48,1.75,0S1766.9,1116.97,1766.42,1116.49 M1766.42,1116.49c-0.48-0.48-1.27-0.48-1.75,0
			c-0.48,0.48-0.48,1.27,0,1.75s1.27,0.48,1.75,0S1766.9,1116.97,1766.42,1116.49 M1754.73,1128.18c-0.48-0.48-1.27-0.48-1.75,0
			c-0.48,0.48-0.48,1.27,0,1.75c0.48,0.48,1.27,0.48,1.75,0C1755.21,1129.45,1755.21,1128.67,1754.73,1128.18 M1754.73,1128.18
			c-0.48-0.48-1.27-0.48-1.75,0c-0.48,0.48-0.48,1.27,0,1.75c0.48,0.48,1.27,0.48,1.75,0
			C1755.21,1129.45,1755.21,1128.67,1754.73,1128.18 M1743.04,1139.87c-0.48-0.49-1.27-0.49-1.75,0c-0.48,0.48-0.48,1.27,0,1.75
			c0.48,0.48,1.27,0.48,1.75,0C1743.52,1141.14,1743.52,1140.36,1743.04,1139.87 M1743.04,1139.87c-0.48-0.49-1.27-0.49-1.75,0
			c-0.48,0.48-0.48,1.27,0,1.75c0.48,0.48,1.27,0.48,1.75,0C1743.52,1141.14,1743.52,1140.36,1743.04,1139.87 M1953.49,952.8
			c-0.48-0.48-1.27-0.48-1.75,0c-0.48,0.48-0.48,1.27,0,1.75c0.48,0.48,1.27,0.48,1.75,0
			C1953.97,954.07,1953.97,953.29,1953.49,952.8 M1953.49,952.8c-0.48-0.48-1.27-0.48-1.75,0c-0.48,0.48-0.48,1.27,0,1.75
			c0.48,0.48,1.27,0.48,1.75,0C1953.97,954.07,1953.97,953.29,1953.49,952.8 M1941.79,964.5c-0.48-0.48-1.27-0.48-1.75,0
			c-0.48,0.48-0.48,1.27,0,1.75c0.48,0.48,1.27,0.48,1.75,0C1942.28,965.77,1942.28,964.98,1941.79,964.5 M1941.79,964.5
			c-0.48-0.48-1.27-0.48-1.75,0c-0.48,0.48-0.48,1.27,0,1.75c0.48,0.48,1.27,0.48,1.75,0
			C1942.28,965.77,1942.28,964.98,1941.79,964.5 M1930.1,976.19c-0.48-0.48-1.27-0.48-1.75,0s-0.48,1.27,0,1.75s1.27,0.48,1.75,0
			C1930.59,977.46,1930.59,976.67,1930.1,976.19 M1930.1,976.19c-0.48-0.48-1.27-0.48-1.75,0s-0.48,1.27,0,1.75s1.27,0.48,1.75,0
			C1930.59,977.46,1930.59,976.67,1930.1,976.19 M1918.41,987.88c-0.48-0.48-1.27-0.48-1.75,0s-0.48,1.27,0,1.75
			c0.48,0.48,1.27,0.48,1.75,0C1918.9,989.15,1918.9,988.36,1918.41,987.88 M1918.41,987.88c-0.48-0.48-1.27-0.48-1.75,0
			s-0.48,1.27,0,1.75c0.48,0.48,1.27,0.48,1.75,0C1918.9,989.15,1918.9,988.36,1918.41,987.88 M1906.72,999.57
			c-0.48-0.49-1.27-0.49-1.75,0c-0.49,0.48-0.49,1.27,0,1.75c0.48,0.48,1.27,0.48,1.75,0
			C1907.2,1000.84,1907.2,1000.06,1906.72,999.57 M1906.72,999.57c-0.48-0.49-1.27-0.49-1.75,0c-0.49,0.48-0.49,1.27,0,1.75
			c0.48,0.48,1.27,0.48,1.75,0C1907.2,1000.84,1907.2,1000.06,1906.72,999.57 M1895.03,1011.26c-0.49-0.48-1.27-0.48-1.75,0
			c-0.48,0.48-0.48,1.27,0,1.75c0.48,0.48,1.27,0.48,1.75,0C1895.51,1012.53,1895.51,1011.75,1895.03,1011.26 M1895.03,1011.26
			c-0.49-0.48-1.27-0.48-1.75,0c-0.48,0.48-0.48,1.27,0,1.75c0.48,0.48,1.27,0.48,1.75,0
			C1895.51,1012.53,1895.51,1011.75,1895.03,1011.26 M1883.34,1022.95c-0.48-0.48-1.27-0.48-1.75,0c-0.48,0.48-0.48,1.27,0,1.75
			c0.48,0.48,1.27,0.48,1.75,0C1883.82,1024.22,1883.82,1023.44,1883.34,1022.95 M1883.34,1022.95c-0.48-0.48-1.27-0.48-1.75,0
			c-0.48,0.48-0.48,1.27,0,1.75c0.48,0.48,1.27,0.48,1.75,0C1883.82,1024.22,1883.82,1023.44,1883.34,1022.95 M1871.64,1034.65
			c-0.48-0.48-1.27-0.48-1.75,0s-0.48,1.27,0,1.75c0.48,0.48,1.27,0.48,1.75,0C1872.13,1035.92,1872.13,1035.13,1871.64,1034.65
			 M1871.64,1034.65c-0.48-0.48-1.27-0.48-1.75,0s-0.48,1.27,0,1.75c0.48,0.48,1.27,0.48,1.75,0
			C1872.13,1035.92,1872.13,1035.13,1871.64,1034.65 M1859.95,1046.34c-0.48-0.48-1.27-0.48-1.75,0c-0.48,0.48-0.48,1.27,0,1.75
			c0.48,0.48,1.27,0.48,1.75,0C1860.44,1047.61,1860.44,1046.82,1859.95,1046.34 M1859.95,1046.34c-0.48-0.48-1.27-0.48-1.75,0
			c-0.48,0.48-0.48,1.27,0,1.75c0.48,0.48,1.27,0.48,1.75,0C1860.44,1047.61,1860.44,1046.82,1859.95,1046.34 M1848.26,1058.03
			c-0.48-0.48-1.27-0.48-1.75,0c-0.48,0.48-0.48,1.27,0,1.75c0.48,0.49,1.27,0.49,1.75,0
			C1848.75,1059.3,1848.75,1058.52,1848.26,1058.03 M1848.26,1058.03c-0.48-0.48-1.27-0.48-1.75,0c-0.48,0.48-0.48,1.27,0,1.75
			c0.48,0.49,1.27,0.49,1.75,0C1848.75,1059.3,1848.75,1058.52,1848.26,1058.03 M1836.57,1069.72c-0.48-0.48-1.27-0.48-1.75,0
			c-0.48,0.48-0.48,1.27,0,1.75s1.27,0.48,1.75,0C1837.05,1070.99,1837.05,1070.21,1836.57,1069.72 M1836.57,1069.72
			c-0.48-0.48-1.27-0.48-1.75,0c-0.48,0.48-0.48,1.27,0,1.75s1.27,0.48,1.75,0C1837.05,1070.99,1837.05,1070.21,1836.57,1069.72
			 M1824.88,1081.41c-0.48-0.48-1.27-0.48-1.75,0c-0.48,0.48-0.48,1.27,0,1.75c0.48,0.48,1.27,0.48,1.75,0
			C1825.36,1082.68,1825.36,1081.9,1824.88,1081.41 M1824.88,1081.41c-0.48-0.48-1.27-0.48-1.75,0c-0.48,0.48-0.48,1.27,0,1.75
			c0.48,0.48,1.27,0.48,1.75,0C1825.36,1082.68,1825.36,1081.9,1824.88,1081.41 M1813.19,1093.11c-0.48-0.48-1.27-0.48-1.75,0
			c-0.48,0.48-0.48,1.27,0,1.75c0.48,0.48,1.27,0.48,1.75,0C1813.67,1094.38,1813.67,1093.59,1813.19,1093.11 M1813.19,1093.11
			c-0.48-0.48-1.27-0.48-1.75,0c-0.48,0.48-0.48,1.27,0,1.75c0.48,0.48,1.27,0.48,1.75,0
			C1813.67,1094.38,1813.67,1093.59,1813.19,1093.11 M1801.49,1104.8c-0.48-0.48-1.27-0.48-1.75,0c-0.48,0.48-0.48,1.27,0,1.75
			c0.48,0.48,1.27,0.48,1.75,0C1801.98,1106.07,1801.98,1105.28,1801.49,1104.8 M1801.49,1104.8c-0.48-0.48-1.27-0.48-1.75,0
			c-0.48,0.48-0.48,1.27,0,1.75c0.48,0.48,1.27,0.48,1.75,0C1801.98,1106.07,1801.98,1105.28,1801.49,1104.8 M1789.8,1116.49
			c-0.48-0.48-1.27-0.48-1.75,0c-0.48,0.48-0.48,1.27,0,1.75s1.27,0.48,1.75,0C1790.29,1117.76,1790.29,1116.97,1789.8,1116.49
			 M1789.8,1116.49c-0.48-0.48-1.27-0.48-1.75,0c-0.48,0.48-0.48,1.27,0,1.75s1.27,0.48,1.75,0
			C1790.29,1117.76,1790.29,1116.97,1789.8,1116.49 M1778.11,1128.18c-0.48-0.48-1.27-0.48-1.75,0c-0.48,0.48-0.48,1.27,0,1.75
			c0.48,0.48,1.27,0.48,1.75,0C1778.59,1129.45,1778.59,1128.67,1778.11,1128.18 M1778.11,1128.18c-0.48-0.48-1.27-0.48-1.75,0
			c-0.48,0.48-0.48,1.27,0,1.75c0.48,0.48,1.27,0.48,1.75,0C1778.59,1129.45,1778.59,1128.67,1778.11,1128.18 M1766.42,1139.87
			c-0.48-0.49-1.27-0.49-1.75,0c-0.48,0.48-0.48,1.27,0,1.75c0.48,0.48,1.27,0.48,1.75,0
			C1766.9,1141.14,1766.9,1140.36,1766.42,1139.87 M1766.42,1139.87c-0.48-0.49-1.27-0.49-1.75,0c-0.48,0.48-0.48,1.27,0,1.75
			c0.48,0.48,1.27,0.48,1.75,0C1766.9,1141.14,1766.9,1140.36,1766.42,1139.87 M1754.73,1151.56c-0.48-0.48-1.27-0.48-1.75,0
			c-0.48,0.48-0.48,1.27,0,1.75c0.48,0.48,1.27,0.48,1.75,0C1755.21,1152.83,1755.21,1152.05,1754.73,1151.56 M1754.73,1151.56
			c-0.48-0.48-1.27-0.48-1.75,0c-0.48,0.48-0.48,1.27,0,1.75c0.48,0.48,1.27,0.48,1.75,0
			C1755.21,1152.83,1755.21,1152.05,1754.73,1151.56 M1965.18,964.5c-0.48-0.48-1.27-0.48-1.75,0c-0.48,0.48-0.48,1.27,0,1.75
			c0.48,0.48,1.27,0.48,1.75,0C1965.66,965.77,1965.66,964.98,1965.18,964.5 M1965.18,964.5c-0.48-0.48-1.27-0.48-1.75,0
			c-0.48,0.48-0.48,1.27,0,1.75c0.48,0.48,1.27,0.48,1.75,0C1965.66,965.77,1965.66,964.98,1965.18,964.5 M1953.49,976.19
			c-0.48-0.48-1.27-0.48-1.75,0c-0.48,0.48-0.48,1.27,0,1.75c0.48,0.48,1.27,0.48,1.75,0
			C1953.97,977.46,1953.97,976.67,1953.49,976.19 M1953.49,976.19c-0.48-0.48-1.27-0.48-1.75,0c-0.48,0.48-0.48,1.27,0,1.75
			c0.48,0.48,1.27,0.48,1.75,0C1953.97,977.46,1953.97,976.67,1953.49,976.19 M1941.79,987.88c-0.48-0.48-1.27-0.48-1.75,0
			c-0.48,0.48-0.48,1.27,0,1.75c0.48,0.48,1.27,0.48,1.75,0C1942.28,989.15,1942.28,988.36,1941.79,987.88 M1941.79,987.88
			c-0.48-0.48-1.27-0.48-1.75,0c-0.48,0.48-0.48,1.27,0,1.75c0.48,0.48,1.27,0.48,1.75,0
			C1942.28,989.15,1942.28,988.36,1941.79,987.88 M1930.1,999.57c-0.48-0.49-1.27-0.49-1.75,0c-0.48,0.48-0.48,1.27,0,1.75
			c0.48,0.48,1.27,0.48,1.75,0C1930.59,1000.84,1930.59,1000.06,1930.1,999.57 M1930.1,999.57c-0.48-0.49-1.27-0.49-1.75,0
			c-0.48,0.48-0.48,1.27,0,1.75c0.48,0.48,1.27,0.48,1.75,0C1930.59,1000.84,1930.59,1000.06,1930.1,999.57 M1918.41,1011.26
			c-0.48-0.48-1.27-0.48-1.75,0c-0.48,0.48-0.48,1.27,0,1.75s1.27,0.48,1.75,0S1918.9,1011.75,1918.41,1011.26 M1918.41,1011.26
			c-0.48-0.48-1.27-0.48-1.75,0c-0.48,0.48-0.48,1.27,0,1.75s1.27,0.48,1.75,0S1918.9,1011.75,1918.41,1011.26 M1906.72,1022.95
			c-0.48-0.48-1.27-0.48-1.75,0c-0.49,0.48-0.49,1.27,0,1.75c0.48,0.48,1.27,0.48,1.75,0S1907.2,1023.44,1906.72,1022.95
			 M1906.72,1022.95c-0.48-0.48-1.27-0.48-1.75,0c-0.49,0.48-0.49,1.27,0,1.75c0.48,0.48,1.27,0.48,1.75,0
			S1907.2,1023.44,1906.72,1022.95 M1895.03,1034.65c-0.49-0.48-1.27-0.48-1.75,0c-0.48,0.48-0.48,1.27,0,1.75
			c0.48,0.48,1.27,0.48,1.75,0C1895.51,1035.92,1895.51,1035.13,1895.03,1034.65 M1895.03,1034.65c-0.49-0.48-1.27-0.48-1.75,0
			c-0.48,0.48-0.48,1.27,0,1.75c0.48,0.48,1.27,0.48,1.75,0C1895.51,1035.92,1895.51,1035.13,1895.03,1034.65 M1883.34,1046.34
			c-0.48-0.48-1.27-0.48-1.75,0c-0.48,0.48-0.48,1.27,0,1.75c0.48,0.48,1.27,0.48,1.75,0
			C1883.82,1047.61,1883.82,1046.82,1883.34,1046.34 M1883.34,1046.34c-0.48-0.48-1.27-0.48-1.75,0c-0.48,0.48-0.48,1.27,0,1.75
			c0.48,0.48,1.27,0.48,1.75,0C1883.82,1047.61,1883.82,1046.82,1883.34,1046.34 M1871.64,1058.03c-0.48-0.48-1.27-0.48-1.75,0
			c-0.48,0.48-0.48,1.27,0,1.75c0.48,0.49,1.27,0.49,1.75,0C1872.13,1059.3,1872.13,1058.52,1871.64,1058.03 M1871.64,1058.03
			c-0.48-0.48-1.27-0.48-1.75,0c-0.48,0.48-0.48,1.27,0,1.75c0.48,0.49,1.27,0.49,1.75,0
			C1872.13,1059.3,1872.13,1058.52,1871.64,1058.03 M1859.95,1069.72c-0.48-0.48-1.27-0.48-1.75,0c-0.48,0.48-0.48,1.27,0,1.75
			c0.48,0.48,1.27,0.48,1.75,0C1860.44,1070.99,1860.44,1070.21,1859.95,1069.72 M1859.95,1069.72c-0.48-0.48-1.27-0.48-1.75,0
			c-0.48,0.48-0.48,1.27,0,1.75c0.48,0.48,1.27,0.48,1.75,0C1860.44,1070.99,1860.44,1070.21,1859.95,1069.72 M1848.26,1081.41
			c-0.48-0.48-1.27-0.48-1.75,0c-0.48,0.48-0.48,1.27,0,1.75c0.48,0.48,1.27,0.48,1.75,0
			C1848.75,1082.68,1848.75,1081.9,1848.26,1081.41 M1848.26,1081.41c-0.48-0.48-1.27-0.48-1.75,0c-0.48,0.48-0.48,1.27,0,1.75
			c0.48,0.48,1.27,0.48,1.75,0C1848.75,1082.68,1848.75,1081.9,1848.26,1081.41 M1836.57,1093.11c-0.48-0.48-1.27-0.48-1.75,0
			s-0.48,1.27,0,1.75c0.48,0.48,1.27,0.48,1.75,0C1837.05,1094.38,1837.05,1093.59,1836.57,1093.11 M1836.57,1093.11
			c-0.48-0.48-1.27-0.48-1.75,0s-0.48,1.27,0,1.75c0.48,0.48,1.27,0.48,1.75,0C1837.05,1094.38,1837.05,1093.59,1836.57,1093.11
			 M1824.88,1104.8c-0.48-0.48-1.27-0.48-1.75,0c-0.48,0.48-0.48,1.27,0,1.75c0.48,0.48,1.27,0.48,1.75,0
			C1825.36,1106.07,1825.36,1105.28,1824.88,1104.8 M1824.88,1104.8c-0.48-0.48-1.27-0.48-1.75,0c-0.48,0.48-0.48,1.27,0,1.75
			c0.48,0.48,1.27,0.48,1.75,0C1825.36,1106.07,1825.36,1105.28,1824.88,1104.8 M1813.19,1116.49c-0.48-0.48-1.27-0.48-1.75,0
			c-0.48,0.48-0.48,1.27,0,1.75c0.48,0.48,1.27,0.48,1.75,0S1813.67,1116.97,1813.19,1116.49 M1813.19,1116.49
			c-0.48-0.48-1.27-0.48-1.75,0c-0.48,0.48-0.48,1.27,0,1.75c0.48,0.48,1.27,0.48,1.75,0S1813.67,1116.97,1813.19,1116.49
			 M1801.49,1128.18c-0.48-0.48-1.27-0.48-1.75,0c-0.48,0.48-0.48,1.27,0,1.75c0.48,0.48,1.27,0.48,1.75,0
			C1801.98,1129.45,1801.98,1128.67,1801.49,1128.18 M1801.49,1128.18c-0.48-0.48-1.27-0.48-1.75,0c-0.48,0.48-0.48,1.27,0,1.75
			c0.48,0.48,1.27,0.48,1.75,0C1801.98,1129.45,1801.98,1128.67,1801.49,1128.18 M1789.8,1139.87c-0.48-0.49-1.27-0.49-1.75,0
			c-0.48,0.48-0.48,1.27,0,1.75c0.48,0.48,1.27,0.48,1.75,0C1790.29,1141.14,1790.29,1140.36,1789.8,1139.87 M1789.8,1139.87
			c-0.48-0.49-1.27-0.49-1.75,0c-0.48,0.48-0.48,1.27,0,1.75c0.48,0.48,1.27,0.48,1.75,0
			C1790.29,1141.14,1790.29,1140.36,1789.8,1139.87 M1778.11,1151.56c-0.48-0.48-1.27-0.48-1.75,0c-0.48,0.48-0.48,1.27,0,1.75
			c0.48,0.48,1.27,0.48,1.75,0C1778.59,1152.83,1778.59,1152.05,1778.11,1151.56 M1778.11,1151.56c-0.48-0.48-1.27-0.48-1.75,0
			c-0.48,0.48-0.48,1.27,0,1.75c0.48,0.48,1.27,0.48,1.75,0C1778.59,1152.83,1778.59,1152.05,1778.11,1151.56 M1766.42,1163.26
			c-0.48-0.48-1.27-0.48-1.75,0c-0.48,0.48-0.48,1.27,0,1.75s1.27,0.48,1.75,0S1766.9,1163.74,1766.42,1163.26 M1766.42,1163.26
			c-0.48-0.48-1.27-0.48-1.75,0c-0.48,0.48-0.48,1.27,0,1.75s1.27,0.48,1.75,0S1766.9,1163.74,1766.42,1163.26 M1976.87,976.19
			c-0.48-0.48-1.27-0.48-1.75,0c-0.48,0.48-0.48,1.27,0,1.75c0.48,0.48,1.27,0.48,1.75,0
			C1977.35,977.46,1977.35,976.67,1976.87,976.19 M1976.87,976.19c-0.48-0.48-1.27-0.48-1.75,0c-0.48,0.48-0.48,1.27,0,1.75
			c0.48,0.48,1.27,0.48,1.75,0C1977.35,977.46,1977.35,976.67,1976.87,976.19 M1965.18,987.88c-0.48-0.48-1.27-0.48-1.75,0
			s-0.48,1.27,0,1.75c0.48,0.48,1.27,0.48,1.75,0C1965.66,989.15,1965.66,988.36,1965.18,987.88 M1965.18,987.88
			c-0.48-0.48-1.27-0.48-1.75,0s-0.48,1.27,0,1.75c0.48,0.48,1.27,0.48,1.75,0C1965.66,989.15,1965.66,988.36,1965.18,987.88
			 M1953.49,999.57c-0.48-0.49-1.27-0.49-1.75,0c-0.48,0.48-0.48,1.27,0,1.75c0.48,0.48,1.27,0.48,1.75,0
			C1953.97,1000.84,1953.97,1000.06,1953.49,999.57 M1953.49,999.57c-0.48-0.49-1.27-0.49-1.75,0c-0.48,0.48-0.48,1.27,0,1.75
			c0.48,0.48,1.27,0.48,1.75,0C1953.97,1000.84,1953.97,1000.06,1953.49,999.57 M1941.79,1011.26c-0.48-0.48-1.27-0.48-1.75,0
			c-0.48,0.48-0.48,1.27,0,1.75c0.48,0.48,1.27,0.48,1.75,0C1942.28,1012.53,1942.28,1011.75,1941.79,1011.26 M1941.79,1011.26
			c-0.48-0.48-1.27-0.48-1.75,0c-0.48,0.48-0.48,1.27,0,1.75c0.48,0.48,1.27,0.48,1.75,0
			C1942.28,1012.53,1942.28,1011.75,1941.79,1011.26 M1930.1,1022.95c-0.48-0.48-1.27-0.48-1.75,0c-0.48,0.48-0.48,1.27,0,1.75
			s1.27,0.48,1.75,0C1930.59,1024.22,1930.59,1023.44,1930.1,1022.95 M1930.1,1022.95c-0.48-0.48-1.27-0.48-1.75,0
			c-0.48,0.48-0.48,1.27,0,1.75s1.27,0.48,1.75,0C1930.59,1024.22,1930.59,1023.44,1930.1,1022.95 M1918.41,1034.65
			c-0.48-0.48-1.27-0.48-1.75,0s-0.48,1.27,0,1.75c0.48,0.48,1.27,0.48,1.75,0C1918.9,1035.92,1918.9,1035.13,1918.41,1034.65
			 M1918.41,1034.65c-0.48-0.48-1.27-0.48-1.75,0s-0.48,1.27,0,1.75c0.48,0.48,1.27,0.48,1.75,0
			C1918.9,1035.92,1918.9,1035.13,1918.41,1034.65 M1906.72,1046.34c-0.48-0.48-1.27-0.48-1.75,0c-0.49,0.48-0.49,1.27,0,1.75
			c0.48,0.48,1.27,0.48,1.75,0C1907.2,1047.61,1907.2,1046.82,1906.72,1046.34 M1906.72,1046.34c-0.48-0.48-1.27-0.48-1.75,0
			c-0.49,0.48-0.49,1.27,0,1.75c0.48,0.48,1.27,0.48,1.75,0C1907.2,1047.61,1907.2,1046.82,1906.72,1046.34 M1895.03,1058.03
			c-0.49-0.48-1.27-0.48-1.75,0c-0.48,0.48-0.48,1.27,0,1.75c0.48,0.49,1.27,0.49,1.75,0
			C1895.51,1059.3,1895.51,1058.52,1895.03,1058.03 M1895.03,1058.03c-0.49-0.48-1.27-0.48-1.75,0c-0.48,0.48-0.48,1.27,0,1.75
			c0.48,0.49,1.27,0.49,1.75,0C1895.51,1059.3,1895.51,1058.52,1895.03,1058.03 M1883.34,1069.72c-0.48-0.48-1.27-0.48-1.75,0
			c-0.48,0.48-0.48,1.27,0,1.75c0.48,0.48,1.27,0.48,1.75,0C1883.82,1070.99,1883.82,1070.21,1883.34,1069.72 M1883.34,1069.72
			c-0.48-0.48-1.27-0.48-1.75,0c-0.48,0.48-0.48,1.27,0,1.75c0.48,0.48,1.27,0.48,1.75,0
			C1883.82,1070.99,1883.82,1070.21,1883.34,1069.72 M1871.64,1081.41c-0.48-0.48-1.27-0.48-1.75,0c-0.48,0.48-0.48,1.27,0,1.75
			c0.48,0.48,1.27,0.48,1.75,0C1872.13,1082.68,1872.13,1081.9,1871.64,1081.41 M1871.64,1081.41c-0.48-0.48-1.27-0.48-1.75,0
			c-0.48,0.48-0.48,1.27,0,1.75c0.48,0.48,1.27,0.48,1.75,0C1872.13,1082.68,1872.13,1081.9,1871.64,1081.41 M1859.95,1093.11
			c-0.48-0.48-1.27-0.48-1.75,0c-0.48,0.48-0.48,1.27,0,1.75c0.48,0.48,1.27,0.48,1.75,0
			C1860.44,1094.38,1860.44,1093.59,1859.95,1093.11 M1859.95,1093.11c-0.48-0.48-1.27-0.48-1.75,0c-0.48,0.48-0.48,1.27,0,1.75
			c0.48,0.48,1.27,0.48,1.75,0C1860.44,1094.38,1860.44,1093.59,1859.95,1093.11 M1848.26,1104.8c-0.48-0.48-1.27-0.48-1.75,0
			c-0.48,0.48-0.48,1.27,0,1.75c0.48,0.48,1.27,0.48,1.75,0C1848.75,1106.07,1848.75,1105.28,1848.26,1104.8 M1848.26,1104.8
			c-0.48-0.48-1.27-0.48-1.75,0c-0.48,0.48-0.48,1.27,0,1.75c0.48,0.48,1.27,0.48,1.75,0
			C1848.75,1106.07,1848.75,1105.28,1848.26,1104.8 M1836.57,1116.49c-0.48-0.48-1.27-0.48-1.75,0c-0.48,0.48-0.48,1.27,0,1.75
			s1.27,0.48,1.75,0C1837.05,1117.76,1837.05,1116.97,1836.57,1116.49 M1836.57,1116.49c-0.48-0.48-1.27-0.48-1.75,0
			c-0.48,0.48-0.48,1.27,0,1.75s1.27,0.48,1.75,0C1837.05,1117.76,1837.05,1116.97,1836.57,1116.49 M1824.88,1128.18
			c-0.48-0.48-1.27-0.48-1.75,0s-0.48,1.27,0,1.75c0.48,0.48,1.27,0.48,1.75,0C1825.36,1129.45,1825.36,1128.67,1824.88,1128.18
			 M1824.88,1128.18c-0.48-0.48-1.27-0.48-1.75,0s-0.48,1.27,0,1.75c0.48,0.48,1.27,0.48,1.75,0
			C1825.36,1129.45,1825.36,1128.67,1824.88,1128.18 M1813.19,1139.87c-0.48-0.49-1.27-0.49-1.75,0c-0.48,0.48-0.48,1.27,0,1.75
			c0.48,0.48,1.27,0.48,1.75,0C1813.67,1141.14,1813.67,1140.36,1813.19,1139.87 M1813.19,1139.87c-0.48-0.49-1.27-0.49-1.75,0
			c-0.48,0.48-0.48,1.27,0,1.75c0.48,0.48,1.27,0.48,1.75,0C1813.67,1141.14,1813.67,1140.36,1813.19,1139.87 M1801.49,1151.56
			c-0.48-0.48-1.27-0.48-1.75,0c-0.48,0.48-0.48,1.27,0,1.75c0.48,0.48,1.27,0.48,1.75,0
			C1801.98,1152.83,1801.98,1152.05,1801.49,1151.56 M1801.49,1151.56c-0.48-0.48-1.27-0.48-1.75,0c-0.48,0.48-0.48,1.27,0,1.75
			c0.48,0.48,1.27,0.48,1.75,0C1801.98,1152.83,1801.98,1152.05,1801.49,1151.56 M1789.8,1163.26c-0.48-0.48-1.27-0.48-1.75,0
			c-0.48,0.48-0.48,1.27,0,1.75s1.27,0.48,1.75,0C1790.29,1164.53,1790.29,1163.74,1789.8,1163.26 M1789.8,1163.26
			c-0.48-0.48-1.27-0.48-1.75,0c-0.48,0.48-0.48,1.27,0,1.75s1.27,0.48,1.75,0C1790.29,1164.53,1790.29,1163.74,1789.8,1163.26
			 M1778.11,1174.95c-0.48-0.48-1.27-0.48-1.75,0c-0.48,0.48-0.48,1.27,0,1.75c0.48,0.48,1.27,0.48,1.75,0
			S1778.59,1175.43,1778.11,1174.95 M1778.11,1174.95c-0.48-0.48-1.27-0.48-1.75,0c-0.48,0.48-0.48,1.27,0,1.75
			c0.48,0.48,1.27,0.48,1.75,0S1778.59,1175.43,1778.11,1174.95 M1988.56,987.88c-0.48-0.48-1.27-0.48-1.75,0s-0.48,1.27,0,1.75
			c0.48,0.48,1.27,0.48,1.75,0C1989.05,989.15,1989.05,988.36,1988.56,987.88 M1988.56,987.88c-0.48-0.48-1.27-0.48-1.75,0
			s-0.48,1.27,0,1.75c0.48,0.48,1.27,0.48,1.75,0C1989.05,989.15,1989.05,988.36,1988.56,987.88 M1976.87,999.57
			c-0.48-0.49-1.27-0.49-1.75,0c-0.48,0.48-0.48,1.27,0,1.75c0.48,0.48,1.27,0.48,1.75,0
			C1977.35,1000.84,1977.35,1000.06,1976.87,999.57 M1976.87,999.57c-0.48-0.49-1.27-0.49-1.75,0c-0.48,0.48-0.48,1.27,0,1.75
			c0.48,0.48,1.27,0.48,1.75,0C1977.35,1000.84,1977.35,1000.06,1976.87,999.57 M1965.18,1011.26c-0.48-0.48-1.27-0.48-1.75,0
			c-0.48,0.48-0.48,1.27,0,1.75s1.27,0.48,1.75,0S1965.66,1011.75,1965.18,1011.26 M1965.18,1011.26c-0.48-0.48-1.27-0.48-1.75,0
			c-0.48,0.48-0.48,1.27,0,1.75s1.27,0.48,1.75,0S1965.66,1011.75,1965.18,1011.26 M1953.49,1022.95c-0.48-0.48-1.27-0.48-1.75,0
			c-0.48,0.48-0.48,1.27,0,1.75c0.48,0.48,1.27,0.48,1.75,0C1953.97,1024.22,1953.97,1023.44,1953.49,1022.95 M1953.49,1022.95
			c-0.48-0.48-1.27-0.48-1.75,0c-0.48,0.48-0.48,1.27,0,1.75c0.48,0.48,1.27,0.48,1.75,0
			C1953.97,1024.22,1953.97,1023.44,1953.49,1022.95 M1941.79,1034.65c-0.48-0.48-1.27-0.48-1.75,0c-0.48,0.48-0.48,1.27,0,1.75
			c0.48,0.48,1.27,0.48,1.75,0C1942.28,1035.92,1942.28,1035.13,1941.79,1034.65 M1941.79,1034.65c-0.48-0.48-1.27-0.48-1.75,0
			c-0.48,0.48-0.48,1.27,0,1.75c0.48,0.48,1.27,0.48,1.75,0C1942.28,1035.92,1942.28,1035.13,1941.79,1034.65 M1930.1,1046.34
			c-0.48-0.48-1.27-0.48-1.75,0c-0.48,0.48-0.48,1.27,0,1.75c0.48,0.48,1.27,0.48,1.75,0
			C1930.59,1047.61,1930.59,1046.82,1930.1,1046.34 M1930.1,1046.34c-0.48-0.48-1.27-0.48-1.75,0c-0.48,0.48-0.48,1.27,0,1.75
			c0.48,0.48,1.27,0.48,1.75,0C1930.59,1047.61,1930.59,1046.82,1930.1,1046.34 M1918.41,1058.03c-0.48-0.48-1.27-0.48-1.75,0
			c-0.48,0.48-0.48,1.27,0,1.75c0.48,0.49,1.27,0.49,1.75,0C1918.9,1059.3,1918.9,1058.52,1918.41,1058.03 M1918.41,1058.03
			c-0.48-0.48-1.27-0.48-1.75,0c-0.48,0.48-0.48,1.27,0,1.75c0.48,0.49,1.27,0.49,1.75,0
			C1918.9,1059.3,1918.9,1058.52,1918.41,1058.03 M1906.72,1069.72c-0.48-0.48-1.27-0.48-1.75,0c-0.49,0.48-0.49,1.27,0,1.75
			c0.48,0.48,1.27,0.48,1.75,0S1907.2,1070.21,1906.72,1069.72 M1906.72,1069.72c-0.48-0.48-1.27-0.48-1.75,0
			c-0.49,0.48-0.49,1.27,0,1.75c0.48,0.48,1.27,0.48,1.75,0S1907.2,1070.21,1906.72,1069.72 M1895.03,1081.41
			c-0.49-0.48-1.27-0.48-1.75,0c-0.48,0.48-0.48,1.27,0,1.75c0.48,0.48,1.27,0.48,1.75,0
			C1895.51,1082.68,1895.51,1081.9,1895.03,1081.41 M1895.03,1081.41c-0.49-0.48-1.27-0.48-1.75,0c-0.48,0.48-0.48,1.27,0,1.75
			c0.48,0.48,1.27,0.48,1.75,0C1895.51,1082.68,1895.51,1081.9,1895.03,1081.41 M1883.34,1093.11c-0.48-0.48-1.27-0.48-1.75,0
			c-0.48,0.48-0.48,1.27,0,1.75c0.48,0.48,1.27,0.48,1.75,0C1883.82,1094.38,1883.82,1093.59,1883.34,1093.11 M1883.34,1093.11
			c-0.48-0.48-1.27-0.48-1.75,0c-0.48,0.48-0.48,1.27,0,1.75c0.48,0.48,1.27,0.48,1.75,0
			C1883.82,1094.38,1883.82,1093.59,1883.34,1093.11 M1871.64,1104.8c-0.48-0.48-1.27-0.48-1.75,0c-0.48,0.48-0.48,1.27,0,1.75
			c0.48,0.48,1.27,0.48,1.75,0C1872.13,1106.07,1872.13,1105.28,1871.64,1104.8 M1871.64,1104.8c-0.48-0.48-1.27-0.48-1.75,0
			c-0.48,0.48-0.48,1.27,0,1.75c0.48,0.48,1.27,0.48,1.75,0C1872.13,1106.07,1872.13,1105.28,1871.64,1104.8 M1859.95,1116.49
			c-0.48-0.48-1.27-0.48-1.75,0c-0.48,0.48-0.48,1.27,0,1.75c0.48,0.48,1.27,0.48,1.75,0
			C1860.44,1117.76,1860.44,1116.97,1859.95,1116.49 M1859.95,1116.49c-0.48-0.48-1.27-0.48-1.75,0c-0.48,0.48-0.48,1.27,0,1.75
			c0.48,0.48,1.27,0.48,1.75,0C1860.44,1117.76,1860.44,1116.97,1859.95,1116.49 M1848.26,1128.18c-0.48-0.48-1.27-0.48-1.75,0
			c-0.48,0.48-0.48,1.27,0,1.75c0.48,0.48,1.27,0.48,1.75,0C1848.75,1129.45,1848.75,1128.67,1848.26,1128.18 M1848.26,1128.18
			c-0.48-0.48-1.27-0.48-1.75,0c-0.48,0.48-0.48,1.27,0,1.75c0.48,0.48,1.27,0.48,1.75,0
			C1848.75,1129.45,1848.75,1128.67,1848.26,1128.18 M1836.57,1139.87c-0.48-0.49-1.27-0.49-1.75,0c-0.48,0.48-0.48,1.27,0,1.75
			c0.48,0.48,1.27,0.48,1.75,0C1837.05,1141.14,1837.05,1140.36,1836.57,1139.87 M1836.57,1139.87c-0.48-0.49-1.27-0.49-1.75,0
			c-0.48,0.48-0.48,1.27,0,1.75c0.48,0.48,1.27,0.48,1.75,0C1837.05,1141.14,1837.05,1140.36,1836.57,1139.87 M1824.88,1151.56
			c-0.48-0.48-1.27-0.48-1.75,0c-0.48,0.48-0.48,1.27,0,1.75c0.48,0.48,1.27,0.48,1.75,0
			C1825.36,1152.83,1825.36,1152.05,1824.88,1151.56 M1824.88,1151.56c-0.48-0.48-1.27-0.48-1.75,0c-0.48,0.48-0.48,1.27,0,1.75
			c0.48,0.48,1.27,0.48,1.75,0C1825.36,1152.83,1825.36,1152.05,1824.88,1151.56 M1813.19,1163.26c-0.48-0.48-1.27-0.48-1.75,0
			c-0.48,0.48-0.48,1.27,0,1.75c0.48,0.48,1.27,0.48,1.75,0S1813.67,1163.74,1813.19,1163.26 M1813.19,1163.26
			c-0.48-0.48-1.27-0.48-1.75,0c-0.48,0.48-0.48,1.27,0,1.75c0.48,0.48,1.27,0.48,1.75,0S1813.67,1163.74,1813.19,1163.26
			 M1801.49,1174.95c-0.48-0.48-1.27-0.48-1.75,0c-0.48,0.48-0.48,1.27,0,1.75c0.48,0.48,1.27,0.48,1.75,0
			C1801.98,1176.22,1801.98,1175.43,1801.49,1174.95 M1801.49,1174.95c-0.48-0.48-1.27-0.48-1.75,0c-0.48,0.48-0.48,1.27,0,1.75
			c0.48,0.48,1.27,0.48,1.75,0C1801.98,1176.22,1801.98,1175.43,1801.49,1174.95 M1789.8,1186.64c-0.48-0.48-1.27-0.48-1.75,0
			s-0.48,1.27,0,1.75c0.48,0.48,1.27,0.48,1.75,0C1790.29,1187.91,1790.29,1187.12,1789.8,1186.64 M1789.8,1186.64
			c-0.48-0.48-1.27-0.48-1.75,0s-0.48,1.27,0,1.75c0.48,0.48,1.27,0.48,1.75,0C1790.29,1187.91,1790.29,1187.12,1789.8,1186.64
			 M2000.25,999.57c-0.48-0.49-1.27-0.49-1.75,0c-0.48,0.48-0.48,1.27,0,1.75c0.48,0.48,1.27,0.48,1.75,0
			C2000.74,1000.84,2000.74,1000.06,2000.25,999.57 M2000.25,999.57c-0.48-0.49-1.27-0.49-1.75,0c-0.48,0.48-0.48,1.27,0,1.75
			c0.48,0.48,1.27,0.48,1.75,0C2000.74,1000.84,2000.74,1000.06,2000.25,999.57 M1988.56,1011.26c-0.48-0.48-1.27-0.48-1.75,0
			c-0.48,0.48-0.48,1.27,0,1.75s1.27,0.48,1.75,0C1989.05,1012.53,1989.05,1011.75,1988.56,1011.26 M1988.56,1011.26
			c-0.48-0.48-1.27-0.48-1.75,0c-0.48,0.48-0.48,1.27,0,1.75s1.27,0.48,1.75,0C1989.05,1012.53,1989.05,1011.75,1988.56,1011.26
			 M1976.87,1022.95c-0.48-0.48-1.27-0.48-1.75,0c-0.48,0.48-0.48,1.27,0,1.75c0.48,0.48,1.27,0.48,1.75,0
			C1977.35,1024.22,1977.35,1023.44,1976.87,1022.95 M1976.87,1022.95c-0.48-0.48-1.27-0.48-1.75,0c-0.48,0.48-0.48,1.27,0,1.75
			c0.48,0.48,1.27,0.48,1.75,0C1977.35,1024.22,1977.35,1023.44,1976.87,1022.95 M1965.18,1034.65c-0.48-0.48-1.27-0.48-1.75,0
			s-0.48,1.27,0,1.75c0.48,0.48,1.27,0.48,1.75,0C1965.66,1035.92,1965.66,1035.13,1965.18,1034.65 M1965.18,1034.65
			c-0.48-0.48-1.27-0.48-1.75,0s-0.48,1.27,0,1.75c0.48,0.48,1.27,0.48,1.75,0C1965.66,1035.92,1965.66,1035.13,1965.18,1034.65
			 M1953.49,1046.34c-0.48-0.48-1.27-0.48-1.75,0c-0.48,0.48-0.48,1.27,0,1.75c0.48,0.48,1.27,0.48,1.75,0
			C1953.97,1047.61,1953.97,1046.82,1953.49,1046.34 M1953.49,1046.34c-0.48-0.48-1.27-0.48-1.75,0c-0.48,0.48-0.48,1.27,0,1.75
			c0.48,0.48,1.27,0.48,1.75,0C1953.97,1047.61,1953.97,1046.82,1953.49,1046.34 M1941.79,1058.03c-0.48-0.48-1.27-0.48-1.75,0
			c-0.48,0.48-0.48,1.27,0,1.75c0.48,0.49,1.27,0.49,1.75,0C1942.28,1059.3,1942.28,1058.52,1941.79,1058.03 M1941.79,1058.03
			c-0.48-0.48-1.27-0.48-1.75,0c-0.48,0.48-0.48,1.27,0,1.75c0.48,0.49,1.27,0.49,1.75,0
			C1942.28,1059.3,1942.28,1058.52,1941.79,1058.03 M1930.1,1069.72c-0.48-0.48-1.27-0.48-1.75,0c-0.48,0.48-0.48,1.27,0,1.75
			s1.27,0.48,1.75,0C1930.59,1070.99,1930.59,1070.21,1930.1,1069.72 M1930.1,1069.72c-0.48-0.48-1.27-0.48-1.75,0
			c-0.48,0.48-0.48,1.27,0,1.75s1.27,0.48,1.75,0C1930.59,1070.99,1930.59,1070.21,1930.1,1069.72 M1918.41,1081.41
			c-0.48-0.48-1.27-0.48-1.75,0c-0.48,0.48-0.48,1.27,0,1.75c0.48,0.48,1.27,0.48,1.75,0
			C1918.9,1082.68,1918.9,1081.9,1918.41,1081.41 M1918.41,1081.41c-0.48-0.48-1.27-0.48-1.75,0c-0.48,0.48-0.48,1.27,0,1.75
			c0.48,0.48,1.27,0.48,1.75,0C1918.9,1082.68,1918.9,1081.9,1918.41,1081.41 M1906.72,1093.11c-0.48-0.48-1.27-0.48-1.75,0
			c-0.49,0.48-0.49,1.27,0,1.75c0.48,0.48,1.27,0.48,1.75,0C1907.2,1094.38,1907.2,1093.59,1906.72,1093.11 M1906.72,1093.11
			c-0.48-0.48-1.27-0.48-1.75,0c-0.49,0.48-0.49,1.27,0,1.75c0.48,0.48,1.27,0.48,1.75,0
			C1907.2,1094.38,1907.2,1093.59,1906.72,1093.11 M1895.03,1104.8c-0.49-0.48-1.27-0.48-1.75,0c-0.48,0.48-0.48,1.27,0,1.75
			c0.48,0.48,1.27,0.48,1.75,0C1895.51,1106.07,1895.51,1105.28,1895.03,1104.8 M1895.03,1104.8c-0.49-0.48-1.27-0.48-1.75,0
			c-0.48,0.48-0.48,1.27,0,1.75c0.48,0.48,1.27,0.48,1.75,0C1895.51,1106.07,1895.51,1105.28,1895.03,1104.8 M1883.34,1116.49
			c-0.48-0.48-1.27-0.48-1.75,0c-0.48,0.48-0.48,1.27,0,1.75c0.48,0.48,1.27,0.48,1.75,0
			C1883.82,1117.76,1883.82,1116.97,1883.34,1116.49 M1883.34,1116.49c-0.48-0.48-1.27-0.48-1.75,0c-0.48,0.48-0.48,1.27,0,1.75
			c0.48,0.48,1.27,0.48,1.75,0C1883.82,1117.76,1883.82,1116.97,1883.34,1116.49 M1871.64,1128.18c-0.48-0.48-1.27-0.48-1.75,0
			s-0.48,1.27,0,1.75c0.48,0.48,1.27,0.48,1.75,0C1872.13,1129.45,1872.13,1128.67,1871.64,1128.18 M1871.64,1128.18
			c-0.48-0.48-1.27-0.48-1.75,0s-0.48,1.27,0,1.75c0.48,0.48,1.27,0.48,1.75,0C1872.13,1129.45,1872.13,1128.67,1871.64,1128.18
			 M1859.95,1139.87c-0.48-0.49-1.27-0.49-1.75,0c-0.48,0.48-0.48,1.27,0,1.75c0.48,0.48,1.27,0.48,1.75,0
			C1860.44,1141.14,1860.44,1140.36,1859.95,1139.87 M1859.95,1139.87c-0.48-0.49-1.27-0.49-1.75,0c-0.48,0.48-0.48,1.27,0,1.75
			c0.48,0.48,1.27,0.48,1.75,0C1860.44,1141.14,1860.44,1140.36,1859.95,1139.87 M1848.26,1151.56c-0.48-0.48-1.27-0.48-1.75,0
			c-0.48,0.48-0.48,1.27,0,1.75c0.48,0.48,1.27,0.48,1.75,0C1848.75,1152.83,1848.75,1152.05,1848.26,1151.56 M1848.26,1151.56
			c-0.48-0.48-1.27-0.48-1.75,0c-0.48,0.48-0.48,1.27,0,1.75c0.48,0.48,1.27,0.48,1.75,0
			C1848.75,1152.83,1848.75,1152.05,1848.26,1151.56 M1836.57,1163.26c-0.48-0.48-1.27-0.48-1.75,0c-0.48,0.48-0.48,1.27,0,1.75
			s1.27,0.48,1.75,0C1837.05,1164.53,1837.05,1163.74,1836.57,1163.26 M1836.57,1163.26c-0.48-0.48-1.27-0.48-1.75,0
			c-0.48,0.48-0.48,1.27,0,1.75s1.27,0.48,1.75,0C1837.05,1164.53,1837.05,1163.74,1836.57,1163.26 M1824.88,1174.95
			c-0.48-0.48-1.27-0.48-1.75,0s-0.48,1.27,0,1.75s1.27,0.48,1.75,0C1825.36,1176.22,1825.36,1175.43,1824.88,1174.95
			 M1824.88,1174.95c-0.48-0.48-1.27-0.48-1.75,0s-0.48,1.27,0,1.75s1.27,0.48,1.75,0
			C1825.36,1176.22,1825.36,1175.43,1824.88,1174.95 M1813.19,1186.64c-0.48-0.48-1.27-0.48-1.75,0c-0.48,0.48-0.48,1.27,0,1.75
			c0.48,0.48,1.27,0.48,1.75,0C1813.67,1187.91,1813.67,1187.12,1813.19,1186.64 M1813.19,1186.64c-0.48-0.48-1.27-0.48-1.75,0
			c-0.48,0.48-0.48,1.27,0,1.75c0.48,0.48,1.27,0.48,1.75,0C1813.67,1187.91,1813.67,1187.12,1813.19,1186.64 M1801.49,1198.33
			c-0.48-0.48-1.27-0.48-1.75,0c-0.48,0.48-0.48,1.27,0,1.75c0.48,0.48,1.27,0.48,1.75,0
			C1801.98,1199.6,1801.98,1198.82,1801.49,1198.33 M1801.49,1198.33c-0.48-0.48-1.27-0.48-1.75,0c-0.48,0.48-0.48,1.27,0,1.75
			c0.48,0.48,1.27,0.48,1.75,0C1801.98,1199.6,1801.98,1198.82,1801.49,1198.33 M2011.95,1011.26c-0.48-0.48-1.27-0.48-1.75,0
			c-0.48,0.48-0.48,1.27,0,1.75c0.48,0.48,1.27,0.48,1.75,0S2012.43,1011.75,2011.95,1011.26 M2011.95,1011.26
			c-0.48-0.48-1.27-0.48-1.75,0c-0.48,0.48-0.48,1.27,0,1.75c0.48,0.48,1.27,0.48,1.75,0S2012.43,1011.75,2011.95,1011.26
			 M2000.25,1022.95c-0.48-0.48-1.27-0.48-1.75,0c-0.48,0.48-0.48,1.27,0,1.75c0.48,0.48,1.27,0.48,1.75,0
			C2000.74,1024.22,2000.74,1023.44,2000.25,1022.95 M2000.25,1022.95c-0.48-0.48-1.27-0.48-1.75,0c-0.48,0.48-0.48,1.27,0,1.75
			c0.48,0.48,1.27,0.48,1.75,0C2000.74,1024.22,2000.74,1023.44,2000.25,1022.95 M1988.56,1034.65c-0.48-0.48-1.27-0.48-1.75,0
			s-0.48,1.27,0,1.75c0.48,0.48,1.27,0.48,1.75,0C1989.05,1035.92,1989.05,1035.13,1988.56,1034.65 M1988.56,1034.65
			c-0.48-0.48-1.27-0.48-1.75,0s-0.48,1.27,0,1.75c0.48,0.48,1.27,0.48,1.75,0C1989.05,1035.92,1989.05,1035.13,1988.56,1034.65
			 M1976.87,1046.34c-0.48-0.48-1.27-0.48-1.75,0c-0.48,0.48-0.48,1.27,0,1.75c0.48,0.48,1.27,0.48,1.75,0
			C1977.35,1047.61,1977.35,1046.82,1976.87,1046.34 M1976.87,1046.34c-0.48-0.48-1.27-0.48-1.75,0c-0.48,0.48-0.48,1.27,0,1.75
			c0.48,0.48,1.27,0.48,1.75,0C1977.35,1047.61,1977.35,1046.82,1976.87,1046.34 M1965.18,1058.03c-0.48-0.48-1.27-0.48-1.75,0
			c-0.48,0.48-0.48,1.27,0,1.75c0.48,0.49,1.27,0.49,1.75,0C1965.66,1059.3,1965.66,1058.52,1965.18,1058.03 M1965.18,1058.03
			c-0.48-0.48-1.27-0.48-1.75,0c-0.48,0.48-0.48,1.27,0,1.75c0.48,0.49,1.27,0.49,1.75,0
			C1965.66,1059.3,1965.66,1058.52,1965.18,1058.03 M1953.49,1069.72c-0.48-0.48-1.27-0.48-1.75,0c-0.48,0.48-0.48,1.27,0,1.75
			c0.48,0.48,1.27,0.48,1.75,0C1953.97,1070.99,1953.97,1070.21,1953.49,1069.72 M1953.49,1069.72c-0.48-0.48-1.27-0.48-1.75,0
			c-0.48,0.48-0.48,1.27,0,1.75c0.48,0.48,1.27,0.48,1.75,0C1953.97,1070.99,1953.97,1070.21,1953.49,1069.72 M1941.79,1081.41
			c-0.48-0.48-1.27-0.48-1.75,0c-0.48,0.48-0.48,1.27,0,1.75c0.48,0.48,1.27,0.48,1.75,0
			C1942.28,1082.68,1942.28,1081.9,1941.79,1081.41 M1941.79,1081.41c-0.48-0.48-1.27-0.48-1.75,0c-0.48,0.48-0.48,1.27,0,1.75
			c0.48,0.48,1.27,0.48,1.75,0C1942.28,1082.68,1942.28,1081.9,1941.79,1081.41 M1930.1,1093.11c-0.48-0.48-1.27-0.48-1.75,0
			s-0.48,1.27,0,1.75c0.48,0.48,1.27,0.48,1.75,0C1930.59,1094.38,1930.59,1093.59,1930.1,1093.11 M1930.1,1093.11
			c-0.48-0.48-1.27-0.48-1.75,0s-0.48,1.27,0,1.75c0.48,0.48,1.27,0.48,1.75,0C1930.59,1094.38,1930.59,1093.59,1930.1,1093.11
			 M1918.41,1104.8c-0.48-0.48-1.27-0.48-1.75,0c-0.48,0.48-0.48,1.27,0,1.75c0.48,0.48,1.27,0.48,1.75,0
			C1918.9,1106.07,1918.9,1105.28,1918.41,1104.8 M1918.41,1104.8c-0.48-0.48-1.27-0.48-1.75,0c-0.48,0.48-0.48,1.27,0,1.75
			c0.48,0.48,1.27,0.48,1.75,0C1918.9,1106.07,1918.9,1105.28,1918.41,1104.8 M1906.72,1116.49c-0.48-0.48-1.27-0.48-1.75,0
			c-0.49,0.48-0.49,1.27,0,1.75c0.48,0.48,1.27,0.48,1.75,0S1907.2,1116.97,1906.72,1116.49 M1906.72,1116.49
			c-0.48-0.48-1.27-0.48-1.75,0c-0.49,0.48-0.49,1.27,0,1.75c0.48,0.48,1.27,0.48,1.75,0S1907.2,1116.97,1906.72,1116.49
			 M1895.03,1128.18c-0.49-0.48-1.27-0.48-1.75,0c-0.48,0.48-0.48,1.27,0,1.75c0.48,0.48,1.27,0.48,1.75,0
			C1895.51,1129.45,1895.51,1128.67,1895.03,1128.18 M1895.03,1128.18c-0.49-0.48-1.27-0.48-1.75,0c-0.48,0.48-0.48,1.27,0,1.75
			c0.48,0.48,1.27,0.48,1.75,0C1895.51,1129.45,1895.51,1128.67,1895.03,1128.18 M1883.34,1139.87c-0.48-0.49-1.27-0.49-1.75,0
			c-0.48,0.48-0.48,1.27,0,1.75c0.48,0.48,1.27,0.48,1.75,0C1883.82,1141.14,1883.82,1140.36,1883.34,1139.87 M1883.34,1139.87
			c-0.48-0.49-1.27-0.49-1.75,0c-0.48,0.48-0.48,1.27,0,1.75c0.48,0.48,1.27,0.48,1.75,0
			C1883.82,1141.14,1883.82,1140.36,1883.34,1139.87 M1871.64,1151.56c-0.48-0.48-1.27-0.48-1.75,0c-0.48,0.48-0.48,1.27,0,1.75
			c0.48,0.48,1.27,0.48,1.75,0C1872.13,1152.83,1872.13,1152.05,1871.64,1151.56 M1871.64,1151.56c-0.48-0.48-1.27-0.48-1.75,0
			c-0.48,0.48-0.48,1.27,0,1.75c0.48,0.48,1.27,0.48,1.75,0C1872.13,1152.83,1872.13,1152.05,1871.64,1151.56 M1859.95,1163.26
			c-0.48-0.48-1.27-0.48-1.75,0c-0.48,0.48-0.48,1.27,0,1.75c0.48,0.48,1.27,0.48,1.75,0
			C1860.44,1164.53,1860.44,1163.74,1859.95,1163.26 M1859.95,1163.26c-0.48-0.48-1.27-0.48-1.75,0c-0.48,0.48-0.48,1.27,0,1.75
			c0.48,0.48,1.27,0.48,1.75,0C1860.44,1164.53,1860.44,1163.74,1859.95,1163.26 M1848.26,1174.95c-0.48-0.48-1.27-0.48-1.75,0
			c-0.48,0.48-0.48,1.27,0,1.75c0.48,0.48,1.27,0.48,1.75,0C1848.75,1176.22,1848.75,1175.43,1848.26,1174.95 M1848.26,1174.95
			c-0.48-0.48-1.27-0.48-1.75,0c-0.48,0.48-0.48,1.27,0,1.75c0.48,0.48,1.27,0.48,1.75,0
			C1848.75,1176.22,1848.75,1175.43,1848.26,1174.95 M1836.57,1186.64c-0.48-0.48-1.27-0.48-1.75,0s-0.48,1.27,0,1.75
			c0.48,0.48,1.27,0.48,1.75,0C1837.05,1187.91,1837.05,1187.12,1836.57,1186.64 M1836.57,1186.64c-0.48-0.48-1.27-0.48-1.75,0
			s-0.48,1.27,0,1.75c0.48,0.48,1.27,0.48,1.75,0C1837.05,1187.91,1837.05,1187.12,1836.57,1186.64 M1824.88,1198.33
			c-0.48-0.48-1.27-0.48-1.75,0c-0.48,0.48-0.48,1.27,0,1.75c0.48,0.48,1.27,0.48,1.75,0
			C1825.36,1199.6,1825.36,1198.82,1824.88,1198.33 M1824.88,1198.33c-0.48-0.48-1.27-0.48-1.75,0c-0.48,0.48-0.48,1.27,0,1.75
			c0.48,0.48,1.27,0.48,1.75,0C1825.36,1199.6,1825.36,1198.82,1824.88,1198.33 M1813.19,1210.02c-0.48-0.48-1.27-0.48-1.75,0
			c-0.48,0.49-0.48,1.27,0,1.75c0.48,0.48,1.27,0.48,1.75,0S1813.67,1210.51,1813.19,1210.02 M1813.19,1210.02
			c-0.48-0.48-1.27-0.48-1.75,0c-0.48,0.49-0.48,1.27,0,1.75c0.48,0.48,1.27,0.48,1.75,0S1813.67,1210.51,1813.19,1210.02
			 M2023.64,1022.95c-0.48-0.48-1.27-0.48-1.75,0c-0.48,0.48-0.48,1.27,0,1.75s1.27,0.48,1.75,0
			C2024.12,1024.22,2024.12,1023.44,2023.64,1022.95 M2023.64,1022.95c-0.48-0.48-1.27-0.48-1.75,0c-0.48,0.48-0.48,1.27,0,1.75
			s1.27,0.48,1.75,0C2024.12,1024.22,2024.12,1023.44,2023.64,1022.95 M2011.95,1034.65c-0.48-0.48-1.27-0.48-1.75,0
			c-0.48,0.48-0.48,1.27,0,1.75c0.48,0.48,1.27,0.48,1.75,0C2012.43,1035.92,2012.43,1035.13,2011.95,1034.65 M2011.95,1034.65
			c-0.48-0.48-1.27-0.48-1.75,0c-0.48,0.48-0.48,1.27,0,1.75c0.48,0.48,1.27,0.48,1.75,0
			C2012.43,1035.92,2012.43,1035.13,2011.95,1034.65 M2000.25,1046.34c-0.48-0.48-1.27-0.48-1.75,0c-0.48,0.48-0.48,1.27,0,1.75
			c0.48,0.48,1.27,0.48,1.75,0C2000.74,1047.61,2000.74,1046.82,2000.25,1046.34 M2000.25,1046.34c-0.48-0.48-1.27-0.48-1.75,0
			c-0.48,0.48-0.48,1.27,0,1.75c0.48,0.48,1.27,0.48,1.75,0C2000.74,1047.61,2000.74,1046.82,2000.25,1046.34 M1988.56,1058.03
			c-0.48-0.48-1.27-0.48-1.75,0c-0.48,0.48-0.48,1.27,0,1.75c0.48,0.49,1.27,0.49,1.75,0
			C1989.05,1059.3,1989.05,1058.52,1988.56,1058.03 M1988.56,1058.03c-0.48-0.48-1.27-0.48-1.75,0c-0.48,0.48-0.48,1.27,0,1.75
			c0.48,0.49,1.27,0.49,1.75,0C1989.05,1059.3,1989.05,1058.52,1988.56,1058.03 M1976.87,1069.72c-0.48-0.48-1.27-0.48-1.75,0
			c-0.48,0.48-0.48,1.27,0,1.75c0.48,0.48,1.27,0.48,1.75,0C1977.35,1070.99,1977.35,1070.21,1976.87,1069.72 M1976.87,1069.72
			c-0.48-0.48-1.27-0.48-1.75,0c-0.48,0.48-0.48,1.27,0,1.75c0.48,0.48,1.27,0.48,1.75,0
			C1977.35,1070.99,1977.35,1070.21,1976.87,1069.72 M1965.18,1081.41c-0.48-0.48-1.27-0.48-1.75,0c-0.48,0.48-0.48,1.27,0,1.75
			c0.48,0.48,1.27,0.48,1.75,0C1965.66,1082.68,1965.66,1081.9,1965.18,1081.41 M1965.18,1081.41c-0.48-0.48-1.27-0.48-1.75,0
			c-0.48,0.48-0.48,1.27,0,1.75c0.48,0.48,1.27,0.48,1.75,0C1965.66,1082.68,1965.66,1081.9,1965.18,1081.41 M1953.49,1093.11
			c-0.48-0.48-1.27-0.48-1.75,0c-0.48,0.48-0.48,1.27,0,1.75c0.48,0.48,1.27,0.48,1.75,0
			C1953.97,1094.38,1953.97,1093.59,1953.49,1093.11 M1953.49,1093.11c-0.48-0.48-1.27-0.48-1.75,0c-0.48,0.48-0.48,1.27,0,1.75
			c0.48,0.48,1.27,0.48,1.75,0C1953.97,1094.38,1953.97,1093.59,1953.49,1093.11 M1941.79,1104.8c-0.48-0.48-1.27-0.48-1.75,0
			c-0.48,0.48-0.48,1.27,0,1.75c0.48,0.48,1.27,0.48,1.75,0C1942.28,1106.07,1942.28,1105.28,1941.79,1104.8 M1941.79,1104.8
			c-0.48-0.48-1.27-0.48-1.75,0c-0.48,0.48-0.48,1.27,0,1.75c0.48,0.48,1.27,0.48,1.75,0
			C1942.28,1106.07,1942.28,1105.28,1941.79,1104.8 M1930.1,1116.49c-0.48-0.48-1.27-0.48-1.75,0c-0.48,0.48-0.48,1.27,0,1.75
			s1.27,0.48,1.75,0C1930.59,1117.76,1930.59,1116.97,1930.1,1116.49 M1930.1,1116.49c-0.48-0.48-1.27-0.48-1.75,0
			c-0.48,0.48-0.48,1.27,0,1.75s1.27,0.48,1.75,0C1930.59,1117.76,1930.59,1116.97,1930.1,1116.49 M1918.41,1128.18
			c-0.48-0.48-1.27-0.48-1.75,0s-0.48,1.27,0,1.75c0.48,0.48,1.27,0.48,1.75,0C1918.9,1129.45,1918.9,1128.67,1918.41,1128.18
			 M1918.41,1128.18c-0.48-0.48-1.27-0.48-1.75,0s-0.48,1.27,0,1.75c0.48,0.48,1.27,0.48,1.75,0
			C1918.9,1129.45,1918.9,1128.67,1918.41,1128.18 M1906.72,1139.87c-0.48-0.49-1.27-0.49-1.75,0c-0.49,0.48-0.49,1.27,0,1.75
			c0.48,0.48,1.27,0.48,1.75,0C1907.2,1141.14,1907.2,1140.36,1906.72,1139.87 M1906.72,1139.87c-0.48-0.49-1.27-0.49-1.75,0
			c-0.49,0.48-0.49,1.27,0,1.75c0.48,0.48,1.27,0.48,1.75,0C1907.2,1141.14,1907.2,1140.36,1906.72,1139.87 M1895.03,1151.56
			c-0.49-0.48-1.27-0.48-1.75,0c-0.48,0.48-0.48,1.27,0,1.75c0.48,0.48,1.27,0.48,1.75,0
			C1895.51,1152.83,1895.51,1152.05,1895.03,1151.56 M1895.03,1151.56c-0.49-0.48-1.27-0.48-1.75,0c-0.48,0.48-0.48,1.27,0,1.75
			c0.48,0.48,1.27,0.48,1.75,0C1895.51,1152.83,1895.51,1152.05,1895.03,1151.56 M1883.34,1163.26c-0.48-0.48-1.27-0.48-1.75,0
			c-0.48,0.48-0.48,1.27,0,1.75c0.48,0.48,1.27,0.48,1.75,0C1883.82,1164.53,1883.82,1163.74,1883.34,1163.26 M1883.34,1163.26
			c-0.48-0.48-1.27-0.48-1.75,0c-0.48,0.48-0.48,1.27,0,1.75c0.48,0.48,1.27,0.48,1.75,0
			C1883.82,1164.53,1883.82,1163.74,1883.34,1163.26 M1871.64,1174.95c-0.48-0.48-1.27-0.48-1.75,0s-0.48,1.27,0,1.75
			s1.27,0.48,1.75,0S1872.13,1175.43,1871.64,1174.95 M1871.64,1174.95c-0.48-0.48-1.27-0.48-1.75,0s-0.48,1.27,0,1.75
			s1.27,0.48,1.75,0S1872.13,1175.43,1871.64,1174.95 M1859.95,1186.64c-0.48-0.48-1.27-0.48-1.75,0c-0.48,0.48-0.48,1.27,0,1.75
			c0.48,0.48,1.27,0.48,1.75,0C1860.44,1187.91,1860.44,1187.12,1859.95,1186.64 M1859.95,1186.64c-0.48-0.48-1.27-0.48-1.75,0
			c-0.48,0.48-0.48,1.27,0,1.75c0.48,0.48,1.27,0.48,1.75,0C1860.44,1187.91,1860.44,1187.12,1859.95,1186.64 M1848.26,1198.33
			c-0.48-0.48-1.27-0.48-1.75,0c-0.48,0.48-0.48,1.27,0,1.75c0.48,0.48,1.27,0.48,1.75,0
			C1848.75,1199.6,1848.75,1198.82,1848.26,1198.33 M1848.26,1198.33c-0.48-0.48-1.27-0.48-1.75,0c-0.48,0.48-0.48,1.27,0,1.75
			c0.48,0.48,1.27,0.48,1.75,0C1848.75,1199.6,1848.75,1198.82,1848.26,1198.33 M1836.57,1210.02c-0.48-0.48-1.27-0.48-1.75,0
			c-0.48,0.49-0.48,1.27,0,1.75s1.27,0.48,1.75,0C1837.05,1211.29,1837.05,1210.51,1836.57,1210.02 M1836.57,1210.02
			c-0.48-0.48-1.27-0.48-1.75,0c-0.48,0.49-0.48,1.27,0,1.75s1.27,0.48,1.75,0C1837.05,1211.29,1837.05,1210.51,1836.57,1210.02
			 M1824.88,1221.71c-0.48-0.48-1.27-0.48-1.75,0s-0.48,1.27,0,1.75s1.27,0.48,1.75,0
			C1825.36,1222.98,1825.36,1222.2,1824.88,1221.71 M1824.88,1223.47c-0.48,0.48-1.27,0.48-1.75,0s-0.48-1.27,0-1.75
			s1.27-0.48,1.75,0C1825.36,1222.2,1825.36,1222.98,1824.88,1223.47"/>
		<polygon class="st5" points="18,36 18,1044 18,1062 36,1062 1884,1062 1902,1062 1902,1044 1902,36 1902,18 1884,18 36,18 18,18 
					"/>
	</g>
	<g class="st0">
		<defs>
			<polygon id="SVGID_9_" points="38.5,1041.5 38.5,1039.5 1879.5,1039.5 1879.5,40.5 40.5,40.5 40.5,1041.5 38.5,1041.5 
				38.5,1039.5 38.5,1041.5 36.5,1041.5 36.5,36.5 1883.5,36.5 1883.5,1043.5 36.5,1043.5 36.5,1041.5 			"/>
		</defs>
		<clipPath id="SVGID_10_">
			<use xlink:href="#SVGID_9_"  style="overflow:visible;"/>
		</clipPath>
		
			<linearGradient id="SVGID_11_" gradientUnits="userSpaceOnUse" x1="-2.138586e-08" y1="1080" x2="1" y2="1080" gradientTransform="matrix(1426.9999 -1426.9999 1426.9999 1426.9999 -1540913.375 -1539906.375)">
			<stop  offset="0" style="stop-color:#463D97"/>
			<stop  offset="0.0187" style="stop-color:#463D97"/>
			<stop  offset="0.202" style="stop-color:#573995"/>
			<stop  offset="0.4525" style="stop-color:#673593"/>
			<stop  offset="0.7116" style="stop-color:#703291"/>
			<stop  offset="0.99" style="stop-color:#723191"/>
			<stop  offset="1" style="stop-color:#723191"/>
		</linearGradient>
		<polygon class="st6" points="960,1967 2387,540 960,-887 -467,540 		"/>
	</g>
</g>
</svg>
