<?xml version="1.0" encoding="utf-8"?>
<!-- Generator: Adobe Illustrator 27.5.0, SVG Export Plug-In . SVG Version: 6.00 Build 0)  -->
<svg version="1.1" id="Layer_1" xmlns="http://www.w3.org/2000/svg" xmlns:xlink="http://www.w3.org/1999/xlink" x="0px" y="0px"
	 viewBox="0 0 1089.39 582.24" style="enable-background:new 0 0 1089.39 582.24;" xml:space="preserve">
<style type="text/css">
	.st0{fill:#060508;}
</style>
<path class="st0" d="M759.15,519.04c-0.02-1.38,1.09-2.51,2.47-2.52c1.38-0.01,2.51,1.09,2.53,2.47c0.01,1.38-1.09,2.5-2.48,2.52
	h-0.02C760.28,521.51,759.17,520.41,759.15,519.04 M747.26,521.24c-1.38-0.06-2.44-1.23-2.37-2.61c0.06-1.38,1.23-2.45,2.61-2.38
	c1.38,0.06,2.44,1.23,2.38,2.61c-0.06,1.34-1.17,2.38-2.49,2.38H747.26z M773.41,518.62c-0.09-1.38,0.94-2.57,2.32-2.66
	c1.38-0.1,2.57,0.94,2.66,2.31c0.1,1.38-0.94,2.57-2.31,2.67c-0.06,0.01-0.12,0.01-0.18,0.01
	C774.61,520.94,773.51,519.94,773.41,518.62 M732.89,520.12L732.89,520.12c-1.37-0.14-2.36-1.38-2.21-2.75
	c0.14-1.37,1.38-2.36,2.75-2.22c1.37,0.15,2.36,1.38,2.22,2.75c-0.14,1.28-1.23,2.23-2.48,2.23
	C733.07,520.13,732.98,520.13,732.89,520.12 M787.63,517.36c-0.18-1.37,0.79-2.62,2.15-2.8c1.37-0.18,2.62,0.79,2.8,2.15
	c0.18,1.37-0.78,2.62-2.15,2.8c-0.11,0.02-0.21,0.02-0.32,0.02C788.86,519.53,787.79,518.61,787.63,517.36 M718.61,518.16
	L718.61,518.16c-1.35-0.23-2.28-1.52-2.05-2.88c0.23-1.36,1.51-2.28,2.88-2.05c1.35,0.23,2.28,1.52,2.05,2.88
	c-0.2,1.23-1.26,2.09-2.46,2.09C718.89,518.2,718.75,518.18,718.61,518.16 M801.74,515.24c-0.26-1.36,0.63-2.66,1.98-2.93h0.01
	c1.35-0.26,2.66,0.63,2.92,1.98c0.26,1.35-0.63,2.66-1.98,2.92c-0.16,0.03-0.32,0.04-0.48,0.04
	C803.01,517.26,801.96,516.44,801.74,515.24 M704.47,515.37L704.47,515.37c-1.34-0.32-2.18-1.65-1.88-3
	c0.31-1.34,1.65-2.18,2.99-1.88c1.35,0.31,2.19,1.65,1.88,3c-0.26,1.16-1.29,1.94-2.43,1.94
	C704.84,515.43,704.66,515.41,704.47,515.37 M815.69,512.26c-0.35-1.33,0.46-2.7,1.8-3.04c1.33-0.34,2.7,0.46,3.04,1.8
	c0.34,1.33-0.46,2.7-1.8,3.04c-0.21,0.06-0.42,0.08-0.63,0.08C816.99,514.14,815.98,513.39,815.69,512.26 M690.52,511.73
	c-1.33-0.39-2.08-1.78-1.7-3.1c0.39-1.32,1.78-2.08,3.1-1.69c1.33,0.39,2.08,1.78,1.7,3.1c-0.32,1.09-1.32,1.8-2.4,1.8
	C690.99,511.83,690.75,511.79,690.52,511.73 M829.43,508.43c-0.43-1.31,0.29-2.73,1.6-3.15c1.31-0.42,2.73,0.29,3.15,1.61
	c0.43,1.31-0.29,2.72-1.6,3.15c-0.26,0.09-0.51,0.12-0.77,0.12C830.75,510.15,829.77,509.48,829.43,508.43 M676.81,507.25
	L676.81,507.25c-1.3-0.46-1.97-1.9-1.51-3.19c0.47-1.3,1.91-1.98,3.2-1.51c1.3,0.47,1.98,1.9,1.51,3.2
	c-0.37,1.02-1.33,1.65-2.35,1.65C677.37,507.4,677.09,507.35,676.81,507.25 M842.9,503.72c-0.51-1.28,0.11-2.73,1.39-3.24
	c1.28-0.51,2.74,0.11,3.25,1.39c0.51,1.28-0.11,2.73-1.39,3.25c-0.31,0.12-0.62,0.18-0.93,0.18
	C844.23,505.3,843.29,504.7,842.9,503.72 M663.4,501.94c-1.26-0.55-1.85-2.02-1.3-3.28c0.55-1.27,2.02-1.85,3.28-1.3
	c1.27,0.54,1.85,2.01,1.31,3.28c-0.41,0.94-1.33,1.51-2.3,1.51C664.06,502.15,663.73,502.08,663.4,501.94 M856.03,498.15
	c-0.59-1.24-0.07-2.73,1.18-3.32c1.24-0.6,2.73-0.07,3.33,1.17c0.59,1.25,0.06,2.74-1.18,3.33c-0.35,0.17-0.71,0.25-1.08,0.25
	C857.35,499.58,856.46,499.05,856.03,498.15 M650.35,495.79c-1.23-0.63-1.71-2.13-1.08-3.36c0.62-1.23,2.13-1.71,3.35-1.08
	c1.23,0.63,1.72,2.13,1.09,3.36c-0.44,0.86-1.32,1.36-2.22,1.36C651.1,496.07,650.71,495.97,650.35,495.79 M868.77,491.72
	c-0.68-1.2-0.26-2.72,0.95-3.4c1.2-0.68,2.72-0.25,3.4,0.95c0.68,1.2,0.26,2.73-0.94,3.4c-0.39,0.21-0.81,0.32-1.23,0.32
	C870.07,492.99,869.23,492.53,868.77,491.72 M637.72,488.82c-1.19-0.71-1.58-2.24-0.87-3.42c0.71-1.18,2.24-1.57,3.43-0.87
	c1.18,0.71,1.57,2.24,0.86,3.43c-0.46,0.78-1.29,1.22-2.15,1.22C638.56,489.17,638.12,489.05,637.72,488.82 M881.03,484.42
	c-0.76-1.15-0.45-2.7,0.7-3.46h0.01c1.15-0.75,2.7-0.44,3.46,0.71c0.76,1.15,0.44,2.7-0.71,3.46h0.01
	c-0.43,0.28-0.91,0.41-1.38,0.41C882.3,485.54,881.51,485.14,881.03,484.42 M625.57,481.02c-1.13-0.78-1.42-2.34-0.63-3.48
	c0.78-1.13,2.34-1.42,3.47-0.63c1.14,0.79,1.42,2.34,0.64,3.47c-0.48,0.7-1.26,1.08-2.05,1.08
	C626.5,481.46,626.01,481.32,625.57,481.02 M892.75,476.28c-0.84-1.09-0.64-2.66,0.46-3.5v-0.01c1.09-0.84,2.66-0.64,3.5,0.46
	c0.84,1.1,0.64,2.66-0.46,3.5c-0.46,0.35-0.99,0.52-1.52,0.52C893.98,477.25,893.24,476.92,892.75,476.28 M613.98,472.42
	c-1.08-0.86-1.26-2.43-0.4-3.51c0.86-1.08,2.43-1.26,3.51-0.4c1.08,0.86,1.26,2.43,0.39,3.51c-0.49,0.62-1.22,0.94-1.96,0.94
	C614.99,472.97,614.44,472.79,613.98,472.42 M903.85,467.32c-0.92-1.03-0.83-2.6,0.21-3.52c1.03-0.91,2.6-0.83,3.53,0.21
	c0.91,1.03,0.82,2.6-0.21,3.52c-0.48,0.42-1.07,0.63-1.66,0.63C905.02,468.15,904.34,467.87,903.85,467.32 M602.99,463.06
	L602.99,463.06c-1.02-0.93-1.09-2.5-0.16-3.52c0.93-1.02,2.51-1.09,3.53-0.16s1.09,2.5,0.16,3.52c-0.49,0.54-1.17,0.82-1.85,0.82
	C604.08,463.71,603.47,463.5,602.99,463.06 M914.28,457.59c-0.98-0.96-1.01-2.55-0.04-3.53h0.01c0.96-0.99,2.54-1.01,3.52-0.04
	c0.99,0.96,1.01,2.55,0.04,3.53c-0.48,0.5-1.13,0.75-1.78,0.75C915.4,458.3,914.76,458.06,914.28,457.59 M592.66,452.99
	c-0.96-0.99-0.93-2.57,0.06-3.52c1-0.96,2.58-0.93,3.53,0.06c0.96,0.99,0.93,2.58-0.06,3.53c-0.48,0.46-1.11,0.7-1.73,0.7
	C593.8,453.76,593.15,453.51,592.66,452.99 M924.01,447.16c-1.05-0.89-1.18-2.47-0.28-3.52c0.9-1.06,2.47-1.18,3.53-0.29
	c1.05,0.89,1.18,2.47,0.28,3.52c-0.49,0.58-1.19,0.88-1.9,0.88C925.06,447.76,924.49,447.56,924.01,447.16 M56.83,444.88
	c-0.78-1.14-0.48-2.69,0.66-3.47c1.14-0.78,2.7-0.48,3.47,0.66c0.78,1.13,0.48,2.69-0.66,3.47c-0.43,0.29-0.92,0.44-1.41,0.44
	C58.09,445.98,57.31,445.59,56.83,444.88 M582.99,442.28c-0.89-1.05-0.76-2.62,0.29-3.52c1.06-0.89,2.63-0.76,3.52,0.29
	c0.89,1.06,0.76,2.63-0.29,3.52c-0.47,0.4-1.04,0.59-1.61,0.59C584.19,443.17,583.49,442.87,582.99,442.28 M68.61,436.83
	c-0.78-1.13-0.51-2.69,0.63-3.47c1.13-0.79,2.69-0.51,3.47,0.63c0.79,1.13,0.51,2.69-0.63,3.47c-0.43,0.3-0.93,0.44-1.42,0.44
	C69.87,437.9,69.09,437.52,68.61,436.83 M933.03,436.1c-1.11-0.83-1.33-2.39-0.51-3.49c0.82-1.11,2.38-1.34,3.5-0.51
	c1.11,0.82,1.33,2.38,0.51,3.49c-0.49,0.66-1.24,1.01-2.01,1.01C934,436.6,933.47,436.43,933.03,436.1 M574.03,430.99
	c-0.83-1.11-0.6-2.68,0.51-3.49c1.1-0.82,2.67-0.59,3.49,0.51c0.82,1.11,0.59,2.67-0.51,3.5c-0.45,0.33-0.97,0.49-1.48,0.49
	C575.27,432,574.51,431.65,574.03,430.99 M80.29,428.64c-0.8-1.12-0.54-2.67,0.58-3.48c1.12-0.81,2.68-0.55,3.48,0.58
	c0.81,1.12,0.55,2.68-0.57,3.48c-0.44,0.31-0.95,0.46-1.46,0.46C81.55,429.68,80.78,429.32,80.29,428.64 M941.29,424.47
	c-1.16-0.75-1.48-2.29-0.73-3.45c0.75-1.16,2.29-1.48,3.45-0.74c1.16,0.74,1.48,2.29,0.73,3.45c-0.48,0.74-1.28,1.14-2.1,1.14
	C942.18,424.87,941.71,424.74,941.29,424.47 M91.84,420.25c-0.83-1.1-0.61-2.67,0.5-3.49c1.11-0.83,2.67-0.6,3.5,0.51
	c0.83,1.1,0.6,2.67-0.5,3.5c-0.45,0.34-0.98,0.49-1.5,0.49C93.08,421.25,92.33,420.91,91.84,420.25 M565.78,419.16L565.78,419.16
	c-0.76-1.15-0.43-2.7,0.73-3.45c1.15-0.76,2.7-0.43,3.45,0.72v0.01c0.76,1.15,0.43,2.7-0.73,3.45c-0.42,0.28-0.89,0.41-1.36,0.41
	C567.05,420.3,566.25,419.9,565.78,419.16 M948.78,412.33c-1.2-0.68-1.63-2.2-0.96-3.4c0.68-1.21,2.2-1.63,3.4-0.96
	c1.2,0.67,1.63,2.2,0.96,3.4c-0.46,0.82-1.31,1.28-2.18,1.28C949.59,412.65,949.18,412.55,948.78,412.33 M103.19,411.61
	c-0.86-1.08-0.68-2.65,0.41-3.5c1.08-0.86,2.65-0.68,3.51,0.41c0.86,1.08,0.67,2.65-0.41,3.51c-0.46,0.36-1.01,0.54-1.55,0.54
	C104.41,412.56,103.68,412.23,103.19,411.61 M558.26,406.87c-0.68-1.2-0.27-2.73,0.93-3.41c1.2-0.68,2.72-0.26,3.4,0.93
	c0.69,1.2,0.27,2.73-0.93,3.41c-0.39,0.22-0.81,0.33-1.23,0.33C559.55,408.13,558.71,407.68,558.26,406.87 M114.29,402.64
	c-0.89-1.05-0.76-2.63,0.29-3.52c1.05-0.89,2.62-0.76,3.52,0.29c0.89,1.05,0.76,2.62-0.29,3.52c-0.46,0.4-1.04,0.59-1.61,0.59
	C115.48,403.52,114.78,403.22,114.29,402.64 M955.5,399.74c-1.24-0.6-1.77-2.09-1.17-3.33c0.6-1.24,2.09-1.77,3.34-1.17
	c1.23,0.6,1.76,2.09,1.16,3.33c-0.43,0.9-1.32,1.42-2.25,1.42C956.23,399.99,955.85,399.91,955.5,399.74 M551.47,394.15
	c-0.61-1.24-0.11-2.73,1.13-3.35c1.23-0.61,2.74-0.11,3.35,1.13c0.61,1.23,0.11,2.73-1.13,3.35c-0.36,0.17-0.73,0.26-1.11,0.26
	C552.79,395.53,551.91,395.03,551.47,394.15 M125.06,393.29c-0.93-1.01-0.86-2.6,0.16-3.52c1.01-0.93,2.6-0.86,3.52,0.15
	c0.93,1.02,0.86,2.6-0.15,3.53c-0.48,0.44-1.08,0.66-1.69,0.66C126.23,394.1,125.55,393.83,125.06,393.29 M961.43,386.76
	c-1.28-0.52-1.89-1.98-1.37-3.25c0.52-1.28,1.98-1.89,3.25-1.37c1.28,0.52,1.89,1.98,1.37,3.25c-0.39,0.97-1.33,1.56-2.31,1.56
	C962.05,386.94,961.73,386.89,961.43,386.76 M135.44,383.5c-0.98-0.98-0.98-2.55-0.01-3.53c0.97-0.98,2.55-0.98,3.53-0.01
	c0.98,0.97,0.98,2.55,0.01,3.53c-0.49,0.49-1.13,0.73-1.77,0.73C136.56,384.23,135.92,383.98,135.44,383.5 M545.44,381.06
	c-0.54-1.27,0.05-2.74,1.32-3.27c1.27-0.54,2.73,0.05,3.27,1.32c0.54,1.26-0.05,2.73-1.32,3.28c-0.31,0.13-0.65,0.2-0.98,0.2
	C546.77,382.58,545.85,382.01,545.44,381.06 M145.34,373.22c-1.03-0.92-1.11-2.5-0.19-3.52c0.92-1.03,2.5-1.11,3.52-0.19
	c1.03,0.92,1.11,2.5,0.19,3.52c-0.49,0.55-1.18,0.83-1.86,0.83C146.41,373.86,145.82,373.65,145.34,373.22 M966.54,373.44
	c-1.31-0.43-2.01-1.85-1.57-3.16c0.44-1.3,1.85-2.01,3.17-1.57c1.31,0.44,2.01,1.86,1.57,3.16v0.01c-0.36,1.04-1.33,1.7-2.37,1.7
	C967.08,373.57,966.81,373.53,966.54,373.44 M540.18,367.65L540.18,367.65c-0.47-1.3,0.2-2.72,1.5-3.2c1.3-0.46,2.72,0.21,3.2,1.51
	s-0.21,2.73-1.51,3.2c-0.28,0.1-0.56,0.15-0.84,0.15C541.5,369.3,540.54,368.67,540.18,367.65 M154.67,362.43
	c-1.08-0.86-1.26-2.43-0.39-3.51c0.86-1.08,2.43-1.25,3.51-0.39c1.08,0.86,1.26,2.43,0.39,3.51c-0.49,0.62-1.22,0.94-1.95,0.94
	C155.69,362.98,155.13,362.8,154.67,362.43 M970.84,359.83c-1.33-0.36-2.12-1.73-1.76-3.07c0.36-1.33,1.73-2.11,3.06-1.76
	c1.33,0.36,2.12,1.73,1.76,3.06c-0.31,1.11-1.31,1.85-2.41,1.85C971.27,359.92,971.05,359.89,970.84,359.83 M535.67,353.96
	L535.67,353.96c-0.39-1.33,0.36-2.72,1.68-3.11c1.32-0.39,2.71,0.36,3.1,1.68c0.4,1.32-0.36,2.71-1.68,3.1
	c-0.23,0.07-0.48,0.11-0.71,0.11C536.99,355.75,536,355.05,535.67,353.96 M163.33,351.09c-1.14-0.78-1.42-2.34-0.64-3.47
	c0.79-1.14,2.34-1.42,3.48-0.64c1.13,0.79,1.42,2.34,0.64,3.47c-0.49,0.7-1.26,1.08-2.05,1.08
	C164.26,351.53,163.76,351.39,163.33,351.09 M974.28,345.99c-1.35-0.28-2.22-1.6-1.94-2.95c0.28-1.35,1.6-2.22,2.95-1.94
	c1.35,0.27,2.22,1.59,1.95,2.95c-0.25,1.18-1.28,1.99-2.45,1.99C974.62,346.04,974.45,346.02,974.28,345.99 M531.95,340.04
	c-0.31-1.34,0.51-2.69,1.85-3.01c1.34-0.31,2.69,0.51,3,1.85c0.32,1.34-0.51,2.69-1.85,3c-0.19,0.05-0.39,0.07-0.58,0.07
	C533.24,341.96,532.22,341.19,531.95,340.04 M171.16,339.16c-1.18-0.7-1.58-2.23-0.89-3.42c0.71-1.19,2.23-1.58,3.42-0.89
	c1.18,0.7,1.58,2.23,0.88,3.42c-0.46,0.79-1.3,1.23-2.16,1.23C171.99,339.5,171.56,339.4,171.16,339.16 M976.88,331.96
	c-1.36-0.2-2.32-1.46-2.12-2.82c0.19-1.36,1.45-2.32,2.82-2.12c1.36,0.19,2.31,1.46,2.12,2.82c-0.18,1.25-1.25,2.15-2.47,2.15
	C977.11,331.98,977,331.98,976.88,331.96 M529.01,325.94c-0.24-1.36,0.66-2.66,2.02-2.9c1.36-0.24,2.65,0.66,2.9,2.02
	c0.24,1.35-0.66,2.65-2.03,2.9c-0.14,0.03-0.29,0.04-0.43,0.04C530.28,328,529.23,327.15,529.01,325.94 M178.11,326.7
	c-1.23-0.61-1.75-2.11-1.13-3.35c0.61-1.23,2.1-1.74,3.35-1.13c1.23,0.61,1.74,2.1,1.13,3.35c-0.43,0.88-1.32,1.39-2.24,1.39
	C178.84,326.95,178.46,326.88,178.11,326.7 M978.6,317.79c-1.38-0.11-2.41-1.31-2.3-2.68c0.11-1.38,1.31-2.4,2.69-2.29
	c1.38,0.11,2.4,1.31,2.29,2.68c-0.1,1.31-1.2,2.3-2.48,2.3C978.73,317.8,978.66,317.8,978.6,317.79 M184.09,313.75
	c-1.28-0.51-1.9-1.97-1.39-3.24c0.51-1.28,1.96-1.9,3.25-1.39c1.28,0.51,1.91,1.96,1.39,3.24c-0.39,0.98-1.33,1.58-2.32,1.58
	C184.71,313.93,184.4,313.87,184.09,313.75 M526.87,311.69c-0.16-1.37,0.81-2.61,2.18-2.77c1.36-0.17,2.61,0.81,2.78,2.17
	c0.16,1.37-0.81,2.61-2.18,2.78c-0.1,0.01-0.21,0.01-0.31,0.01C528.1,313.88,527.02,312.96,526.87,311.69 M979.43,303.55
	c-1.38-0.02-2.48-1.16-2.46-2.53c0.02-1.38,1.15-2.48,2.53-2.46c1.38,0.02,2.48,1.15,2.46,2.53c-0.02,1.37-1.14,2.46-2.5,2.46
	H979.43z M189.03,300.36c-1.32-0.4-2.06-1.8-1.66-3.12c0.4-1.32,1.8-2.06,3.12-1.65c1.32,0.4,2.06,1.8,1.66,3.12
	c-0.33,1.08-1.31,1.77-2.38,1.77C189.52,300.47,189.27,300.44,189.03,300.36 M525.54,297.34L525.54,297.34
	c-0.09-1.38,0.95-2.56,2.33-2.65c1.38-0.09,2.57,0.96,2.65,2.33c0.09,1.38-0.96,2.56-2.33,2.65c-0.05,0-0.11,0.01-0.16,0.01
	C526.72,299.68,525.62,298.66,525.54,297.34 M976.71,286.92L976.71,286.92c-0.07-1.38,0.99-2.55,2.37-2.62
	c1.38-0.07,2.55,0.99,2.62,2.37c0.07,1.38-0.99,2.55-2.37,2.62c-0.04,0-0.08,0.01-0.12,0.01
	C977.88,289.29,976.77,288.25,976.71,286.92 M192.8,286.6c-1.35-0.29-2.21-1.61-1.93-2.95c0.28-1.35,1.6-2.22,2.95-1.93
	c1.35,0.28,2.22,1.61,1.94,2.95c-0.25,1.18-1.29,1.98-2.45,1.98C193.15,286.65,192.98,286.64,192.8,286.6 M525.03,282.94
	c-0.01-1.38,1.1-2.5,2.48-2.51c1.38-0.01,2.5,1.1,2.51,2.48c0.01,1.38-1.1,2.5-2.48,2.51h-0.01
	C526.15,285.42,525.04,284.31,525.03,282.94 M975.52,272.87L975.52,272.87c-0.16-1.37,0.82-2.61,2.19-2.77
	c1.37-0.16,2.61,0.82,2.77,2.19h0.01c0.16,1.37-0.82,2.61-2.19,2.77c-0.1,0.01-0.2,0.02-0.3,0.02
	C976.75,275.07,975.67,274.14,975.52,272.87 M195.29,272.55c-1.37-0.15-2.36-1.38-2.21-2.75c0.15-1.37,1.39-2.36,2.76-2.21
	c1.37,0.15,2.36,1.38,2.21,2.75c-0.14,1.28-1.22,2.23-2.48,2.23C195.47,272.57,195.38,272.56,195.29,272.55 M527.71,271.15
	c-1.38-0.07-2.43-1.25-2.36-2.62c0.07-1.38,1.24-2.44,2.62-2.37c1.38,0.07,2.44,1.25,2.37,2.63c-0.07,1.33-1.18,2.37-2.5,2.37
	C527.8,271.16,527.76,271.15,527.71,271.15 M973.39,258.94c-0.26-1.36,0.64-2.66,1.99-2.92c1.36-0.25,2.66,0.64,2.92,1.99v0.01
	c0.26,1.35-0.64,2.65-1.99,2.91c-0.16,0.03-0.31,0.04-0.46,0.04C974.67,260.97,973.62,260.13,973.39,258.94 M196.35,258.33
	c-1.38,0-2.5-1.12-2.5-2.51c0-1.38,1.12-2.49,2.5-2.49c1.38,0,2.49,1.12,2.49,2.5C198.85,257.22,197.73,258.33,196.35,258.33
	 M528.73,256.92c-1.37-0.15-2.36-1.38-2.2-2.75c0.15-1.38,1.38-2.36,2.75-2.2c1.37,0.15,2.36,1.38,2.21,2.76v-0.01
	c-0.14,1.28-1.22,2.22-2.48,2.22C528.92,256.93,528.83,256.93,528.73,256.92 M970.29,245.19c-0.35-1.34,0.45-2.7,1.78-3.05
	c1.33-0.35,2.7,0.44,3.05,1.78c0.36,1.33-0.44,2.7-1.78,3.05c-0.21,0.06-0.43,0.09-0.64,0.09
	C971.6,247.06,970.59,246.32,970.29,245.19 M193.08,241.88c-0.16-1.37,0.83-2.61,2.2-2.77c1.37-0.15,2.61,0.83,2.77,2.2
	c0.16,1.37-0.84,2.6-2.2,2.76c-0.09,0.01-0.19,0.01-0.28,0.01C194.31,244.09,193.23,243.15,193.08,241.88 M530.6,242.78
	c-1.36-0.24-2.27-1.53-2.03-2.89c0.24-1.36,1.53-2.27,2.89-2.03c1.35,0.24,2.27,1.53,2.03,2.89c-0.21,1.21-1.27,2.07-2.46,2.07
	C530.88,242.81,530.74,242.8,530.6,242.78 M966.23,231.71L966.23,231.71c-0.45-1.3,0.25-2.73,1.56-3.17
	c1.3-0.45,2.72,0.25,3.17,1.55c0.44,1.31-0.25,2.73-1.55,3.17c-0.26,0.09-0.54,0.14-0.81,0.14
	C967.55,233.4,966.58,232.75,966.23,231.71 M190.68,228.12c-0.32-1.34,0.51-2.69,1.85-3c1.34-0.32,2.69,0.51,3.01,1.85
	c0.32,1.34-0.51,2.69-1.85,3c-0.2,0.05-0.39,0.07-0.59,0.07C191.98,230.04,190.95,229.27,190.68,228.12 M533.32,228.77
	c-1.34-0.32-2.17-1.66-1.85-3c0.32-1.34,1.67-2.17,3.01-1.85c1.34,0.32,2.17,1.66,1.85,3c-0.28,1.15-1.3,1.92-2.43,1.92
	C533.71,228.84,533.51,228.82,533.32,228.77 M614.76,225.98c-0.01-1.38,1.1-2.51,2.48-2.51c1.38-0.01,2.5,1.1,2.5,2.49
	c0.01,1.38-1.1,2.5-2.48,2.5h-0.01C615.88,228.47,614.77,227.36,614.76,225.98 M602.68,227.43c-1.37-0.19-2.32-1.46-2.12-2.82
	c0.19-1.36,1.45-2.31,2.82-2.12c1.36,0.2,2.31,1.46,2.12,2.83c-0.18,1.25-1.25,2.15-2.47,2.15
	C602.92,227.46,602.79,227.45,602.68,227.43 M628.98,225.12c-0.25-1.36,0.65-2.66,2-2.91c1.36-0.25,2.65,0.64,2.91,2
	c0.25,1.36-0.65,2.66-2,2.91c-0.15,0.03-0.31,0.04-0.46,0.04C630.26,227.16,629.21,226.32,628.98,225.12 M588.42,224.48
	L588.42,224.48c-1.33-0.36-2.12-1.73-1.76-3.05c0.36-1.33,1.73-2.13,3.05-1.77v0.01c1.33,0.36,2.13,1.72,1.77,3.05
	c-0.3,1.11-1.31,1.85-2.41,1.85C588.85,224.56,588.63,224.54,588.42,224.48 M642.8,221.61c-0.54-1.27,0.06-2.74,1.33-3.27
	c1.26-0.54,2.73,0.06,3.27,1.33c0.54,1.26-0.05,2.73-1.32,3.27c-0.32,0.14-0.65,0.2-0.98,0.2
	C644.13,223.13,643.21,222.56,642.8,221.61 M574.61,220c-1.28-0.48-1.93-1.93-1.45-3.22c0.49-1.29,1.93-1.94,3.22-1.45
	c1.29,0.49,1.94,1.93,1.46,3.22c-0.38,1-1.33,1.61-2.34,1.61C575.2,220.16,574.9,220.11,574.61,220 M961.18,218.56
	c-0.54-1.27,0.04-2.74,1.31-3.28c1.27-0.55,2.74,0.04,3.28,1.31h0.01c0.54,1.26-0.05,2.73-1.32,3.27c-0.32,0.14-0.65,0.2-0.98,0.2
	C962.5,220.08,961.58,219.51,961.18,218.56 M186.64,214.73c-0.46-1.3,0.21-2.72,1.51-3.19c1.3-0.47,2.73,0.21,3.2,1.51
	c0.46,1.3-0.21,2.73-1.51,3.2c-0.28,0.1-0.56,0.14-0.84,0.14C187.97,216.39,187,215.75,186.64,214.73 M655.45,215.04
	c-0.82-1.11-0.58-2.67,0.52-3.49c1.11-0.82,2.67-0.59,3.49,0.52c0.82,1.11,0.59,2.67-0.51,3.49c-0.45,0.34-0.97,0.49-1.48,0.49
	C656.7,216.05,655.94,215.7,655.45,215.04 M536.93,214.96c-1.32-0.41-2.06-1.8-1.65-3.12c0.41-1.32,1.8-2.06,3.12-1.65
	c1.32,0.41,2.06,1.8,1.66,3.12c-0.33,1.08-1.32,1.77-2.38,1.77C537.42,215.08,537.17,215.04,536.93,214.96 M561.3,214.34
	c-1.25-0.59-1.78-2.08-1.19-3.32c0.58-1.25,2.08-1.78,3.32-1.19c1.25,0.59,1.78,2.08,1.19,3.33c-0.43,0.9-1.33,1.43-2.26,1.43
	C562.01,214.58,561.64,214.51,561.3,214.34 M548.47,207.7c-1.2-0.68-1.62-2.2-0.95-3.4c0.68-1.2,2.2-1.63,3.4-0.95
	c1.2,0.68,1.63,2.2,0.95,3.4c-0.46,0.81-1.3,1.27-2.18,1.27C549.29,208.02,548.87,207.91,548.47,207.7 M955.21,205.74
	c-0.61-1.23-0.1-2.73,1.14-3.34c1.24-0.61,2.74-0.11,3.35,1.13c0.61,1.23,0.1,2.73-1.13,3.34c-0.36,0.18-0.73,0.26-1.1,0.26
	C956.54,207.14,955.65,206.63,955.21,205.74 M666.22,205.71c-1.06-0.88-1.21-2.45-0.33-3.52c0.89-1.06,2.45-1.21,3.52-0.33
	c1.06,0.88,1.21,2.45,0.34,3.52c-0.5,0.6-1.21,0.91-1.93,0.91C667.24,206.28,666.68,206.09,666.22,205.71 M181.45,201.6
	c-0.54-1.27,0.06-2.74,1.33-3.27c1.27-0.54,2.73,0.06,3.27,1.33c0.54,1.27-0.05,2.73-1.32,3.27c-0.32,0.13-0.65,0.19-0.98,0.19
	C182.77,203.12,181.85,202.55,181.45,201.6 M948.78,193.04c-0.63-1.23-0.14-2.73,1.09-3.36c1.23-0.63,2.73-0.14,3.36,1.09
	c0.63,1.23,0.14,2.73-1.09,3.36c-0.36,0.19-0.75,0.27-1.13,0.27C950.1,194.4,949.23,193.9,948.78,193.04 M674.33,194
	c-1.26-0.56-1.83-2.03-1.28-3.3c0.56-1.26,2.03-1.83,3.29-1.27c1.26,0.55,1.83,2.03,1.28,3.29c-0.41,0.93-1.33,1.49-2.28,1.49
	C675,194.22,674.66,194.14,674.33,194 M524.3,192.05c-1.11-0.81-1.36-2.38-0.55-3.49c0.81-1.12,2.37-1.36,3.49-0.55
	c1.11,0.81,1.36,2.37,0.55,3.49c-0.49,0.67-1.25,1.03-2.03,1.03C525.25,192.53,524.74,192.38,524.3,192.05 M536.6,200.21
	c-1.11-0.81-1.36-2.38-0.55-3.49c0.81-1.12,2.37-1.36,3.49-0.55c1.11,0.81,1.36,2.37,0.55,3.49c-0.49,0.67-1.25,1.03-2.03,1.03
	C537.55,200.68,537.04,200.53,536.6,200.21 M175.82,188.49c-0.54-1.27,0.05-2.73,1.32-3.28c1.27-0.53,2.73,0.05,3.27,1.32
	c0.54,1.27-0.05,2.74-1.32,3.27c-0.32,0.14-0.65,0.2-0.98,0.2C177.14,190.01,176.22,189.44,175.82,188.49 M546.85,188.23
	c-1.25-0.6-1.77-2.09-1.18-3.33c0.6-1.24,2.09-1.77,3.33-1.18c1.24,0.6,1.77,2.09,1.18,3.33c-0.43,0.9-1.33,1.42-2.26,1.42
	C547.56,188.47,547.2,188.39,546.85,188.23 M512.87,183.34c-1.08-0.86-1.26-2.43-0.39-3.51c0.86-1.08,2.43-1.26,3.51-0.4
	c1.08,0.86,1.26,2.43,0.39,3.51c-0.49,0.62-1.22,0.94-1.95,0.94C513.88,183.88,513.33,183.7,512.87,183.34 M942.39,180.21
	c-0.59-1.24-0.07-2.73,1.18-3.33c1.24-0.6,2.73-0.07,3.32,1.17c0.6,1.25,0.07,2.74-1.17,3.33c-0.35,0.17-0.71,0.25-1.08,0.25
	C943.72,181.63,942.82,181.1,942.39,180.21 M678.72,180.47c-1.38-0.12-2.39-1.34-2.26-2.71c0.13-1.38,1.34-2.38,2.71-2.26
	c1.38,0.13,2.39,1.34,2.26,2.72c-0.12,1.29-1.2,2.27-2.48,2.27C678.88,180.48,678.8,180.48,678.72,180.47 M170.47,175.12
	c-0.47-1.29,0.19-2.72,1.49-3.2c1.29-0.48,2.73,0.19,3.2,1.48c0.47,1.3-0.2,2.73-1.49,3.2c-0.29,0.11-0.57,0.15-0.86,0.15
	C171.79,176.76,170.84,176.13,170.47,175.12 M553.38,175.54c-1.18-0.71-1.57-2.24-0.86-3.42c0.7-1.18,2.23-1.57,3.42-0.86
	c1.18,0.71,1.58,2.24,0.87,3.42c-0.47,0.78-1.3,1.21-2.15,1.21C554.22,175.89,553.78,175.77,553.38,175.54 M501.81,174.19
	c-1.05-0.9-1.17-2.48-0.28-3.52c0.9-1.05,2.48-1.17,3.52-0.27c1.05,0.89,1.17,2.47,0.27,3.52c-0.49,0.58-1.19,0.88-1.9,0.88
	C502.86,174.79,502.28,174.59,501.81,174.19 M936.54,167.02c-0.51-1.28,0.11-2.73,1.38-3.25c1.28-0.51,2.73,0.11,3.25,1.39
	c0.51,1.28-0.11,2.73-1.38,3.24c-0.31,0.12-0.62,0.18-0.93,0.18C937.87,168.59,936.94,168,936.54,167.02 M675.32,164.52
	L675.32,164.52c-0.36-1.33,0.41-2.7,1.75-3.07c1.33-0.36,2.7,0.41,3.07,1.75c0.36,1.33-0.42,2.7-1.75,3.07
	c-0.22,0.06-0.44,0.09-0.66,0.09C676.63,166.35,675.62,165.62,675.32,164.52 M491.05,164.73L491.05,164.73
	c-1.03-0.92-1.11-2.5-0.18-3.52c0.92-1.03,2.5-1.11,3.52-0.18c1.03,0.92,1.11,2.5,0.19,3.52c-0.49,0.55-1.17,0.83-1.85,0.83
	C492.12,165.37,491.52,165.16,491.05,164.73 M561.09,163.53c-1.1-0.83-1.32-2.39-0.48-3.5h-0.01c0.83-1.1,2.4-1.32,3.5-0.49
	c1.1,0.83,1.32,2.4,0.49,3.5h-0.01c-0.49,0.66-1.23,1-1.99,1C562.07,164.04,561.54,163.87,561.09,163.53 M166.17,161.23
	c-0.33-1.34,0.49-2.69,1.83-3.02c1.33-0.33,2.69,0.49,3.02,1.83c0.33,1.34-0.49,2.7-1.83,3.02c-0.2,0.05-0.4,0.07-0.59,0.07
	C167.47,163.14,166.45,162.38,166.17,161.23 M480.49,155.06c-1.01-0.94-1.06-2.52-0.12-3.52c0.94-1.01,2.52-1.07,3.53-0.13
	c1.01,0.94,1.06,2.52,0.12,3.53c-0.49,0.53-1.16,0.79-1.83,0.79C481.59,155.73,480.98,155.51,480.49,155.06 M931.83,153.28
	c-0.37-1.33,0.41-2.71,1.74-3.08c1.33-0.37,2.7,0.41,3.07,1.73c0.37,1.33-0.41,2.7-1.73,3.07c-0.23,0.06-0.45,0.09-0.67,0.09
	C933.14,155.11,932.13,154.38,931.83,153.28 M669.59,152.47c-0.79-1.14-0.51-2.69,0.61-3.48s2.69-0.51,3.48,0.61
	c0.78,1.13,0.51,2.69-0.61,3.48c-0.44,0.3-0.94,0.45-1.43,0.45C670.85,153.54,670.08,153.17,669.59,152.47 M570.13,152.49
	c-0.99-0.96-1.01-2.54-0.04-3.53c0.96-0.99,2.55-1,3.53-0.04c0.98,0.96,1.01,2.55,0.04,3.53c-0.49,0.5-1.14,0.75-1.79,0.75
	C571.24,153.2,570.61,152.97,570.13,152.49 M163.8,146.77c-0.11-1.38,0.92-2.58,2.29-2.68c1.38-0.11,2.58,0.92,2.68,2.3
	c0.11,1.37-0.92,2.58-2.29,2.68c-0.07,0-0.14,0.01-0.2,0.01C164.99,149.08,163.9,148.08,163.8,146.77 M470.09,145.26L470.09,145.26
	c-1-0.94-1.04-2.52-0.09-3.52c0.95-1.01,2.53-1.05,3.53-0.1c1,0.95,1.04,2.53,0.09,3.53c-0.49,0.52-1.15,0.78-1.81,0.78
	C471.18,145.95,470.57,145.73,470.09,145.26 M580.58,142.79c-0.83-1.1-0.6-2.67,0.5-3.5c1.1-0.82,2.67-0.6,3.5,0.51
	c0.83,1.1,0.61,2.67-0.5,3.49c-0.45,0.34-0.98,0.5-1.5,0.5C581.82,143.79,581.06,143.44,580.58,142.79 M660.3,142.66
	c-1.08-0.86-1.25-2.43-0.39-3.51c0.86-1.08,2.44-1.25,3.52-0.39c1.07,0.86,1.25,2.43,0.39,3.51c-0.49,0.61-1.22,0.93-1.95,0.93
	C661.31,143.21,660.76,143.04,660.3,142.66 M928.98,138.92c-0.16-1.38,0.83-2.61,2.2-2.77c1.37-0.15,2.6,0.83,2.76,2.2
	s-0.83,2.6-2.2,2.76c-0.1,0.01-0.19,0.01-0.29,0.01C930.2,141.13,929.12,140.19,928.98,138.92 M592.45,134.91
	c-0.62-1.23-0.12-2.73,1.11-3.35c1.23-0.61,2.73-0.11,3.35,1.12c0.61,1.23,0.11,2.73-1.12,3.35c-0.36,0.18-0.73,0.27-1.11,0.27
	C593.77,136.29,592.88,135.79,592.45,134.91 M459.73,135.44L459.73,135.44c-1-0.95-1.04-2.53-0.09-3.53c0.95-1,2.53-1.04,3.53-0.09
	c1,0.95,1.04,2.52,0.09,3.53c-0.49,0.51-1.15,0.78-1.81,0.78C460.83,136.12,460.22,135.89,459.73,135.44 M648.69,135.49
	c-1.25-0.59-1.79-2.08-1.2-3.32c0.58-1.26,2.07-1.79,3.32-1.21c1.25,0.59,1.78,2.08,1.2,3.33c-0.42,0.9-1.32,1.43-2.26,1.43
	C649.39,135.72,649.03,135.64,648.69,135.49 M166.19,134.82c-1.37-0.14-2.38-1.36-2.24-2.73c0.14-1.37,1.36-2.38,2.73-2.24
	c1.37,0.14,2.38,1.35,2.24,2.73c-0.13,1.29-1.21,2.25-2.48,2.25C166.36,134.82,166.28,134.82,166.19,134.82 M605.56,129.33
	c-0.34-1.33,0.47-2.7,1.81-3.03c1.33-0.34,2.69,0.47,3.03,1.8c0.34,1.33-0.47,2.7-1.81,3.03c-0.21,0.06-0.41,0.08-0.62,0.08
	C606.87,131.21,605.86,130.46,605.56,129.33 M635.72,131.04c-1.35-0.3-2.19-1.64-1.88-2.98c0.3-1.35,1.64-2.19,2.98-1.88
	c1.35,0.3,2.19,1.64,1.88,2.98c-0.26,1.16-1.29,1.95-2.43,1.95C636.09,131.11,635.9,131.09,635.72,131.04 M622.11,129.5
	c-1.39,0-2.5-1.12-2.5-2.5c0-1.38,1.12-2.5,2.5-2.5c1.38,0,2.49,1.12,2.49,2.5C624.61,128.38,623.49,129.5,622.11,129.5 M931,126.88
	c-1.38-0.11-2.39-1.32-2.28-2.69h-0.01c0.12-1.38,1.33-2.4,2.7-2.28c1.38,0.11,2.4,1.32,2.28,2.7c-0.11,1.3-1.2,2.29-2.48,2.29
	C931.14,126.89,931.07,126.88,931,126.88 M449.36,125.66c-1.01-0.93-1.06-2.52-0.12-3.52c0.94-1.01,2.52-1.06,3.53-0.12
	c1.01,0.94,1.05,2.52,0.12,3.53c-0.49,0.52-1.16,0.79-1.83,0.79C450.45,126.33,449.84,126.11,449.36,125.66 M168.35,120.72
	c-1.33-0.35-2.13-1.72-1.77-3.05c0.35-1.33,1.72-2.13,3.05-1.77c1.33,0.36,2.13,1.72,1.77,3.05c-0.3,1.12-1.31,1.85-2.41,1.85
	C168.78,120.81,168.56,120.78,168.35,120.72 M438.89,116.03c-1.03-0.92-1.11-2.5-0.18-3.52c0.92-1.03,2.5-1.11,3.52-0.18
	c1.03,0.92,1.11,2.5,0.18,3.52c-0.49,0.55-1.17,0.82-1.86,0.82C439.97,116.67,439.37,116.46,438.89,116.03 M933.13,112.79
	c-1.33-0.39-2.09-1.78-1.7-3.1c0.39-1.33,1.77-2.08,3.1-1.7c1.32,0.39,2.08,1.77,1.7,3.1c-0.32,1.08-1.31,1.8-2.4,1.8
	C933.6,112.89,933.36,112.86,933.13,112.79 M172.7,107.14c-1.27-0.55-1.85-2.03-1.3-3.29c0.56-1.26,2.03-1.84,3.29-1.29
	c1.26,0.55,1.84,2.02,1.29,3.28c-0.41,0.94-1.33,1.5-2.29,1.5C173.36,107.35,173.02,107.28,172.7,107.14 M428.23,106.63
	L428.23,106.63c-1.04-0.89-1.16-2.48-0.26-3.52c0.9-1.05,2.47-1.17,3.52-0.27c1.05,0.9,1.17,2.48,0.27,3.52
	c-0.5,0.57-1.19,0.87-1.9,0.87C429.28,107.24,428.7,107.04,428.23,106.63 M937.93,99.37c-1.23-0.61-1.74-2.11-1.13-3.35
	c0.61-1.23,2.11-1.74,3.35-1.13c1.23,0.61,1.74,2.11,1.13,3.34c-0.43,0.89-1.32,1.39-2.24,1.39
	C938.67,99.63,938.29,99.55,937.93,99.37 M417.33,97.55L417.33,97.55c-1.08-0.86-1.24-2.43-0.38-3.51c0.86-1.08,2.43-1.24,3.51-0.38
	c1.07,0.87,1.24,2.44,0.38,3.51c-0.49,0.61-1.22,0.93-1.95,0.93C418.34,98.11,417.79,97.92,417.33,97.55 M178.98,94.34
	c-1.17-0.72-1.54-2.26-0.82-3.43c0.72-1.18,2.26-1.54,3.44-0.82c1.17,0.72,1.54,2.25,0.82,3.43c-0.47,0.77-1.29,1.19-2.13,1.19
	C179.85,94.71,179.4,94.59,178.98,94.34 M406.14,88.85c-1.11-0.83-1.33-2.39-0.51-3.5c0.83-1.11,2.4-1.33,3.49-0.5v-0.01
	c1.11,0.83,1.33,2.4,0.51,3.5c-0.49,0.66-1.24,1.01-2.01,1.01C407.11,89.34,406.59,89.18,406.14,88.85 M944.93,86.94
	c-1.13-0.79-1.4-2.35-0.6-3.47c0.79-1.13,2.35-1.4,3.47-0.61c1.13,0.8,1.4,2.35,0.6,3.48c-0.48,0.69-1.26,1.05-2.04,1.05
	C945.87,87.4,945.37,87.25,944.93,86.94 M186.98,82.52c-1.07-0.86-1.23-2.44-0.36-3.51c0.88-1.07,2.45-1.23,3.52-0.36
	c1.07,0.87,1.23,2.44,0.36,3.51c-0.49,0.61-1.21,0.92-1.94,0.92C188,83.08,187.44,82.9,186.98,82.52 M394.62,80.59
	c-1.13-0.78-1.43-2.34-0.65-3.47c0.79-1.14,2.34-1.43,3.48-0.65c1.13,0.78,1.43,2.33,0.65,3.47c-0.48,0.71-1.27,1.08-2.06,1.08
	C395.55,81.03,395.06,80.88,394.62,80.59 M953.67,75.68c-1.01-0.94-1.06-2.52-0.13-3.53c0.94-1.01,2.53-1.07,3.53-0.13
	c1.01,0.94,1.07,2.52,0.13,3.53c-0.49,0.53-1.16,0.79-1.83,0.79C954.76,76.34,954.16,76.12,953.67,75.68 M382.76,72.86L382.76,72.86
	c-1.17-0.72-1.53-2.26-0.81-3.43c0.73-1.18,2.27-1.54,3.44-0.81c1.18,0.72,1.54,2.26,0.81,3.43c-0.47,0.76-1.29,1.18-2.13,1.18
	C383.63,73.24,383.18,73.12,382.76,72.86 M196.44,71.85c-0.95-1-0.9-2.58,0.1-3.52c1.01-0.95,2.58-0.91,3.53,0.1
	c0.95,1,0.9,2.58-0.1,3.52c-0.49,0.46-1.1,0.68-1.71,0.68C197.6,72.64,196.93,72.37,196.44,71.85 M963.81,65.63
	c-0.89-1.06-0.75-2.63,0.31-3.52c1.06-0.89,2.63-0.75,3.52,0.31c0.88,1.06,0.75,2.63-0.31,3.52c-0.47,0.39-1.04,0.59-1.61,0.59
	C965.01,66.52,964.3,66.22,963.81,65.63 M370.55,65.77c-1.21-0.66-1.66-2.18-1-3.39c0.66-1.21,2.18-1.66,3.39-1
	c1.21,0.66,1.66,2.18,0.99,3.39c-0.45,0.83-1.31,1.3-2.19,1.3C371.34,66.07,370.93,65.97,370.55,65.77 M207.22,62.51
	c-0.81-1.12-0.55-2.68,0.57-3.49c1.11-0.81,2.67-0.55,3.48,0.57c0.81,1.12,0.56,2.67-0.56,3.48c-0.44,0.32-0.96,0.47-1.46,0.47
	C208.48,63.55,207.71,63.19,207.22,62.51 M357.96,59.38c-1.25-0.58-1.78-2.08-1.2-3.32c0.58-1.25,2.07-1.79,3.32-1.2
	c1.25,0.58,1.79,2.08,1.2,3.32c-0.42,0.91-1.32,1.43-2.26,1.43C358.66,59.62,358.3,59.55,357.96,59.38 M975.07,56.88
	c-0.77-1.15-0.46-2.7,0.68-3.47c1.15-0.77,2.7-0.46,3.47,0.68c0.77,1.14,0.46,2.7-0.69,3.46c-0.43,0.28-0.91,0.43-1.38,0.43
	C976.34,57.99,975.55,57.6,975.07,56.88 M219.15,54.69c-0.64-1.22-0.18-2.73,1.04-3.38c1.21-0.65,2.73-0.18,3.37,1.03
	c0.65,1.22,0.18,2.73-1.03,3.38c-0.37,0.2-0.77,0.29-1.16,0.29C220.46,56.02,219.6,55.54,219.15,54.69 M345,53.81
	c-1.29-0.5-1.92-1.95-1.41-3.23c0.5-1.28,1.95-1.92,3.23-1.41v-0.01c1.28,0.51,1.92,1.96,1.42,3.24c-0.38,0.98-1.33,1.58-2.33,1.58
	C345.61,53.98,345.3,53.93,345,53.81 M987.15,49.28c-0.67-1.21-0.24-2.73,0.97-3.4c1.21-0.66,2.73-0.23,3.4,0.98
	c0.67,1.21,0.23,2.73-0.97,3.4c-0.38,0.21-0.8,0.31-1.21,0.31C988.45,50.57,987.6,50.11,987.15,49.28 M232.02,48.54
	c-0.49-1.29,0.15-2.73,1.44-3.22c1.28-0.5,2.73,0.15,3.23,1.44c0.48,1.28-0.16,2.73-1.45,3.22c-0.29,0.11-0.59,0.16-0.88,0.16
	C233.35,50.15,232.4,49.54,232.02,48.54 M331.71,49.17c-1.32-0.4-2.05-1.8-1.66-3.12c0.41-1.32,1.8-2.06,3.12-1.65
	c1.31,0.41,2.05,1.8,1.66,3.12c-0.34,1.07-1.32,1.76-2.39,1.76C332.2,49.28,331.96,49.24,331.71,49.17 M245.52,43.96
	c-0.34-1.33,0.47-2.7,1.8-3.03c1.33-0.34,2.7,0.46,3.03,1.8c0.34,1.34-0.46,2.7-1.8,3.04c-0.21,0.05-0.41,0.08-0.62,0.08
	C246.83,45.85,245.82,45.1,245.52,43.96 M318.11,45.58c-1.35-0.3-2.2-1.63-1.9-2.98c0.29-1.35,1.63-2.2,2.97-1.9
	c1.35,0.3,2.2,1.63,1.9,2.98c-0.26,1.16-1.29,1.96-2.43,1.96C318.48,45.64,318.29,45.62,318.11,45.58 M999.77,42.64
	c-0.58-1.25-0.06-2.73,1.19-3.32c1.25-0.59,2.74-0.05,3.32,1.19c0.59,1.25,0.06,2.74-1.19,3.32c-0.34,0.16-0.71,0.24-1.06,0.24
	C1001.1,44.08,1000.2,43.55,999.77,42.64 M304.27,43.11c-1.37-0.19-2.33-1.45-2.14-2.81c0.18-1.37,1.45-2.33,2.81-2.14
	c1.37,0.18,2.33,1.45,2.14,2.81c-0.17,1.26-1.24,2.16-2.47,2.16C304.5,43.13,304.39,43.12,304.27,43.11 M259.47,40.93
	c-0.19-1.36,0.75-2.63,2.12-2.83c1.36-0.19,2.63,0.75,2.83,2.12c0.19,1.36-0.75,2.63-2.12,2.82c-0.12,0.02-0.23,0.03-0.36,0.03
	C260.71,43.08,259.64,42.18,259.47,40.93 M290.28,41.8c-1.38-0.06-2.44-1.23-2.38-2.61c0.07-1.38,1.24-2.44,2.62-2.38
	c1.38,0.07,2.44,1.24,2.38,2.62c-0.07,1.34-1.17,2.38-2.5,2.38C290.36,41.81,290.33,41.81,290.28,41.8 M273.65,39.38
	c-0.06-1.38,1.01-2.55,2.38-2.6c1.38-0.06,2.55,1.01,2.6,2.38c0.06,1.38-1.01,2.54-2.38,2.6h-0.11
	C274.81,41.76,273.7,40.71,273.65,39.38 M1012.78,36.77c-0.54-1.27,0.07-2.73,1.34-3.27c1.28-0.53,2.73,0.07,3.27,1.35
	c0.53,1.27-0.07,2.73-1.34,3.26c-0.31,0.14-0.64,0.19-0.96,0.19C1014.1,38.3,1013.18,37.72,1012.78,36.77 M1026,31.42
	c-0.5-1.29,0.14-2.73,1.43-3.23c1.28-0.49,2.73,0.15,3.22,1.43c0.5,1.29-0.14,2.73-1.43,3.23c-0.29,0.11-0.6,0.16-0.89,0.16
	C1027.33,33.01,1026.38,32.41,1026,31.42"/>
</svg>
